<svg width="1440" height="940" viewBox="0 0 1440 940" fill="none" xmlns="http://www.w3.org/2000/svg">
<g opacity="0.06">
<path d="M-1074.58 665.029L-476.288 726.425L122.024 665.029L720.318 726.425L1318.63 665.029L1916.94 726.425L2515.25 665.029" stroke="white" stroke-width="2" stroke-miterlimit="10"/>
<path d="M-1074.58 771.331L-476.288 832.726L122.024 771.331L720.318 832.726L1318.63 771.331L1916.94 832.726L2515.25 771.331" stroke="white" stroke-width="2" stroke-miterlimit="10"/>
<path d="M-1074.58 877.495L-476.288 938.89L122.024 877.495L720.318 938.89L1318.63 877.495L1916.94 938.89L2515.25 877.495" stroke="white" stroke-width="2" stroke-miterlimit="10"/>
<path d="M720.336 725.728L1278.01 0" stroke="white" stroke-width="2" stroke-miterlimit="10"/>
<path d="M720.336 725.727L2343.28 19.4692" stroke="white" stroke-width="2" stroke-miterlimit="10"/>
<path d="M720.336 725.728L162.659 0" stroke="white" stroke-width="2" stroke-miterlimit="10"/>
<path d="M720.336 725.727L-914.733 14.1992" stroke="white" stroke-width="2" stroke-miterlimit="10"/>
</g>
</svg>
