<svg width="238" height="89" viewBox="0 0 238 89" fill="none" xmlns="http://www.w3.org/2000/svg">
<path d="M190.77 19.9055V21.43H191.137C191.853 21.43 192.431 22.0088 192.431 22.7245V32.7718L183.242 20.6833C182.87 20.194 182.289 19.9055 181.674 19.9055H179.315V21.43H179.638C179.941 21.43 180.243 21.5213 180.474 21.7167C180.759 21.9577 180.918 22.3009 180.918 22.6679L180.9 34.5957C180.898 35.3096 180.319 35.8884 179.605 35.8884H179.24V37.4129H184.383C184.383 36.5712 183.701 35.8884 182.859 35.8884H182.749V24.4335L192.616 37.4129H194.259L194.266 21.4337L194.4 21.4319C195.238 21.4246 195.913 20.7436 195.913 19.9055H190.77Z" fill="#A11D24"/>
<path d="M132.376 35.8883C131.832 35.8883 131.343 35.5542 131.144 35.0466L125.031 19.449H123.95L117.337 37.4128H119.482L121.339 31.9976H126.933L128.379 35.8883H128.047C127.206 35.8883 126.523 36.5711 126.523 37.4128H132.743V35.8883H132.376ZM126.311 30.3361H121.969C122.4 29.1147 123.53 25.9141 124.089 24.3311C124.673 25.9159 125.854 29.1037 126.311 30.3361Z" fill="#A11D24"/>
<path d="M177.19 35.8883C176.646 35.8883 176.156 35.5542 175.957 35.0466L169.845 19.449H168.764L162.151 37.4128H164.296L166.153 31.9976H171.747L173.193 35.8883H172.861C172.019 35.8883 171.336 36.5711 171.336 37.4128H177.557V35.8883H177.19ZM171.125 30.3361H166.783C167.214 29.1147 168.344 25.9141 168.903 24.3311C169.487 25.9159 170.668 29.1037 171.125 30.3361Z" fill="#A11D24"/>
<path d="M145.162 30.7197C144.83 30.1135 144.397 29.5986 143.884 29.1897C143.384 28.7825 142.807 28.4082 142.168 28.0796C141.582 27.7783 140.981 27.4899 140.335 27.2014C139.712 26.9148 139.079 26.5916 138.401 26.2173C137.839 25.9033 137.37 25.5272 137.008 25.1054C136.678 24.7147 136.519 24.2363 136.519 23.6484C136.519 22.9875 136.745 22.4288 137.211 21.9359C137.673 21.4465 138.33 21.2092 139.221 21.2092C140.081 21.2092 140.791 21.4045 141.332 21.7898C141.852 22.1604 142.246 22.6223 142.537 23.1993L142.639 23.4001H144.715V19.712H144.379C143.806 19.712 143.278 20.0188 142.991 20.5154C142.418 20.1667 141.808 19.9202 141.176 19.7814C139.135 19.3286 137.57 19.4875 136.493 19.9713C135.807 20.2726 135.261 20.6706 134.874 21.1508C134.485 21.6236 134.207 22.1312 134.05 22.6589C133.897 23.1646 133.818 23.6503 133.818 24.1049C133.818 24.9283 133.983 25.6477 134.306 26.2429C134.622 26.8289 135.047 27.3402 135.571 27.7601C136.081 28.1691 136.648 28.5324 137.253 28.8391C137.839 29.144 138.45 29.438 139.062 29.7118C139.749 30.0314 140.389 30.3655 140.974 30.7069C141.54 31.0319 142.005 31.4189 142.358 31.859C142.684 32.2734 142.849 32.8011 142.849 33.4273C142.849 34.8386 141.406 35.4795 141.343 35.5069C140.87 35.7168 140.34 35.8227 139.769 35.8227C138.69 35.8227 135.608 35.1454 135.608 32.1365V31.7695H133.397V32.1365C133.397 35.5762 135.862 37.8 139.674 37.8C140.913 37.8 141.989 37.5901 142.874 37.1756C143.764 36.7575 144.455 36.1696 144.932 35.4247C145.405 34.6816 145.644 33.8253 145.644 32.8796C145.644 32.0507 145.482 31.3258 145.162 30.7252V30.7197Z" fill="#A11D24"/>
<path d="M159.142 34.6998C159.142 35.2165 158.722 35.6364 158.205 35.6364H151.782V29.0691H154.322C154.908 29.0691 155.385 29.5456 155.385 30.1317V30.4987H157.172V26.5331H155.385V27.5427H151.781V21.6802H157.53C157.875 21.6802 158.156 21.9613 158.156 22.3064V22.9819H159.567V21.3369C159.567 20.5464 158.925 19.9019 158.132 19.9019H147.307V21.4264H148.96V37.4093H160.548V34.1247H159.137V34.6998H159.142Z" fill="#A11D24"/>
<path d="M123.439 66.6668V66.8768C123.439 67.304 123.092 67.6509 122.665 67.6509H119.325C119.428 67.3953 119.621 67.063 119.932 66.7124C120.22 66.3856 120.885 65.774 121.37 65.3285C121.577 65.1404 121.752 64.9779 121.86 64.8757L121.969 64.7734C122.532 64.2495 124.029 62.8582 124.062 61.2077C124.073 60.7056 123.979 60.2601 123.788 59.884C123.609 59.5262 123.357 59.234 123.041 59.0131C122.731 58.7958 122.38 58.637 122.002 58.5439C121.626 58.449 121.235 58.3997 120.839 58.3997C120.317 58.3997 119.853 58.4745 119.461 58.6224C119.063 58.7703 118.727 58.962 118.462 59.1902C118.057 59.528 117.823 60.0264 117.823 60.5541V61.0105H119.159L119.158 60.6563C119.156 60.2382 119.351 59.8512 119.676 59.643C119.948 59.4677 120.251 59.3819 120.607 59.3819C121.261 59.3819 121.745 59.5517 122.048 59.8858C122.349 60.2163 122.469 60.7166 122.406 61.372C122.278 62.6866 121.328 63.5557 120.7 64.129C120.615 64.2075 120.534 64.2805 120.459 64.3517C120.109 64.6949 119.762 65.0199 119.424 65.3285C119.063 65.6644 118.758 65.9858 118.497 66.3126C118.219 66.6485 117.993 67.0319 117.825 67.4482C117.657 67.8627 117.573 68.3429 117.573 68.8742V69.0841H124.288V66.6558H123.647L123.439 66.6668Z" fill="white"/>
<path d="M140.548 66.6671V66.8771C140.548 67.3043 140.201 67.6512 139.774 67.6512H136.435C136.537 67.3956 136.73 67.0633 137.041 66.7128C137.329 66.3841 137.998 65.7725 138.485 65.3234C138.689 65.1353 138.863 64.9765 138.969 64.8742L139.078 64.772C139.641 64.248 141.138 62.8567 141.171 61.2062C141.182 60.7042 141.089 60.2587 140.897 59.8826C140.718 59.5247 140.466 59.2326 140.15 59.0117C139.84 58.7944 139.489 58.6355 139.111 58.5424C138.735 58.4475 138.344 58.3982 137.948 58.3982C137.426 58.3982 136.962 58.4731 136.57 58.6209C136.172 58.7688 135.836 58.9605 135.571 59.1888C135.166 59.5265 134.932 60.025 134.932 60.5526V61.0091H136.268L136.267 60.6549C136.265 60.2368 136.46 59.8497 136.785 59.6415C137.055 59.4663 137.36 59.3805 137.716 59.3805C138.37 59.3805 138.854 59.5503 139.157 59.8844C139.458 60.2148 139.579 60.7151 139.515 61.3706C139.387 62.6851 138.438 63.5542 137.809 64.1275C137.724 64.206 137.643 64.279 137.568 64.3502C137.218 64.6935 136.871 65.0185 136.533 65.327C136.172 65.663 135.867 65.9843 135.606 66.3111C135.328 66.6471 135.102 67.0305 134.934 67.4468C134.766 67.8612 134.682 68.3414 134.682 68.8727V69.0827H141.397V66.6544H140.756L140.548 66.6671Z" fill="white"/>
<path d="M132.792 60.2258C132.504 59.6872 132.111 59.2435 131.622 58.9112C131.125 58.5735 130.499 58.4019 129.761 58.4019C129.053 58.4019 128.438 58.5753 127.937 58.9186C127.444 59.2563 127.037 59.7036 126.727 60.2495C126.422 60.7863 126.196 61.3815 126.053 62.0206C125.913 62.6523 125.84 63.2858 125.84 63.9011C125.84 64.5146 125.896 65.139 126.008 65.7579C126.121 66.3878 126.318 66.9739 126.594 67.5034C126.877 68.0438 127.276 68.4856 127.784 68.8143C128.293 69.1466 128.94 69.3145 129.705 69.3145C130.415 69.3145 131.027 69.1411 131.523 68.796C132.013 68.4583 132.412 68.0109 132.714 67.4632C133.008 66.9283 133.227 66.333 133.365 65.6922C133.501 65.0587 133.57 64.4324 133.57 63.8281C133.57 63.2146 133.512 62.5884 133.395 61.9694C133.276 61.3395 133.073 60.7535 132.792 60.2258ZM131.673 64.1312C131.673 64.6442 131.64 65.1627 131.574 65.6739C131.51 66.176 131.401 66.6398 131.248 67.0542C131.101 67.4522 130.904 67.7718 130.661 68.0073C130.431 68.2282 130.147 68.3359 129.789 68.3359C129.464 68.3359 129.197 68.2483 128.976 68.0675C128.743 67.8777 128.545 67.6166 128.387 67.2934C128.222 66.9556 128.091 66.574 127.994 66.1559C127.895 65.7324 127.828 65.296 127.791 64.8596C127.755 64.4196 127.735 63.996 127.735 63.6017C127.735 63.0759 127.773 62.5519 127.848 62.0406C127.921 61.5349 128.041 61.0693 128.208 60.6549C128.368 60.2568 128.578 59.9337 128.836 59.7C129.079 59.4772 129.372 59.3677 129.732 59.3677C130.095 59.3677 130.388 59.4918 130.625 59.7456C130.881 60.0177 131.085 60.3865 131.238 60.8429C131.395 61.3158 131.509 61.8416 131.573 62.4058C131.64 62.9809 131.673 63.5597 131.673 64.1312Z" fill="white"/>
<path d="M148.989 64.2206C148.594 63.85 148.096 63.5852 147.497 63.4282C147.784 63.3004 148.028 63.158 148.229 63.0065C148.6 62.7217 148.859 62.424 149.02 62.0954C149.182 61.7631 149.264 61.429 149.264 61.104C149.264 60.4595 149.115 59.9282 148.821 59.5265C148.531 59.1267 148.142 58.8346 147.663 58.6593C147.201 58.4877 146.694 58.4019 146.157 58.4019C145.467 58.4019 144.881 58.5297 144.415 58.7798C143.95 59.0299 143.599 59.333 143.373 59.6799C143.27 59.8351 143.194 59.9793 143.141 60.1181L143.029 60.4047H144.432L144.481 60.2623C144.547 60.0706 144.713 59.8734 144.976 59.6781C145.248 59.4809 145.567 59.3841 145.954 59.3841C146.351 59.3841 146.655 59.4608 146.864 59.6105C147.074 59.7602 147.223 59.9684 147.309 60.2331C147.404 60.5271 147.45 60.8502 147.45 61.2209C147.45 61.4637 147.391 61.7321 147.278 62.0206C147.167 62.3036 146.984 62.5409 146.723 62.7509C146.467 62.9572 146.111 63.0631 145.666 63.0631C145.226 63.0631 144.87 63.4191 144.87 63.8591V64.0727H145.686C146.299 64.0545 146.732 64.1512 147.083 64.3813C147.408 64.5967 147.625 64.8669 147.747 65.2029C147.873 65.5589 147.937 65.9387 147.937 66.3294C147.937 66.9794 147.76 67.4596 147.395 67.7937C147.03 68.126 146.529 68.2958 145.909 68.2958C145.5 68.2958 145.173 68.2319 144.903 68.1004C144.437 67.8795 144.297 67.6111 144.249 66.8589L144.236 66.6617H142.79V66.8716C142.79 66.9337 142.807 68.3779 144.216 68.9932C144.713 69.2105 145.315 69.32 146.007 69.32C146.665 69.32 147.285 69.2086 147.853 68.9896C148.43 68.7705 148.908 68.429 149.277 67.9708C149.642 67.507 149.829 66.9209 149.829 66.2271C149.836 65.4202 149.551 64.7464 148.989 64.2206Z" fill="white"/>
<path d="M129.197 43.0964V43.971H129.407C129.818 43.971 130.151 44.3033 130.151 44.7141V50.4744L124.881 43.5437C124.668 43.2626 124.335 43.0983 123.983 43.0983H122.63V43.9728H122.815C122.988 43.9728 123.161 44.0258 123.295 44.1371C123.459 44.2759 123.548 44.4712 123.548 44.683L123.538 51.5224C123.538 51.9314 123.205 52.2637 122.794 52.2637H122.584V53.1382H125.533C125.533 52.6562 125.142 52.2637 124.659 52.2637H124.596V45.6927L130.255 53.1346H131.197L131.2 43.9728H131.277C131.757 43.9692 132.144 43.5784 132.144 43.0964H129.197Z" fill="white"/>
<path d="M161.143 43.0964V43.971H161.353C161.764 43.971 162.096 44.3033 162.096 44.7141V50.4744L156.827 43.5437C156.613 43.2626 156.281 43.0983 155.929 43.0983H154.576V43.9728H154.76C154.934 43.9728 155.107 44.0258 155.241 44.1371C155.405 44.2759 155.494 44.4712 155.494 44.683L155.483 51.5224C155.483 51.9314 155.151 52.2637 154.74 52.2637H154.53V53.1382H157.479C157.479 52.6562 157.088 52.2637 156.604 52.2637H156.542V45.6927L162.2 53.1346H163.142L163.146 43.9728H163.223C163.703 43.9692 164.09 43.5784 164.09 43.0964H161.143Z" fill="white"/>
<path d="M195.462 52.2765C195.15 52.2765 194.869 52.0848 194.756 51.7945L191.25 42.8518H190.63L186.837 53.151H188.068L189.132 50.0454H192.34L193.169 52.2765H192.977C192.495 52.2765 192.103 52.6672 192.103 53.151H195.671V52.2765H195.462ZM191.984 49.0923H189.496C189.742 48.3912 190.39 46.5563 190.712 45.6489C191.046 46.5581 191.723 48.3857 191.984 49.0923Z" fill="white"/>
<path d="M120.143 44.2633C120.143 43.6242 119.623 43.1057 118.986 43.1057H117.578V43.9803H117.788C118.195 43.9803 118.526 44.3107 118.526 44.7179V51.5335C118.526 51.9407 118.195 52.2711 117.788 52.2711H117.578V53.1457H121.091V52.2711H120.145V44.2633H120.143Z" fill="white"/>
<path d="M184.785 44.2633C184.785 43.6242 184.265 43.1057 183.628 43.1057H182.22V43.9803H182.43C182.837 43.9803 183.168 44.3107 183.168 44.7179V51.5335C183.168 51.9407 182.837 52.2711 182.43 52.2711H182.22V53.1457H185.733V52.2711H184.787V44.2633H184.785Z" fill="white"/>
<path d="M140.859 44.3107C140.34 43.8962 139.716 43.5858 139.006 43.3868C138.304 43.1897 137.523 43.0911 136.681 43.0911L133.229 43.1057V43.9784H133.439C133.846 43.9784 134.176 44.3089 134.176 44.716V53.142H137.052C137.936 53.142 138.726 53.005 139.404 52.7348C140.083 52.4628 140.658 52.0922 141.116 51.6302C141.574 51.1665 141.923 50.6279 142.151 50.0254C142.38 49.4283 142.495 48.793 142.495 48.1375C142.495 47.2885 142.352 46.5363 142.071 45.9028C141.792 45.2637 141.383 44.7288 140.859 44.3107ZM140.731 48.0827C140.731 48.6688 140.64 49.2202 140.461 49.7223C140.282 50.2226 140.028 50.6607 139.705 51.0277C139.383 51.3929 138.991 51.6832 138.538 51.8895C138.087 52.0958 137.574 52.1999 137.012 52.1999H135.796V44.0934H136.532C137.634 44.0934 138.37 44.2249 138.918 44.5225C139.526 44.8529 139.984 45.3203 140.28 45.9155C140.579 46.5199 140.731 47.2484 140.731 48.0827Z" fill="white"/>
<path d="M180.584 49.3041C180.392 48.9572 180.146 48.6615 179.852 48.4259C179.565 48.1922 179.235 47.9786 178.868 47.7887C178.532 47.6153 178.187 47.451 177.816 47.2848C177.458 47.1205 177.097 46.9361 176.708 46.7207C176.385 46.5399 176.116 46.3263 175.91 46.0835C175.722 45.8589 175.629 45.585 175.629 45.2491C175.629 44.8711 175.758 44.5498 176.025 44.2668C176.29 43.9875 176.668 43.8505 177.177 43.8505C177.67 43.8505 178.077 43.9619 178.388 44.1828C178.685 44.3946 178.912 44.6594 179.08 44.9916L179.138 45.1067H180.328V42.9924H180.137C179.808 42.9924 179.505 43.1677 179.341 43.4525C179.012 43.2535 178.663 43.1111 178.3 43.0326C177.13 42.7733 176.233 42.8646 175.614 43.1421C175.222 43.3156 174.908 43.542 174.685 43.8177C174.462 44.0897 174.303 44.38 174.212 44.6813C174.124 44.9716 174.079 45.2491 174.079 45.5102C174.079 45.983 174.174 46.3957 174.358 46.7353C174.539 47.0712 174.784 47.3652 175.083 47.6062C175.375 47.8417 175.7 48.0498 176.047 48.2251C176.383 48.4004 176.733 48.5683 177.084 48.7254C177.477 48.9079 177.845 49.0996 178.179 49.295C178.504 49.4812 178.771 49.704 178.974 49.9559C179.16 50.1933 179.255 50.4964 179.255 50.8561C179.255 51.6649 178.428 52.0319 178.391 52.0483C178.119 52.1688 177.816 52.229 177.489 52.229C176.87 52.229 175.103 51.8401 175.103 50.1148V49.9048H173.836V50.1148C173.836 52.0866 175.249 53.3628 177.435 53.3628C178.145 53.3628 178.762 53.2423 179.269 53.005C179.779 52.7658 180.175 52.428 180.449 52.0008C180.721 51.5736 180.858 51.0843 180.858 50.542C180.858 50.0673 180.765 49.651 180.582 49.306L180.584 49.3041Z" fill="white"/>
<path d="M171.829 51.5863C171.829 51.8821 171.588 52.1231 171.293 52.1231H167.61V48.3584H169.067C169.403 48.3584 169.677 48.6322 169.677 48.9682V49.1781H170.703V46.905H169.677V47.4838H167.61V44.1225H170.906C171.103 44.1225 171.265 44.2832 171.265 44.4822V44.8693H172.074V43.9254C172.074 43.4726 171.705 43.1038 171.252 43.1038H165.047V43.9783H165.994V53.1419H172.638V51.2577H171.829V51.5863Z" fill="white"/>
<path d="M143.873 48.1229C143.873 47.3853 143.99 46.6952 144.225 46.058C144.459 45.4189 144.795 44.8657 145.228 44.3965C145.662 43.9273 146.181 43.5585 146.785 43.2883C147.39 43.018 148.065 42.8848 148.814 42.8848C149.562 42.8848 150.238 43.0199 150.842 43.2883C151.446 43.5585 151.963 43.9273 152.392 44.3965C152.821 44.8657 153.153 45.4189 153.387 46.058C153.621 46.697 153.74 47.3853 153.74 48.1229C153.74 48.8624 153.623 49.5507 153.387 50.1879C153.152 50.8269 152.821 51.3801 152.392 51.8493C151.963 52.3186 151.446 52.6874 150.842 52.9576C150.238 53.2278 149.562 53.3611 148.814 53.3611C148.065 53.3611 147.39 53.226 146.785 52.9576C146.181 52.6874 145.662 52.3186 145.228 51.8493C144.793 51.3801 144.459 50.8269 144.225 50.1879C143.992 49.5507 143.873 48.8624 143.873 48.1229ZM152.007 48.1229C152.007 46.8011 151.728 45.7786 151.171 45.0593C150.614 44.3399 149.827 43.9784 148.812 43.9784C147.797 43.9784 147.013 44.3381 146.462 45.0593C145.911 45.7805 145.635 46.8011 145.635 48.1229C145.635 49.4448 145.911 50.4672 146.462 51.1866C147.013 51.9078 147.797 52.2674 148.812 52.2674C149.827 52.2674 150.612 51.9078 151.171 51.1866C151.728 50.4672 152.007 49.4466 152.007 48.1229Z" fill="white"/>
<path d="M161.945 70.4377C158.317 70.4377 155.365 67.4854 155.365 63.8594C155.365 60.2316 158.317 57.2793 161.945 57.2793C165.572 57.2793 168.525 60.2298 168.525 63.8594C168.525 67.4854 165.572 70.4377 161.945 70.4377Z" fill="white"/>
<path d="M168.693 63.8575C168.693 67.5839 165.671 70.6055 161.945 70.6055C158.218 70.6055 155.197 67.5839 155.197 63.8575C155.197 60.1292 158.218 57.1094 161.945 57.1094C165.671 57.1112 168.693 60.131 168.693 63.8575ZM161.945 70.2678C165.479 70.2678 168.355 67.3922 168.355 63.8593C168.355 60.3246 165.479 57.449 161.945 57.449C158.41 57.449 155.534 60.3246 155.534 63.8593C155.534 67.3922 158.41 70.2678 161.945 70.2678Z" fill="#0060A9"/>
<path d="M161.945 69.9646C158.578 69.9646 155.839 67.2241 155.839 63.8574C155.839 60.4906 158.578 57.752 161.945 57.752C165.311 57.752 168.05 60.4906 168.05 63.8574C168.052 67.2241 165.311 69.9646 161.945 69.9646Z" fill="#EF3E33"/>
<path d="M160.327 63.8575C159.04 62.5685 158.95 60.8669 158.948 60.3794C158.948 60.3611 158.95 60.3447 158.95 60.3301H158.419C158.419 61.7615 158.976 63.1655 160.135 63.8575C158.976 64.5476 158.419 65.9535 158.419 67.3831H158.95C158.95 67.3685 158.948 67.3539 158.948 67.3338C158.95 66.8481 159.04 65.1447 160.327 63.8575Z" fill="#FFF200"/>
<path d="M160.709 63.8575C159.77 62.521 159.677 60.8833 159.675 60.3903C159.675 60.3684 159.677 60.3483 159.677 60.3301H159.14C159.14 60.3447 159.14 60.3611 159.14 60.3794C159.138 60.8523 159.259 62.5539 160.517 63.8575C159.257 65.1611 159.138 66.8627 159.14 67.3338C159.14 67.3539 159.14 67.3703 159.14 67.3831H159.677C159.677 67.3666 159.675 67.3466 159.675 67.3246C159.677 66.8335 159.77 65.194 160.709 63.8575Z" fill="#FFF200"/>
<path d="M161.081 63.8576C160.458 62.4956 160.405 60.9272 160.405 60.4142C160.405 60.3813 160.405 60.3539 160.405 60.3284H159.869C159.869 60.3466 159.869 60.3667 159.869 60.3886C159.867 60.8688 159.918 62.355 160.867 63.8101L160.902 63.8558L160.867 63.9014C159.918 65.3584 159.867 66.8428 159.869 67.3229C159.869 67.3448 159.869 67.3649 159.869 67.3814H160.405C160.405 67.3576 160.405 67.3302 160.405 67.2955C160.405 66.788 160.458 65.2196 161.081 63.8576Z" fill="#FFF200"/>
<path d="M161.468 63.8576C161.165 62.5211 161.132 61.0715 161.132 60.4982C161.132 60.427 161.134 60.3722 161.134 60.3284H160.597C160.595 60.3521 160.595 60.3795 160.595 60.4142C160.593 60.9163 160.654 62.5193 161.274 63.8448L161.28 63.8576L161.274 63.8704C160.654 65.1941 160.595 66.7971 160.595 67.2992C160.595 67.3339 160.595 67.3594 160.597 67.385H161.134C161.134 67.343 161.132 67.2882 161.132 67.217C161.132 66.6437 161.165 65.1941 161.468 63.8576Z" fill="#FFF200"/>
<path d="M161.324 60.3301C161.322 60.3721 161.322 60.4268 161.322 60.4999C161.322 61.0677 161.355 62.521 161.656 63.8374L161.66 63.8593L161.656 63.8812C161.355 65.1976 161.322 66.6509 161.322 67.2187C161.322 67.29 161.322 67.3465 161.324 67.3867H161.853V60.3319H161.324V60.3301Z" fill="#FFF200"/>
<path d="M163.756 63.8575C164.915 63.1655 165.474 61.7615 165.474 60.3301H164.942C164.942 60.3465 164.942 60.3611 164.942 60.3794C164.941 60.8669 164.851 62.5685 163.564 63.8575C164.851 65.1447 164.941 66.8481 164.942 67.3338C164.942 67.3539 164.942 67.3685 164.942 67.3831H165.474C165.474 65.9535 164.915 64.5495 163.756 63.8575Z" fill="#FFF200"/>
<path d="M164.751 60.3813C164.751 60.3631 164.751 60.3466 164.751 60.332H164.214C164.214 60.3503 164.214 60.3704 164.214 60.3923C164.214 60.8852 164.121 62.5248 163.182 63.8594C164.121 65.1941 164.214 66.8355 164.214 67.3266C164.214 67.3485 164.214 67.3686 164.214 67.385H164.751C164.751 67.3722 164.751 67.3558 164.751 67.3357C164.751 66.8647 164.632 65.163 163.372 63.8594C164.632 62.554 164.751 60.8542 164.751 60.3813Z" fill="#FFF200"/>
<path d="M162.991 63.8575L163.024 63.8118C163.975 62.3567 164.024 60.8705 164.022 60.3903C164.022 60.3684 164.022 60.3483 164.022 60.3301H163.486C163.486 60.3556 163.486 60.3812 163.486 60.4159C163.486 60.9289 163.433 62.4955 162.81 63.8593C163.433 65.2213 163.486 66.7879 163.486 67.3009C163.486 67.3338 163.486 67.3612 163.486 67.3867H164.022C164.022 67.3703 164.022 67.3502 164.022 67.3283C164.024 66.8481 163.973 65.3619 163.024 63.9068L162.991 63.8575Z" fill="#FFF200"/>
<path d="M162.611 63.8576L162.616 63.8448C163.237 62.5211 163.296 60.9181 163.296 60.4142C163.296 60.3795 163.296 60.3539 163.296 60.3284H162.759C162.759 60.3704 162.759 60.427 162.759 60.4982C162.759 61.0715 162.726 62.5193 162.423 63.8576C162.726 65.1922 162.759 66.6419 162.759 67.2152C162.759 67.2864 162.759 67.3412 162.759 67.3832H163.296C163.296 67.3594 163.296 67.3339 163.296 67.2974C163.297 66.7953 163.237 65.1922 162.616 63.8686L162.611 63.8576Z" fill="#FFF200"/>
<path d="M162.227 63.8576L162.233 63.8357C162.536 62.5193 162.569 61.066 162.569 60.4982C162.569 60.427 162.567 60.3704 162.567 60.3284H162.038V67.3832H162.567C162.569 67.343 162.569 67.2864 162.569 67.2152C162.569 66.6474 162.536 65.1941 162.233 63.8777L162.227 63.8576Z" fill="#FFF200"/>
<path d="M99.9776 30.5534C99.2619 32.2843 97.4471 31.8771 96.0832 31.5485C94.429 31.1541 91.3763 30.0678 88.603 31.91C87.8234 32.4249 85.8716 34.289 84.8711 35.2603C84.6429 35.4812 84.3307 35.5871 84.0148 35.5488C80.995 35.1891 77.7925 34.928 74.4678 34.7801C71.9062 34.6669 69.4104 34.6304 67.0095 34.6614C66.5257 34.6669 66.2646 34.0991 66.5841 33.7358C68.8773 31.1377 71.8934 25.507 77.5205 27.1392C82.8061 28.6729 86.6585 24.4352 89.9139 19.5257C90.6771 18.3755 91.8894 16.6574 93.8338 17.6379C95.5738 18.5142 99.806 24.249 100.133 29.4507C100.157 29.825 100.12 30.2047 99.9776 30.5534Z" fill="url(#paint0_linear_80_63)"/>
<path d="M82.6474 37.0696C83.0618 37.1152 83.3229 37.3234 83.0399 37.6301C80.4948 40.3888 73.2957 44.5133 64.8661 42.2621C57.1175 40.1971 54.3259 42.5323 48.5929 42.7003C41.7974 42.8993 42.1991 40.398 43.5319 39.5946C48.4231 36.6442 60.0424 35.8116 74.3437 36.4415C77.212 36.5675 79.9945 36.7811 82.6474 37.0696Z" fill="url(#paint1_linear_80_63)"/>
<path d="M74.4861 11.0889C74.6559 11.0925 74.8239 11.0943 74.9955 11.0998C74.8257 11.0962 74.6559 11.0907 74.4861 11.0889Z" fill="white"/>
<path d="M89.0229 74.3631C93.2405 72.2416 96.9651 69.251 99.9466 65.6049C101.599 63.5837 102.36 60.8232 101.467 58.5702C101.398 58.4077 101.325 58.247 101.245 58.0827C101.131 57.8672 101.004 57.6536 100.852 57.4528C99.6599 55.8771 98.0569 55.2691 96.8044 54.8656C96.746 54.8474 93.6476 53.9619 90.9345 55.0245C90.2882 55.2783 90.2772 56.1802 90.9071 56.4705C94.0548 57.9275 94.1095 60.4562 93.4322 62.5522C91.694 67.783 85.7438 70.6988 84.4712 71.0676C83.5145 71.3433 83.1731 70.2679 84.1992 69.7622C85.4955 69.125 87.3322 68.0021 88.9827 65.9646C91.1792 63.2569 89.3369 59.2548 85.8515 59.1635C84.7305 59.1343 83.4817 59.284 82.1178 59.6693C82.116 59.6693 82.1142 59.6693 82.1123 59.6711C81.5409 59.8318 80.9767 60.0107 80.4162 60.2024C75.0813 62.0337 64.4461 68.7945 59.343 66.8501C59.0509 66.7387 59.0947 66.3206 59.4015 66.264C60.5097 66.0595 61.366 65.0005 60.1884 64.0493C57.9208 62.2199 53.2139 61.579 51.0011 61.3745C50.2634 61.3052 49.5697 61.0076 48.9927 60.5438C46.6612 58.6742 43.5756 58.1557 43.7564 58.561C43.7582 58.5647 43.76 58.5701 43.7618 58.5738C43.9006 58.8769 44.043 59.1781 44.1909 59.4776C49.325 69.6946 59.5621 76.9777 71.7072 77.8303C71.7237 77.8321 71.7401 77.8321 71.7565 77.834C72.0304 77.8522 72.3043 77.8686 72.5799 77.8814C72.6749 77.8851 72.7698 77.8869 72.8666 77.8906C73.0327 77.896 73.1989 77.9033 73.365 77.907C73.5659 77.9106 73.7667 77.9125 73.9675 77.9125C74.0223 77.9125 74.0789 77.9143 74.1337 77.9143C74.371 77.9143 74.6084 77.9106 74.8439 77.9052C74.8567 77.9052 74.8695 77.9052 74.8804 77.9052C78.1851 77.823 81.3839 77.257 84.4019 76.2711C85.7347 75.7763 87.3359 75.1373 89.0229 74.3631ZM52.6297 64.4017C52.2335 64.9659 51.4046 64.9293 51.0595 64.3323C50.886 64.0311 50.9025 63.644 51.1015 63.3592C51.4977 62.795 52.3266 62.8315 52.6716 63.4285C52.8469 63.7298 52.8305 64.1169 52.6297 64.4017Z" fill="url(#paint2_linear_80_63)"/>
<path d="M107.423 45.7003C107.423 45.6966 107.423 45.6911 107.423 45.6875C107.555 42.7516 107.279 39.7993 106.589 36.942C106.242 35.5069 105.857 34.0883 105.313 32.7117C104.874 31.6016 103.863 28.6949 100.914 24.7129C100.706 24.4318 100.268 24.691 100.418 25.0087C101.411 27.1156 102.503 30.0862 101.444 32.1639C99.9137 35.1655 95.5957 33.0951 93.0324 32.8249C88.8185 32.3794 86.7736 35.8557 85.3604 37.4715C79.5727 44.0917 72.1984 45.7879 63.9659 43.8599C58.6255 42.6092 55.1693 43.3614 52.7703 43.7832C45.7483 45.0174 42.7486 43.8781 41.5253 42.7991C41.2295 42.538 40.7767 42.6859 40.6799 43.0401C40.6562 43.5677 40.6471 44.0917 40.6489 44.6139C40.7804 48.9264 42.4327 52.0503 45.1622 54.5042C48.7462 57.7267 62.5236 65.6725 76.7354 59.9505C86.8959 55.8607 89.3625 52.4337 94.4364 52.7441C103.47 53.2992 103.339 60.1896 104.725 57.796C104.725 57.796 104.725 57.7942 104.726 57.7942C106.147 54.5206 107.06 50.9695 107.363 47.2321C107.398 46.73 107.418 46.2188 107.423 45.7003Z" fill="url(#paint3_linear_80_63)"/>
<path d="M45.0747 32.8138L45.113 32.8102C45.5512 32.7609 45.9401 32.5089 46.1537 32.131C47.2437 30.2048 49.0403 27.8532 51.2897 25.8521C53.1081 24.2345 55.4798 23.3508 57.9118 23.4275C57.9264 23.4275 57.9391 23.4275 57.9537 23.4293C64.4353 23.6484 68.1672 22.343 71.3404 17.9775C73.5076 14.9978 78.2984 13.3291 82.8282 13.3254C83.4453 13.3254 83.5694 12.4527 82.9761 12.2884C80.5952 11.6311 78.1049 11.2294 75.5324 11.1162C75.3516 11.1089 75.1727 11.1053 74.9937 11.0998C74.8239 11.0943 74.6542 11.0925 74.4844 11.0889C64.0519 10.9519 54.6107 15.6405 48.3702 23.1372C45.5384 26.6445 44.076 29.9072 43.6342 30.9552C43.2343 31.9082 44.0285 32.9343 45.0747 32.8138Z" fill="url(#paint4_linear_80_63)"/>
<defs>
<linearGradient id="paint0_linear_80_63" x1="66.4439" y1="26.452" x2="100.14" y2="26.452" gradientUnits="userSpaceOnUse">
<stop offset="0.7702" stop-color="#9C1421"/>
<stop offset="0.9335" stop-color="#7A0511"/>
</linearGradient>
<linearGradient id="paint1_linear_80_63" x1="42.74" y1="39.5773" x2="83.1576" y2="39.5773" gradientUnits="userSpaceOnUse">
<stop offset="0.5696" stop-color="#BCBEC0"/>
<stop offset="0.9505" stop-color="#939598"/>
</linearGradient>
<linearGradient id="paint2_linear_80_63" x1="43.7494" y1="66.2082" x2="101.846" y2="66.2082" gradientUnits="userSpaceOnUse">
<stop offset="0.242" stop-color="#939598"/>
<stop offset="0.4948" stop-color="#BCBEC0"/>
</linearGradient>
<linearGradient id="paint3_linear_80_63" x1="40.6511" y1="43.2788" x2="107.455" y2="43.2788" gradientUnits="userSpaceOnUse">
<stop stop-color="#A01622"/>
<stop offset="0.4028" stop-color="#EC2B3A"/>
</linearGradient>
<linearGradient id="paint4_linear_80_63" x1="43.5303" y1="21.9551" x2="83.364" y2="21.9551" gradientUnits="userSpaceOnUse">
<stop stop-color="#A01622"/>
<stop offset="0.4028" stop-color="#EC2B3A"/>
</linearGradient>
</defs>
</svg>
