<svg width="228" height="89" viewBox="0 0 228 89" fill="none" xmlns="http://www.w3.org/2000/svg">
<path fill-rule="evenodd" clip-rule="evenodd" d="M54.0093 23.863C49.8201 19.4896 42.1851 20.012 34.2298 24.4899C33.042 25.1574 33.131 27.8986 34.2554 28.6156C40.4337 32.6056 45.6358 38.0446 49.4484 44.5007C50.1321 45.6755 52.7882 45.7158 53.4088 44.5125C53.2628 44.2289 53.1124 43.9458 52.9578 43.6632C53.1117 43.9458 53.262 44.2289 53.4088 44.5125C57.698 36.2073 58.1984 28.2365 54.0093 23.863ZM45.1561 33.1057C42.8808 30.7178 40.3879 28.5672 37.7129 26.6843C40.7927 25.1975 43.7264 24.4003 46.2114 24.4003C48.4333 24.4003 50.2978 25.0364 51.5902 26.3856C54.3324 29.2484 54.0064 34.7893 51.3071 40.8766C49.5012 38.0856 47.4413 35.4832 45.1561 33.1057Z" fill="#FFC750"/>
<path fill-rule="evenodd" clip-rule="evenodd" d="M55.8594 50.5009C55.2249 48.4287 54.4044 46.4236 53.4087 44.5124C52.7796 43.2913 50.1297 43.3281 49.4483 44.5005C47.5588 47.7265 45.3056 50.7043 42.7368 53.37C40.1885 56.0532 37.3411 58.4075 34.2556 60.3826C33.1309 61.0996 33.0803 63.8634 34.23 64.508C38.4647 66.8932 42.6084 68.1562 46.1915 68.1562C49.3369 68.1562 52.0504 67.1831 54.0092 65.1379C57.0748 61.9377 57.7295 56.7404 55.8594 50.5009ZM51.5901 62.6123C48.8478 65.4752 43.5433 65.1319 37.7128 62.3139C40.3878 60.4311 42.8807 58.2804 45.156 55.8925C47.4423 53.5196 49.5032 50.9211 51.3099 48.1335C54.0063 54.2179 54.3323 59.7525 51.5901 62.6123Z" fill="#FF6895"/>
<path fill-rule="evenodd" clip-rule="evenodd" d="M34.2295 24.4898C32.3985 23.4491 30.4769 22.5924 28.4905 21.9314C22.517 19.9793 17.5384 20.6625 14.4731 23.8627C12.5144 25.9079 11.582 28.7411 11.582 32.0252C11.582 35.7658 12.7917 40.0945 15.0736 44.5157C15.6942 45.7161 18.3415 45.6618 19.0283 44.4861C22.8509 38.0302 28.0651 32.5958 34.2554 28.6159C35.373 27.9069 35.3963 25.144 34.2298 24.4901L34.2295 24.4898ZM17.1781 40.8765C14.4785 34.7892 14.15 29.2484 16.8923 26.3855C19.0113 24.1733 22.7688 23.8001 27.4698 25.3407C28.5956 25.7124 29.6977 26.1581 30.7695 26.6751C25.4213 30.4712 20.8097 35.2898 17.1781 40.8765Z" fill="#5FC5A6"/>
<path fill-rule="evenodd" clip-rule="evenodd" d="M34.2556 60.3825C31.1598 58.41 28.3025 56.0558 25.7454 53.3705C23.1731 50.7011 20.9178 47.7183 19.0283 44.4862C18.3469 43.3203 15.6998 43.2981 15.0735 44.5159C14.0788 46.4261 13.2592 48.4302 12.6257 50.5015C10.7528 56.7409 11.4104 61.9383 14.4728 65.1384C16.3946 67.1418 19.0655 68.1597 22.2624 68.1597C24.3794 68.1262 26.4793 67.7578 28.4905 67.067C30.4764 66.4047 32.3979 65.5481 34.2295 64.5086C35.153 63.9924 35.3719 61.0942 34.2551 60.3828L34.2556 60.3825ZM27.4697 63.6607C22.7688 65.1977 19.0115 64.8248 16.8925 62.6126C14.7735 60.4006 14.416 56.4775 15.8888 51.5698C16.2445 50.3953 16.6714 49.2456 17.167 48.1278C18.9766 50.9174 21.0402 53.5178 23.3292 55.8928C25.603 58.2839 28.095 60.4376 30.7698 62.323C29.6984 62.8422 28.5963 63.2889 27.47 63.6604L27.4697 63.6607Z" fill="#5666F6"/>
<path fill-rule="evenodd" clip-rule="evenodd" d="M26.6099 44.2845L34.242 31.7637L41.8742 44.2845L34.242 48.8377L26.6099 44.2845Z" fill="white"/>
<path fill-rule="evenodd" clip-rule="evenodd" d="M26.6099 46.4231L34.242 50.976L41.8742 46.4231L34.242 57.2366L26.6099 46.4231Z" fill="white"/>
<path fill-rule="evenodd" clip-rule="evenodd" d="M37.7128 26.6839C36.5275 27.2614 35.3734 27.9062 34.2556 28.6155C33.1309 27.8984 31.967 27.2506 30.7698 26.6753C31.8873 25.8867 33.0421 25.1572 34.2298 24.4897C35.3966 25.1436 36.5576 25.875 37.7128 26.6839Z" fill="#5F9A34"/>
<path fill-rule="evenodd" clip-rule="evenodd" d="M53.4087 44.5124C52.7664 45.7547 52.066 46.9632 51.3098 48.1335C50.7534 46.8879 50.1319 45.6751 49.4482 44.5005C50.1297 43.3283 50.7501 42.1185 51.3067 40.8765C52.0789 42.0793 52.7795 43.2913 53.4087 44.5124Z" fill="#FF512F"/>
<path fill-rule="evenodd" clip-rule="evenodd" d="M37.7128 62.3141C37.4727 62.4844 37.2326 62.6485 36.9922 62.8095C36.0936 63.4141 35.1721 63.9808 34.2301 64.5083C33.0803 63.8635 31.9269 63.1351 30.7698 62.323C31.967 61.7477 33.1309 61.0999 34.2556 60.3828C35.3722 61.0942 36.5264 61.739 37.7128 62.3141Z" fill="#552990"/>
<path fill-rule="evenodd" clip-rule="evenodd" d="M19.0285 44.4855C18.3417 45.6613 17.7201 46.8774 17.1669 48.1276C16.4137 46.9596 15.7152 45.7541 15.0737 44.5154C15.7171 43.2667 16.4195 42.0522 17.1783 40.8762C17.7291 42.1148 18.347 43.3198 19.0285 44.4855Z" fill="#204FA0"/>
<path d="M211.613 54.4529V56.4304C211.282 56.6331 210.906 56.7383 210.523 56.7348C209.764 56.7537 209.021 56.5049 208.415 56.0287C207.808 55.5525 207.373 54.8767 207.18 54.1105C206.161 55.259 204.836 56.0635 203.376 56.4208C201.916 56.778 200.387 56.6717 198.985 56.1155C197.584 55.5593 196.373 54.5786 195.509 53.2992C194.644 52.0197 194.166 50.4999 194.135 48.9346C194.103 47.3693 194.521 45.83 195.333 44.514C196.146 43.1981 197.316 42.1655 198.695 41.5488C200.073 40.9321 201.596 40.7594 203.069 41.0528C204.543 41.3462 205.898 42.0924 206.962 43.1956V41.218H209.215V52.4753C209.215 53.8824 209.905 54.4529 210.704 54.4529H211.613ZM206.962 48.8242C206.959 47.7296 206.646 46.6605 206.061 45.7518C205.477 44.8432 204.647 44.1358 203.678 43.719C202.708 43.3022 201.642 43.1946 200.614 43.41C199.586 43.6254 198.643 44.154 197.902 44.929C197.162 45.7041 196.658 46.6908 196.455 47.7646C196.251 48.8383 196.357 49.951 196.759 50.962C197.161 51.9729 197.841 52.8369 198.713 53.4447C199.585 54.0525 200.609 54.3769 201.658 54.3769C202.355 54.376 203.046 54.2316 203.69 53.952C204.334 53.6724 204.919 53.2631 205.412 52.7475C205.904 52.2319 206.295 51.62 206.561 50.9468C206.827 50.2737 206.963 49.5524 206.962 48.8242ZM214.453 33.4969H216.819V56.7357H214.453V33.4969ZM190.787 48.7219C190.793 50.2947 190.355 51.8345 189.528 53.1493C188.701 54.4641 187.522 55.4958 186.138 56.1157C184.759 56.7247 183.238 56.8891 181.77 56.5875C180.301 56.286 178.953 55.5324 177.899 54.4238V56.4275H175.641V33.0027H177.899V43.0196C178.953 41.911 180.301 41.1574 181.77 40.8559C183.238 40.5543 184.759 40.7187 186.138 41.3277C187.522 41.9477 188.702 42.9794 189.528 44.2943C190.355 45.6091 190.793 47.149 190.787 48.7219ZM188.53 48.7219C188.516 47.6274 188.192 46.5618 187.599 45.659C187.006 44.7562 186.171 44.0565 185.199 43.6479C184.226 43.2392 183.16 43.14 182.133 43.3625C181.107 43.5851 180.166 44.1196 179.43 44.8987C178.693 45.6778 178.194 46.6669 177.995 47.7414C177.795 48.816 177.905 49.9281 178.309 50.9379C178.714 51.9476 179.395 52.81 180.268 53.4165C181.141 54.0231 182.166 54.3467 183.214 54.3467C183.915 54.3482 184.608 54.2038 185.255 53.9218C185.901 53.6399 186.487 53.226 186.978 52.7046C187.978 51.6427 188.536 50.2112 188.53 48.7219ZM156.236 48.8248C156.237 46.9968 156.846 45.226 157.958 43.8141C159.07 42.4021 160.617 41.4363 162.335 41.0811C164.052 40.726 165.835 41.0035 167.378 41.8663C168.922 42.7291 170.131 44.124 170.8 45.8132C171.469 47.5025 171.557 49.3817 171.048 51.1307C170.539 52.8797 169.465 54.3904 168.009 55.4055C166.552 56.4205 164.804 56.8771 163.062 56.6975C161.319 56.5179 159.69 55.7133 158.452 54.4205C157.749 53.6855 157.191 52.813 156.811 51.8529C156.43 50.8928 156.235 49.8638 156.236 48.8248ZM169.124 48.8248C169.123 47.7274 168.811 46.6548 168.227 45.7427C167.642 44.8305 166.812 44.1198 165.84 43.7003C164.869 43.2808 163.8 43.1715 162.769 43.386C161.738 43.6005 160.792 44.1293 160.048 44.9056C159.305 45.6818 158.799 46.6706 158.595 47.747C158.39 48.8234 158.495 49.9391 158.898 50.9529C159.3 51.9667 159.981 52.8332 160.856 53.4428C161.73 54.0524 162.757 54.3778 163.808 54.3778C164.507 54.3776 165.198 54.2338 165.843 53.9546C166.488 53.6754 167.074 53.2663 167.568 52.7506C168.061 52.235 168.453 51.6229 168.72 50.9493C168.987 50.2757 169.124 49.5538 169.124 48.8248ZM144.876 44.0998V44.7884C144.914 50.7543 140.794 55.8229 135.253 56.6265C129.712 57.4302 124.472 53.7198 123.016 47.9597C121.56 42.1996 124.339 36.1812 129.507 33.9034C132.015 32.8076 134.822 32.7193 137.388 33.6553C139.954 34.5913 142.097 36.4856 143.406 38.9731L141.433 40.1592C140.442 38.254 138.831 36.7824 136.89 36.0112C134.949 35.24 132.808 35.2202 130.855 35.9554C128.894 36.7235 127.251 38.1828 126.211 40.0811C125.171 41.9794 124.798 44.1974 125.158 46.3518C125.468 48.5095 126.508 50.4799 128.089 51.9058C129.671 53.3317 131.69 54.1186 133.78 54.1239C135.87 54.1292 137.892 53.3525 139.48 51.9346C141.069 50.5167 142.118 48.5515 142.437 46.3954H133.794V44.0998H144.876ZM149.609 33.4969H151.976V56.7357H149.609V33.4969ZM118.844 33.4969V56.7357H114.074V47.3628H105.191V56.7357H100.385V33.4969H105.191V42.8313H114.074V33.4966L118.844 33.4969ZM98.4918 38.0285H93.0574V56.7357H88.3431V38.0285H82.8726V33.4969H98.4918V38.0285ZM73.0458 37.9899V42.8701H80.2409V47.3628H73.0458V52.243H81.4526V56.7357H68.2V33.4969H81.4526V37.9897L73.0458 37.9899Z" fill="white"/>
</svg>
