<svg width="592" height="324" viewBox="0 0 592 324" fill="none" xmlns="http://www.w3.org/2000/svg">
<path d="M160.476 135.984H154.411C149.463 135.984 144.834 138.698 141.482 143.805C138.131 148.593 136.375 155.137 136.375 162C136.375 169.183 138.29 175.727 141.802 180.675C145.153 185.463 149.622 188.017 154.251 188.017H160.316C164.785 187.697 168.935 184.984 171.968 180.196C175.319 175.248 177.075 168.864 177.075 162C177.075 155.457 175.319 148.913 172.127 144.124C169.254 139.336 164.945 136.623 160.476 135.984Z" fill="#875F27"/>
<path d="M171.016 162.157C171.016 155.294 169.101 149.548 166.228 144.919C164.153 141.887 161.759 139.493 158.886 138.375V137.099H153.938C144.681 137.099 137.02 148.271 137.02 161.997C137.02 169.18 139.094 175.564 142.287 180.193C145.319 184.343 149.469 187.056 153.938 187.056H158.886V185.939C166.068 182.587 171.016 173.33 171.016 162.157Z" fill="#F8B828"/>
<path d="M159.2 187.214H153.933C149.464 187.214 145.314 184.661 142.122 180.032C138.77 175.244 136.854 168.859 136.854 161.837C136.854 147.951 144.675 136.619 154.092 136.619H159.359V137.736C162.073 139.172 164.626 141.247 166.542 144.28C169.574 149.068 171.33 155.133 171.33 161.677C171.33 172.69 166.542 182.266 159.519 185.618L159.2 187.214ZM154.092 137.257C144.994 137.257 137.493 148.27 137.493 161.996C137.493 168.859 139.408 175.244 142.6 179.872C145.633 184.341 149.783 186.736 154.092 186.736H158.88V185.618H159.04C162.392 184.022 165.265 180.99 167.499 176.84C169.734 172.69 170.851 167.263 170.851 161.996C170.851 155.612 169.095 149.547 166.222 144.918C163.988 141.886 161.434 139.651 158.88 138.534H158.721V137.257H154.092Z" fill="#B28445"/>
<path d="M171.476 144.757C168.443 139.969 164.134 136.937 159.346 136.937C149.929 137.096 142.268 148.269 142.268 161.835C142.268 169.018 144.342 175.402 147.535 180.031C150.567 184.18 154.717 186.894 159.186 186.894C168.443 186.894 176.104 175.721 176.104 161.995C175.945 155.451 174.349 149.386 171.476 144.757ZM160.144 180.829C159.824 180.829 159.665 180.829 159.346 180.829C155.994 180.829 152.961 178.754 150.567 175.721C148.173 172.529 146.577 167.9 146.577 162.793C146.577 162.474 146.577 162.314 146.577 161.995C146.577 151.78 152.323 143.161 159.186 143.161C159.505 143.161 159.665 143.161 159.984 143.161C166.528 143.8 171.795 151.94 171.795 161.995C171.795 162.314 171.795 162.474 171.795 162.793C171.635 172.529 166.528 180.19 160.144 180.829Z" fill="#F6E245"/>
<path d="M159.193 187.213C154.724 187.213 150.574 184.66 147.382 180.031C144.03 175.243 142.115 168.858 142.115 161.836C142.115 147.95 149.776 136.618 159.193 136.618C163.981 136.618 168.29 139.331 171.483 144.438C174.515 149.227 176.271 155.292 176.271 161.836C176.111 175.881 168.45 187.213 159.193 187.213ZM159.193 137.256C150.095 137.256 142.594 148.269 142.594 161.995C142.594 168.858 144.509 175.243 147.701 179.871C150.734 184.34 154.883 186.735 159.193 186.735C168.29 186.735 175.792 175.722 175.792 161.995C175.792 155.611 174.036 149.546 171.163 144.917C167.971 139.969 163.821 137.256 159.193 137.256ZM159.193 181.148C155.841 181.148 152.649 179.233 150.255 175.881C147.701 172.529 146.265 167.741 146.265 162.793C146.265 162.474 146.265 162.315 146.265 161.995C146.265 151.461 152.01 142.842 159.352 142.842C159.672 142.842 159.831 142.842 160.15 142.842C167.014 143.481 172.281 151.78 172.281 161.995C172.281 162.315 172.281 162.474 172.281 162.793C171.961 172.529 166.854 180.51 160.15 180.989C159.672 181.148 159.512 181.148 159.193 181.148ZM159.193 143.481C152.33 143.481 146.743 151.78 146.743 162.155C146.743 162.474 146.743 162.634 146.743 162.953C146.903 167.901 148.339 172.529 150.734 175.562C153.128 178.754 156.16 180.669 159.193 180.669C159.512 180.669 159.672 180.669 159.991 180.669C166.375 180.031 171.323 172.37 171.642 162.953C171.642 162.634 171.642 162.474 171.642 162.155C171.642 152.419 166.535 144.279 159.991 143.481C159.672 143.481 159.193 143.481 159.193 143.481Z" fill="#B28445"/>
<path d="M160.148 143.328C159.829 143.328 159.67 143.328 159.35 143.328C159.191 143.328 158.872 143.328 158.712 143.328H158.872C165.415 143.966 170.682 152.106 170.682 162.161C170.682 162.481 170.682 162.64 170.682 162.959C170.363 172.695 165.256 180.357 158.872 180.835H158.712C158.872 180.835 159.191 180.835 159.35 180.835C159.67 180.835 159.829 180.835 160.148 180.835C166.533 180.197 171.8 172.376 171.959 162.959C171.959 162.64 171.959 162.481 171.959 162.161C171.959 152.106 166.692 143.966 160.148 143.328Z" fill="#F8B218"/>
<path d="M159.188 181.155C159.028 181.155 158.709 181.155 158.549 181.155V180.676H158.709C165.093 180.037 170.041 172.376 170.36 162.959C170.36 162.64 170.36 162.48 170.36 162.161C170.36 152.425 165.253 144.285 158.709 143.487H158.549V143.008C159.028 143.008 159.507 143.008 160.305 143.008C167.168 143.647 172.435 151.946 172.435 162.161C172.435 162.48 172.435 162.64 172.435 162.959C172.116 172.695 167.009 180.676 160.305 181.155C159.667 181.155 159.507 181.155 159.188 181.155ZM161.741 143.966C167.009 146.52 170.68 153.702 170.68 162.161C170.68 162.48 170.68 162.64 170.68 162.959C170.52 171.099 166.689 177.803 161.741 180.357C167.168 178.601 171.478 171.578 171.478 162.959C171.478 162.64 171.478 162.48 171.478 162.161C171.637 153.383 167.487 145.722 161.741 143.966Z" fill="#B28445"/>
<path d="M166.387 135.984H160.322C155.374 135.984 150.745 138.697 147.394 143.805C144.042 148.593 142.286 155.137 142.286 162C142.286 169.182 144.201 175.726 147.713 180.674C151.065 185.462 155.534 188.016 160.162 188.016H166.227C170.696 187.697 174.846 184.983 177.879 180.195C181.23 175.247 182.986 168.863 182.986 162C182.986 155.456 181.23 148.912 178.038 144.124C175.165 139.336 171.016 136.622 166.387 135.984Z" fill="#875F27"/>
<path d="M176.926 162.159C176.926 155.295 175.01 149.55 172.137 144.921C170.063 141.888 167.668 139.494 164.795 138.377V137.1H159.848C150.59 137.1 142.929 148.273 142.929 161.999C142.929 169.181 145.004 175.566 148.196 180.194C151.229 184.344 155.379 187.057 159.848 187.057H164.795V185.94C171.978 182.588 176.926 173.331 176.926 162.159Z" fill="#F8B828"/>
<path d="M165.439 187.214H160.172C155.703 187.214 151.553 184.661 148.361 180.032C145.01 175.244 143.094 168.7 143.094 161.837C143.094 147.951 150.755 136.619 160.172 136.619H165.439V137.736C168.153 139.172 170.706 141.247 172.622 144.28C175.654 149.068 177.41 155.133 177.41 161.677C177.41 167.104 176.293 172.371 174.058 176.68C171.824 180.83 168.951 184.022 165.599 185.618L165.439 187.214ZM160.172 137.257C151.075 137.257 143.573 148.27 143.573 161.996C143.573 168.859 145.488 175.244 148.681 179.872C151.713 184.341 155.863 186.736 160.172 186.736H164.961V185.618H165.12C168.472 184.022 171.345 180.99 173.579 176.84C175.814 172.69 176.931 167.263 176.931 161.996C176.931 155.612 175.175 149.547 172.302 144.918C170.068 141.886 167.514 139.651 164.961 138.534H164.801V137.257H160.172Z" fill="#B28445"/>
<path d="M177.261 144.757C174.228 139.969 169.919 136.937 165.13 136.937C155.873 136.937 148.212 148.109 148.212 161.835C148.212 169.018 150.287 175.402 153.479 180.031C156.512 184.18 160.661 186.894 165.13 186.894C174.388 186.894 182.049 175.721 182.049 161.995C182.208 155.451 180.133 149.386 177.261 144.757ZM166.088 180.829C165.769 180.829 165.609 180.829 165.29 180.829C161.938 180.829 158.906 178.754 156.512 175.721C154.117 172.529 152.521 167.9 152.521 162.793C152.521 162.474 152.521 162.314 152.521 161.995C152.521 151.78 158.267 143.161 165.13 143.161C165.45 143.161 165.609 143.161 165.928 143.161C172.472 143.8 177.739 151.94 177.739 161.995C177.739 162.314 177.739 162.474 177.739 162.793C177.739 172.529 172.472 180.19 166.088 180.829Z" fill="#F6E245"/>
<path d="M165.125 187.213C160.656 187.213 156.506 184.66 153.314 180.031C149.962 175.243 148.047 168.699 148.047 161.836C148.047 147.95 155.708 136.618 165.125 136.618C169.913 136.618 174.223 139.331 177.415 144.438C180.447 149.227 182.203 155.292 182.203 161.836C182.203 175.881 174.542 187.213 165.125 187.213ZM165.125 137.256C156.027 137.256 148.526 148.269 148.526 161.995C148.526 168.858 150.441 175.243 153.633 179.871C156.666 184.34 160.815 186.735 165.125 186.735C174.223 186.735 181.724 175.722 181.724 161.995C181.724 155.611 179.968 149.546 177.095 144.917C173.903 139.969 169.754 137.256 165.125 137.256ZM165.125 181.148C161.773 181.148 158.581 179.233 156.187 175.881C153.633 172.529 152.197 167.741 152.197 162.793C152.197 162.474 152.197 162.315 152.197 161.995C152.197 151.461 157.943 142.842 165.285 142.842C165.604 142.842 165.763 142.842 166.083 142.842C172.946 143.481 178.213 151.78 178.213 161.995C178.213 162.315 178.213 162.474 178.213 162.793C177.894 172.529 172.786 180.51 166.083 180.989C165.923 181.148 165.444 181.148 165.125 181.148ZM165.125 143.481C158.262 143.481 152.675 151.78 152.675 162.155C152.675 162.474 152.675 162.634 152.675 162.953C152.835 167.901 154.272 172.529 156.666 175.562C159.06 178.754 162.092 180.669 165.125 180.669C165.444 180.669 165.604 180.669 165.923 180.669C172.307 180.031 177.255 172.37 177.574 162.953C177.574 162.634 177.574 162.474 177.574 162.155C177.574 152.419 172.467 144.279 165.923 143.481C165.763 143.481 165.444 143.481 165.125 143.481Z" fill="#B28445"/>
<path d="M166.08 143.32C165.76 143.32 165.601 143.32 165.281 143.32C165.122 143.32 164.803 143.32 164.643 143.32H164.803C171.347 143.958 176.614 152.098 176.614 162.154C176.614 162.473 176.614 162.632 176.614 162.952C176.294 172.688 171.187 180.349 164.803 180.828H164.643C164.803 180.828 165.122 180.828 165.281 180.828C165.601 180.828 165.76 180.828 166.08 180.828C172.464 180.189 177.731 172.368 177.891 162.952C177.891 162.632 177.891 162.473 177.891 162.154C177.891 152.098 172.623 143.958 166.08 143.32Z" fill="#F8B218"/>
<path d="M165.123 181.147C164.964 181.147 164.644 181.147 164.485 181.147V180.668H164.644C170.869 180.03 175.977 172.369 176.136 162.952C176.136 162.633 176.136 162.473 176.136 162.154C176.136 152.418 171.029 144.278 164.485 143.48H164.325V143.001C164.804 143.001 165.283 143.001 166.081 143.001C172.944 143.639 178.211 151.939 178.211 162.154C178.211 162.473 178.211 162.633 178.211 162.952C177.892 172.688 172.784 180.668 166.081 181.147C165.921 181.147 165.442 181.147 165.123 181.147ZM167.677 143.959C172.944 146.512 176.615 153.695 176.615 162.154C176.615 162.473 176.615 162.633 176.615 162.952C176.455 171.092 172.625 177.795 167.677 180.349C173.104 178.594 177.413 171.571 177.413 162.952C177.413 162.633 177.413 162.473 177.413 162.154C177.732 153.375 173.423 145.714 167.677 143.959Z" fill="#B28445"/>
<path d="M171.964 135.984H165.898C160.951 135.984 156.322 138.697 152.97 143.805C149.618 148.753 147.863 155.137 147.863 162C147.863 169.182 149.778 175.726 153.289 180.674C156.641 185.462 161.11 188.016 165.739 188.016H171.804C176.273 187.697 180.423 184.983 183.455 180.195C186.807 175.247 188.563 168.863 188.563 162C188.563 155.456 186.807 148.912 183.615 144.124C180.902 139.336 176.592 136.622 171.964 135.984Z" fill="#875F27"/>
<path d="M182.665 162.156C182.665 155.293 180.75 149.547 177.877 144.918C175.802 141.886 173.408 139.492 170.535 138.375V137.098H165.587C156.33 137.098 148.668 148.27 148.668 161.996C148.668 169.179 150.743 175.563 153.936 180.192C156.968 184.342 161.118 187.055 165.587 187.055H170.694V185.938C177.717 182.586 182.665 173.329 182.665 162.156Z" fill="#F8B828"/>
<path d="M171.014 187.213H165.746C161.277 187.213 157.128 184.659 153.936 180.031C150.584 175.242 148.668 168.698 148.668 161.835C148.668 147.949 156.489 136.617 165.746 136.617H171.014V137.734C173.727 139.171 176.281 141.246 178.196 144.278C181.228 149.067 182.984 155.132 182.984 161.676C182.984 172.689 178.196 182.265 171.173 185.617L171.014 187.213ZM165.906 137.256C156.808 137.256 149.307 148.269 149.307 161.995C149.307 168.858 151.222 175.242 154.414 179.871C157.447 184.34 161.597 186.734 165.906 186.734H170.694V185.617H170.854C174.206 184.021 177.079 180.988 179.313 176.838C181.548 172.689 182.665 167.262 182.665 161.995C182.665 155.611 180.909 149.545 178.036 144.917C175.961 141.884 173.408 139.65 170.694 138.532H170.535V137.256H165.906Z" fill="#B28445"/>
<path d="M182.987 144.764C179.954 139.976 175.645 136.943 170.856 136.943C161.599 136.943 153.938 148.116 153.938 161.842C153.938 169.025 156.013 175.409 159.205 180.037C162.238 184.187 166.387 186.901 170.856 186.901C180.114 186.901 187.775 175.728 187.775 162.002C187.775 155.458 186.019 149.393 182.987 144.764ZM171.654 180.835C171.335 180.835 171.176 180.835 170.856 180.835C167.505 180.835 164.472 178.761 162.078 175.728C159.684 172.536 158.088 167.907 158.088 162.8C158.088 162.481 158.088 162.321 158.088 162.002C158.088 151.787 163.834 143.168 170.697 143.168C171.016 143.168 171.176 143.168 171.495 143.168C178.039 143.806 183.306 151.946 183.306 162.002C183.306 162.321 183.306 162.481 183.306 162.8C183.306 172.536 178.198 180.197 171.654 180.835Z" fill="#F6E245"/>
<path d="M171.016 187.216C166.547 187.216 162.397 184.662 159.205 180.033C155.853 175.245 153.938 168.701 153.938 161.838C153.938 148.112 161.44 136.78 171.016 136.78C175.804 136.78 180.114 139.493 183.306 144.601C186.338 149.389 188.094 155.454 188.094 161.998C187.934 175.884 180.433 187.216 171.016 187.216ZM171.016 137.259C161.918 137.259 154.417 148.272 154.417 161.998C154.417 168.861 156.332 175.245 159.524 179.874C162.557 184.343 166.707 186.737 171.016 186.737C180.114 186.737 187.615 175.724 187.615 161.998C187.615 155.613 185.86 149.548 182.987 144.92C179.635 139.972 175.325 137.259 171.016 137.259ZM171.016 181.151C167.664 181.151 164.472 179.235 162.078 175.884C159.524 172.532 158.088 167.744 158.088 162.796C158.088 162.477 158.088 162.317 158.088 161.998C158.088 151.464 163.834 142.845 171.176 142.845C171.495 142.845 171.654 142.845 171.974 142.845C178.837 143.483 184.104 151.783 184.104 161.998C184.104 162.317 184.104 162.477 184.104 162.796C183.785 172.532 178.677 180.512 171.974 180.991C171.495 181.151 171.016 181.151 171.016 181.151ZM171.016 143.483C164.153 143.483 158.567 151.783 158.567 162.157C158.567 162.477 158.567 162.636 158.567 162.955C158.726 167.903 160.163 172.532 162.557 175.564C164.951 178.757 167.983 180.672 171.016 180.672C171.335 180.672 171.495 180.672 171.814 180.672C178.198 180.033 183.146 172.372 183.465 162.955C183.465 162.636 183.465 162.477 183.465 162.157C183.465 152.421 178.358 144.281 171.814 143.483C171.495 143.483 171.016 143.483 171.016 143.483Z" fill="#B28445"/>
<path d="M171.659 143.317C171.339 143.317 171.18 143.317 170.861 143.317C170.701 143.317 170.382 143.317 170.222 143.317H170.382C176.926 143.956 182.193 152.096 182.193 162.151C182.193 162.47 182.193 162.63 182.193 162.949C181.874 172.685 176.766 180.346 170.382 180.825H170.222C170.382 180.825 170.701 180.825 170.861 180.825C171.18 180.825 171.339 180.825 171.659 180.825C178.043 180.187 183.31 172.366 183.47 162.949C183.47 162.63 183.47 162.47 183.47 162.151C183.629 152.096 178.362 143.956 171.659 143.317Z" fill="#F8B218"/>
<path d="M171.026 181.145C170.866 181.145 170.547 181.145 170.387 181.145V180.666H170.547C176.931 180.028 181.879 172.366 182.198 162.95C182.198 162.63 182.198 162.471 182.198 162.151C182.198 152.415 177.091 144.275 170.547 143.477H170.387V142.999C170.866 142.999 171.345 142.999 172.143 142.999C179.006 143.637 184.273 151.937 184.273 162.151C184.273 162.471 184.273 162.63 184.273 162.95C183.794 172.686 178.687 180.506 171.983 181.145C171.504 181.145 171.026 181.145 171.026 181.145ZM173.42 143.956C178.687 146.51 182.358 153.692 182.358 162.151C182.358 162.471 182.358 162.63 182.358 162.95C182.198 171.089 178.368 177.793 173.42 180.347C178.846 178.591 183.156 171.568 183.156 162.95C183.156 162.63 183.156 162.471 183.156 162.151C183.315 153.373 179.166 145.712 173.42 143.956Z" fill="#B28445"/>
<path d="M167.179 167.427V173.492H165.423V170.939L167.179 167.427Z" fill="#F6E245"/>
<path d="M169.261 163.428L170.059 164.864V165.024V173.483H168.303V165.183L169.261 163.428Z" fill="#F6E245"/>
<path d="M172.763 164.071V173.488H171.007V167.742L171.486 167.423L172.603 164.869L172.763 164.071Z" fill="#F6E245"/>
<path d="M175.803 158.33V173.492H174.047V161.841L175.803 158.33Z" fill="#F6E245"/>
<path d="M171.013 164.704H170.535L169.258 162.15H170.056L171.013 164.704Z" fill="#875F27"/>
<path d="M165.424 170.929H164.625V173.643H165.424V170.929Z" fill="#875F27"/>
<path d="M165.424 170.939H164.625L166.381 167.427H167.179L165.424 170.939Z" fill="#875F27"/>
<path d="M168.463 165.188H167.665V173.488H168.463V165.188Z" fill="#875F27"/>
<path d="M168.303 165.182H167.665L168.463 163.427H169.261L168.303 165.182Z" fill="#875F27"/>
<path d="M172.61 164.869H171.652L172.131 164.071H172.769L172.61 164.869Z" fill="#875F27"/>
<path d="M171.495 167.421H170.537L171.654 164.867H172.612L171.495 167.421Z" fill="#875F27"/>
<path d="M171.016 167.745H170.537V167.426H171.495L171.016 167.745Z" fill="#875F27"/>
<path d="M171.335 167.743H170.537V173.808H171.335V167.743Z" fill="#875F27"/>
<path d="M174.211 161.83H173.413V173.481H174.211V161.83Z" fill="#875F27"/>
<path d="M174.051 161.832H173.413L175.168 158.32H175.807L174.051 161.832Z" fill="#875F27"/>
<path d="M176.923 154.801H176.125L175.806 153.524H176.604L176.923 154.801Z" fill="#875F27"/>
<path d="M175.319 150.981H174.521L174.042 150.023H174.841L175.319 150.981Z" fill="#875F27"/>
<path d="M171.016 159.442H170.537L174.527 150.982H175.325L171.016 159.442Z" fill="#875F27"/>
<path d="M170.062 162.148H169.264L168.466 160.552H169.423L170.062 162.148Z" fill="#875F27"/>
<path d="M168.144 158.004H167.346L168.463 155.61H169.421L168.144 158.004Z" fill="#875F27"/>
<path d="M163.995 166.944H163.038L167.347 158.006H168.145L163.995 166.944Z" fill="#875F27"/>
<path d="M165.112 169.179H164.314L163.038 166.944H163.995L165.112 169.179Z" fill="#875F27"/>
<path d="M174.841 150.024H176.916V154.813L176.596 153.536L172.447 162.155L171.01 164.708L170.052 162.155L169.414 160.559L165.105 169.177L163.987 166.943L168.137 158.005L169.414 155.611L170.531 158.005L171.01 159.441L175.319 150.982L174.841 150.024Z" fill="#F6E245"/>
<path d="M196.671 163.633C196.671 160.643 197.339 157.972 198.674 155.62C200.039 153.239 201.882 151.396 204.205 150.089C206.557 148.754 209.184 148.086 212.088 148.086C215.485 148.086 218.461 148.957 221.016 150.699C223.571 152.441 225.356 154.851 226.372 157.928H219.361C218.664 156.477 217.677 155.388 216.399 154.662C215.151 153.936 213.699 153.573 212.044 153.573C210.273 153.573 208.691 153.994 207.297 154.836C205.933 155.649 204.858 156.81 204.075 158.32C203.32 159.83 202.942 161.601 202.942 163.633C202.942 165.637 203.32 167.408 204.075 168.947C204.858 170.456 205.933 171.632 207.297 172.474C208.691 173.287 210.273 173.694 212.044 173.694C213.699 173.694 215.151 173.331 216.399 172.605C217.677 171.85 218.664 170.747 219.361 169.295H226.372C225.356 172.402 223.571 174.826 221.016 176.568C218.49 178.281 215.514 179.138 212.088 179.138C209.184 179.138 206.557 178.484 204.205 177.178C201.882 175.842 200.039 173.999 198.674 171.647C197.339 169.295 196.671 166.624 196.671 163.633Z" fill="#0B0B0B"/>
<path d="M242.294 179.268C239.971 179.268 237.881 178.76 236.022 177.744C234.164 176.699 232.698 175.232 231.624 173.345C230.579 171.458 230.056 169.281 230.056 166.813C230.056 164.345 230.593 162.167 231.667 160.28C232.771 158.393 234.266 156.941 236.153 155.925C238.04 154.88 240.145 154.357 242.468 154.357C244.791 154.357 246.896 154.88 248.783 155.925C250.67 156.941 252.151 158.393 253.225 160.28C254.328 162.167 254.88 164.345 254.88 166.813C254.88 169.281 254.314 171.458 253.181 173.345C252.078 175.232 250.568 176.699 248.652 177.744C246.765 178.76 244.645 179.268 242.294 179.268ZM242.294 173.955C243.397 173.955 244.428 173.694 245.386 173.171C246.373 172.619 247.157 171.806 247.738 170.732C248.318 169.658 248.609 168.351 248.609 166.813C248.609 164.519 247.999 162.762 246.779 161.543C245.589 160.295 244.123 159.67 242.381 159.67C240.639 159.67 239.173 160.295 237.982 161.543C236.821 162.762 236.24 164.519 236.24 166.813C236.24 169.106 236.806 170.877 237.939 172.126C239.1 173.345 240.552 173.955 242.294 173.955Z" fill="#0B0B0B"/>
<path d="M262.444 151.875C261.37 151.875 260.47 151.541 259.744 150.873C259.047 150.176 258.699 149.32 258.699 148.304C258.699 147.287 259.047 146.445 259.744 145.778C260.47 145.081 261.37 144.732 262.444 144.732C263.519 144.732 264.404 145.081 265.101 145.778C265.827 146.445 266.19 147.287 266.19 148.304C266.19 149.32 265.827 150.176 265.101 150.873C264.404 151.541 263.519 151.875 262.444 151.875ZM265.449 154.749V178.876H259.352V154.749H265.449Z" fill="#0B0B0B"/>
<path d="M284.843 154.401C287.718 154.401 290.041 155.315 291.812 157.144C293.583 158.944 294.468 161.47 294.468 164.722V178.876H288.371V165.55C288.371 163.633 287.892 162.167 286.934 161.151C285.976 160.106 284.669 159.583 283.014 159.583C281.33 159.583 279.995 160.106 279.008 161.151C278.05 162.167 277.57 163.633 277.57 165.55V178.876H271.473V154.749H277.57V157.754C278.383 156.709 279.414 155.896 280.663 155.315C281.94 154.706 283.334 154.401 284.843 154.401Z" fill="#0B0B0B"/>
<path d="M310.326 173.258L316.424 154.749H322.913L313.985 178.876H306.581L297.697 154.749H304.229L310.326 173.258Z" fill="#0B0B0B"/>
<path d="M348.766 166.29C348.766 167.161 348.708 167.945 348.592 168.642H330.953C331.099 170.384 331.708 171.748 332.783 172.736C333.857 173.723 335.178 174.216 336.746 174.216C339.01 174.216 340.622 173.244 341.58 171.298H348.156C347.459 173.621 346.124 175.537 344.149 177.047C342.175 178.528 339.751 179.268 336.876 179.268C334.554 179.268 332.463 178.76 330.605 177.744C328.776 176.699 327.339 175.232 326.294 173.345C325.277 171.458 324.769 169.281 324.769 166.813C324.769 164.316 325.277 162.124 326.294 160.236C327.31 158.349 328.732 156.898 330.562 155.881C332.391 154.865 334.496 154.357 336.876 154.357C339.17 154.357 341.217 154.851 343.017 155.838C344.846 156.825 346.254 158.233 347.241 160.062C348.258 161.862 348.766 163.938 348.766 166.29ZM342.451 164.548C342.422 162.98 341.856 161.732 340.752 160.803C339.649 159.845 338.299 159.365 336.702 159.365C335.192 159.365 333.915 159.83 332.87 160.759C331.854 161.659 331.229 162.922 330.997 164.548H342.451Z" fill="#0B0B0B"/>
<path d="M362.449 179.268C360.475 179.268 358.703 178.92 357.136 178.223C355.568 177.497 354.319 176.524 353.39 175.305C352.49 174.086 351.997 172.736 351.91 171.255H358.05C358.166 172.184 358.616 172.953 359.4 173.563C360.213 174.173 361.215 174.478 362.405 174.478C363.567 174.478 364.467 174.245 365.105 173.781C365.773 173.316 366.107 172.721 366.107 171.995C366.107 171.211 365.701 170.631 364.888 170.253C364.104 169.847 362.841 169.411 361.099 168.947C359.299 168.511 357.818 168.061 356.657 167.597C355.524 167.132 354.537 166.421 353.695 165.463C352.882 164.504 352.476 163.212 352.476 161.587C352.476 160.251 352.853 159.032 353.608 157.928C354.392 156.825 355.495 155.954 356.918 155.315C358.37 154.677 360.068 154.357 362.013 154.357C364.888 154.357 367.181 155.083 368.894 156.535C370.607 157.957 371.551 159.888 371.725 162.327H365.889C365.802 161.369 365.396 160.614 364.67 160.062C363.973 159.482 363.029 159.191 361.839 159.191C360.736 159.191 359.879 159.395 359.27 159.801C358.689 160.207 358.399 160.774 358.399 161.499C358.399 162.312 358.805 162.937 359.618 163.372C360.431 163.779 361.694 164.2 363.407 164.635C365.149 165.071 366.586 165.521 367.718 165.985C368.851 166.45 369.823 167.176 370.636 168.163C371.478 169.121 371.914 170.398 371.943 171.995C371.943 173.389 371.551 174.637 370.767 175.741C370.012 176.844 368.909 177.715 367.457 178.354C366.034 178.963 364.365 179.268 362.449 179.268Z" fill="#0B0B0B"/>
<path d="M384.047 159.757V171.429C384.047 172.242 384.235 172.837 384.613 173.215C385.019 173.563 385.687 173.737 386.616 173.737H389.447V178.876H385.614C380.475 178.876 377.906 176.379 377.906 171.385V159.757H375.032V154.749H377.906V148.783H384.047V154.749H389.447V159.757H384.047Z" fill="#0B0B0B"/>
<path d="M392.264 166.726C392.264 164.287 392.743 162.124 393.702 160.236C394.689 158.349 396.01 156.898 397.665 155.881C399.349 154.865 401.221 154.357 403.283 154.357C405.083 154.357 406.651 154.72 407.986 155.446C409.351 156.172 410.44 157.086 411.253 158.19V154.749H417.393V178.876H411.253V175.349C410.469 176.481 409.38 177.425 407.986 178.179C406.622 178.905 405.039 179.268 403.239 179.268C401.207 179.268 399.349 178.746 397.665 177.7C396.01 176.655 394.689 175.189 393.702 173.302C392.743 171.385 392.264 169.193 392.264 166.726ZM411.253 166.813C411.253 165.332 410.962 164.069 410.382 163.024C409.801 161.949 409.017 161.137 408.03 160.585C407.043 160.004 405.983 159.714 404.851 159.714C403.718 159.714 402.673 159.99 401.715 160.541C400.757 161.093 399.973 161.906 399.363 162.98C398.782 164.025 398.492 165.274 398.492 166.726C398.492 168.177 398.782 169.455 399.363 170.558C399.973 171.632 400.757 172.46 401.715 173.04C402.702 173.621 403.747 173.911 404.851 173.911C405.983 173.911 407.043 173.636 408.03 173.084C409.017 172.503 409.801 171.69 410.382 170.645C410.962 169.571 411.253 168.293 411.253 166.813Z" fill="#0B0B0B"/>
<path d="M432.581 179.268C430.607 179.268 428.835 178.92 427.268 178.223C425.7 177.497 424.451 176.524 423.522 175.305C422.622 174.086 422.129 172.736 422.042 171.255H428.182C428.298 172.184 428.748 172.953 429.532 173.563C430.345 174.173 431.347 174.478 432.537 174.478C433.699 174.478 434.599 174.245 435.237 173.781C435.905 173.316 436.239 172.721 436.239 171.995C436.239 171.211 435.833 170.631 435.02 170.253C434.236 169.847 432.973 169.411 431.231 168.947C429.431 168.511 427.95 168.061 426.789 167.597C425.656 167.132 424.669 166.421 423.827 165.463C423.014 164.504 422.608 163.212 422.608 161.587C422.608 160.251 422.985 159.032 423.74 157.928C424.524 156.825 425.627 155.954 427.05 155.315C428.502 154.677 430.2 154.357 432.145 154.357C435.02 154.357 437.313 155.083 439.026 156.535C440.739 157.957 441.683 159.888 441.857 162.327H436.021C435.934 161.369 435.528 160.614 434.802 160.062C434.105 159.482 433.161 159.191 431.971 159.191C430.868 159.191 430.011 159.395 429.402 159.801C428.821 160.207 428.531 160.774 428.531 161.499C428.531 162.312 428.937 162.937 429.75 163.372C430.563 163.779 431.826 164.2 433.539 164.635C435.281 165.071 436.718 165.521 437.85 165.985C438.983 166.45 439.955 167.176 440.768 168.163C441.61 169.121 442.046 170.398 442.075 171.995C442.075 173.389 441.683 174.637 440.899 175.741C440.144 176.844 439.041 177.715 437.589 178.354C436.166 178.963 434.497 179.268 432.581 179.268Z" fill="#0B0B0B"/>
<path d="M450.172 151.875C449.098 151.875 448.198 151.541 447.472 150.873C446.775 150.176 446.427 149.32 446.427 148.304C446.427 147.287 446.775 146.445 447.472 145.778C448.198 145.081 449.098 144.732 450.172 144.732C451.246 144.732 452.132 145.081 452.828 145.778C453.554 146.445 453.917 147.287 453.917 148.304C453.917 149.32 453.554 150.176 452.828 150.873C452.132 151.541 451.246 151.875 450.172 151.875ZM453.177 154.749V178.876H447.08V154.749H453.177Z" fill="#0B0B0B"/>
</svg>
