<svg width="592" height="324" viewBox="0 0 592 324" fill="none" xmlns="http://www.w3.org/2000/svg">
<g clip-path="url(#clip0_432_123)">
<mask id="mask0_432_123" style="mask-type:luminance" maskUnits="userSpaceOnUse" x="144" y="130" width="304" height="64">
<path d="M447.385 130.671H144.635V193.323H447.385V130.671Z" fill="white"/>
</mask>
<g mask="url(#mask0_432_123)">
<path fill-rule="evenodd" clip-rule="evenodd" d="M200.882 131.052C200.498 130.961 200.121 130.846 199.752 130.706H197.575C195.445 131.247 193.767 132.54 192.056 133.859L191.874 133.999C190.538 135.08 188.87 135.668 187.151 135.663C185.432 135.658 183.767 135.061 182.437 133.971C180.838 132.496 178.939 131.382 176.872 130.704H174.721C172.436 131.239 170.663 132.603 168.86 133.999C167.507 135.088 165.818 135.673 164.081 135.653C162.345 135.634 160.669 135.011 159.342 133.891C157.749 132.411 155.834 131.32 153.749 130.704H151.598C151.087 130.891 150.549 131.078 150.012 131.266C148.797 131.698 147.704 132.419 146.829 133.366C145.953 134.313 145.32 135.459 144.984 136.705C144.876 137.026 144.743 137.347 144.635 137.666V139.809C145.225 141.942 146.366 143.883 147.942 145.436C149.113 146.752 149.764 148.448 149.774 150.209C149.784 151.97 149.152 153.674 147.996 155.002C146.45 156.594 145.306 158.532 144.662 160.655V162.798C145.302 164.923 146.446 166.862 147.996 168.451C149.131 169.763 149.758 171.439 149.763 173.174C149.768 174.91 149.15 176.589 148.022 177.908C146.441 179.529 145.287 181.516 144.662 183.692V185.84C144.876 186.349 145.065 186.885 145.253 187.42C145.683 188.636 146.402 189.73 147.348 190.607C148.294 191.484 149.439 192.118 150.684 192.456C151.005 192.563 151.327 192.696 151.648 192.801H153.807C155.937 192.164 157.882 191.025 159.48 189.479C160.813 188.323 162.52 187.689 164.284 187.694C166.048 187.699 167.751 188.343 169.078 189.506C170.687 191.044 172.641 192.174 174.776 192.801H176.923C177.143 192.728 177.364 192.643 177.588 192.558C177.854 192.456 178.124 192.353 178.402 192.265C180.176 191.664 181.683 190.458 182.659 188.86C183.636 187.261 184.02 185.37 183.744 183.517C183.469 181.664 182.552 179.966 181.153 178.721C179.754 177.475 177.962 176.76 176.089 176.7C174.99 176.649 173.891 176.822 172.86 177.209C171.829 177.596 170.888 178.189 170.094 178.951C167.808 181.067 165.173 182.059 162.082 181.174C160.715 180.809 159.465 180.096 158.456 179.104C157.447 178.112 156.713 176.875 156.325 175.514C155.938 174.154 155.91 172.715 156.245 171.341C156.58 169.966 157.266 168.701 158.237 167.671C159.16 166.759 159.863 165.647 160.291 164.421C160.72 163.196 160.863 161.888 160.71 160.599C160.482 158.553 159.274 157.059 158.055 155.543L157.833 155.269C153.37 149.723 157.565 143.294 162.377 142.114C165.335 141.391 167.808 142.302 169.96 144.392C173.24 147.552 178.186 147.794 181.199 144.633C181.962 143.784 182.896 143.106 183.94 142.643C184.983 142.179 186.112 141.941 187.254 141.944C188.395 141.946 189.524 142.189 190.565 142.657C191.606 143.125 192.537 143.807 193.297 144.659C194.46 145.802 195.954 146.55 197.565 146.795C199.177 147.04 200.826 146.771 202.276 146.026C203.735 145.303 204.942 144.155 205.736 142.733C206.529 141.311 206.874 139.682 206.723 138.06C206.572 136.438 205.933 134.9 204.89 133.649C203.847 132.398 202.45 131.492 200.882 131.052ZM198.785 182.168C198.412 182.147 198.038 182.202 197.688 182.33C197.337 182.457 197.015 182.655 196.743 182.91C196.47 183.165 196.252 183.473 196.102 183.815C195.952 184.157 195.873 184.526 195.869 184.899C195.865 185.273 195.937 185.643 196.081 185.988C196.224 186.332 196.436 186.645 196.704 186.905C196.971 187.166 197.289 187.369 197.637 187.504C197.986 187.638 198.358 187.7 198.731 187.687C199.104 187.708 199.477 187.652 199.828 187.525C200.179 187.397 200.5 187.2 200.773 186.945C201.045 186.689 201.263 186.381 201.414 186.039C201.564 185.697 201.643 185.329 201.647 184.955C201.65 184.582 201.578 184.212 201.435 183.867C201.291 183.522 201.079 183.21 200.812 182.949C200.544 182.689 200.227 182.485 199.878 182.351C199.53 182.216 199.158 182.154 198.785 182.168ZM195.988 162.37C195.98 162.002 196.048 161.637 196.188 161.297C196.329 160.957 196.538 160.65 196.804 160.395C197.07 160.141 197.385 159.944 197.731 159.818C198.076 159.693 198.444 159.64 198.811 159.664C199.531 159.676 200.217 159.968 200.725 160.478C201.232 160.989 201.52 161.677 201.528 162.396C201.508 163.138 201.204 163.843 200.678 164.366C200.152 164.889 199.446 165.19 198.704 165.207C197.968 165.188 197.269 164.879 196.76 164.347C196.251 163.815 195.973 163.103 195.988 162.366M175.715 165.371C176.081 165.381 176.445 165.316 176.785 165.181C177.125 165.046 177.434 164.843 177.693 164.585C177.952 164.326 178.156 164.018 178.292 163.678C178.428 163.338 178.493 162.974 178.484 162.608C178.501 162.24 178.441 161.873 178.308 161.531C178.174 161.188 177.971 160.877 177.71 160.617C177.449 160.358 177.137 160.156 176.793 160.024C176.449 159.893 176.082 159.835 175.715 159.854C174.998 159.861 174.312 160.142 173.797 160.64C173.281 161.138 172.977 161.815 172.945 162.53C172.942 163.272 173.231 163.986 173.749 164.517C174.267 165.049 174.973 165.355 175.715 165.371Z" fill="#F8BF1E"/>
<path d="M235.511 169.046C240.765 169.046 244.563 167.612 247.425 164.902C250.034 162.449 251.63 159.107 251.899 155.536H242.69C242.274 159.068 239.569 161.628 235.458 161.628C229.944 161.628 226.51 156.764 226.51 150.059C226.51 143.404 229.372 138.439 235.407 138.439C239.361 138.439 241.962 140.947 242.43 144.223H251.639C251.461 142.248 250.874 140.331 249.916 138.595C248.957 136.859 247.648 135.341 246.071 134.138C242.978 131.939 239.253 130.805 235.459 130.908C224.377 130.908 217.146 139.15 217.146 150.054C217.146 161.009 224.585 169.046 235.511 169.046ZM268.18 163.107C264.485 163.107 262.56 159.934 262.56 155.173C262.56 150.413 264.485 147.187 268.18 147.187C271.874 147.187 273.851 150.412 273.851 155.173C273.851 159.935 271.873 163.107 268.18 163.107ZM268.231 169.046C276.815 169.046 282.435 163.056 282.435 155.173C282.435 147.29 276.813 141.3 268.231 141.3C259.699 141.3 253.976 147.289 253.976 155.173C253.976 163.057 259.699 169.046 268.231 169.046ZM337.179 160.599V139.201H342.694C348.468 139.201 351.746 143.501 351.746 150.157C351.746 156.862 348.624 160.603 342.589 160.603L337.179 160.599ZM328.737 168.227H344.033C348.715 168.227 352.461 167.049 355.375 164.9C359.536 161.777 361.826 156.607 361.826 150.157C361.826 138.945 354.906 131.624 344.605 131.624H328.737V168.227ZM377.907 168.994C380.865 169.076 383.774 168.234 386.231 166.587C388.436 165.145 390.03 162.939 390.705 160.393H382.434C382.059 161.234 381.432 161.937 380.639 162.404C379.847 162.872 378.928 163.082 378.012 163.004C374.525 163.004 372.548 160.802 372.028 157.27H391.174C391.226 151.946 389.666 147.39 386.491 144.523C383.98 142.322 380.729 141.152 377.391 141.249C369.276 141.249 363.708 147.239 363.708 155.071C363.708 163.006 369.119 168.994 377.911 168.994M371.316 152.306C371.889 149.184 373.554 147.187 376.78 147.187C379.537 147.187 381.514 149.184 381.826 152.306H371.316ZM405.359 169.046C412.331 169.046 417.481 166.077 417.481 160.343C417.481 153.638 411.966 152.46 407.284 151.692C403.902 151.078 400.885 150.821 400.885 148.979C400.885 147.339 402.497 146.573 404.579 146.573C406.92 146.573 408.533 147.289 408.845 149.645H416.649C416.233 144.474 412.175 141.249 404.631 141.249C398.335 141.249 393.133 144.116 393.133 149.645C393.133 155.787 398.075 157.016 402.706 157.784C406.246 158.398 409.469 158.654 409.469 161.009C409.469 162.698 407.856 163.619 405.307 163.619C402.497 163.619 400.732 162.34 400.417 159.729H392.404C392.663 165.513 397.555 169.046 405.359 169.046ZM420.229 168.227H428.604V160.19L431.154 157.528L437.555 168.227H447.387L436.93 151.845L446.295 142.017H436.514L428.605 150.874V131.622H420.231L420.229 168.227Z" fill="#131010"/>
<path d="M307.791 168.227H299.311V142.017H307.479V145.6H307.636C308.509 144.222 309.726 143.096 311.168 142.333C312.609 141.57 314.225 141.196 315.855 141.249C321.682 141.249 325.116 145.345 325.116 151.177V168.227H316.636V152.869C316.636 150.107 315.231 148.207 312.474 148.207C309.664 148.207 307.791 150.512 307.791 153.733V168.227Z" fill="#131010"/>
<path d="M283.105 147.876L283.114 142.031H295.385V168.23H287.315V147.876H283.105Z" fill="#131010"/>
<path d="M290.751 130.672C291.97 130.662 293.143 131.137 294.012 131.992C294.881 132.847 295.375 134.012 295.385 135.231C295.362 136.444 294.863 137.6 293.996 138.45C293.13 139.3 291.964 139.777 290.751 139.777C289.537 139.777 288.371 139.3 287.505 138.45C286.638 137.6 286.14 136.444 286.116 135.231C286.126 134.012 286.62 132.847 287.489 131.992C288.359 131.137 289.532 130.662 290.751 130.672Z" fill="#131010"/>
</g>
<path d="M219.398 179.645H217.616V193.093H219.398V179.645Z" fill="#131010"/>
<path d="M247.396 179.645V190.204L240.327 179.645H238.5V193.091H240.207V182.525L247.277 193.091H249.104V179.645H247.396Z" fill="#131010"/>
<mask id="mask1_432_123" style="mask-type:luminance" maskUnits="userSpaceOnUse" x="144" y="130" width="304" height="64">
<path d="M447.385 130.671H144.635V193.323H447.385V130.671Z" fill="white"/>
</mask>
<g mask="url(#mask1_432_123)">
<path d="M268.085 193.089V179.643H272.721C273.524 179.621 274.328 179.686 275.118 179.835C275.844 179.991 276.521 180.322 277.091 180.799C277.812 181.414 278.361 182.206 278.684 183.097C279.051 184.121 279.23 185.203 279.212 186.291C279.226 187.209 279.105 188.124 278.854 189.007C278.658 189.706 278.348 190.368 277.936 190.966C277.604 191.443 277.189 191.856 276.71 192.186C276.219 192.503 275.675 192.731 275.104 192.86C274.396 193.022 273.671 193.099 272.945 193.09L268.085 193.089ZM269.866 191.501H272.739C273.444 191.525 274.149 191.441 274.828 191.254C275.281 191.12 275.695 190.881 276.037 190.557C276.495 190.075 276.833 189.492 277.024 188.855C277.278 188.016 277.397 187.142 277.378 186.265C277.443 185.142 277.205 184.022 276.687 183.023C276.309 182.342 275.714 181.808 274.997 181.505C274.249 181.285 273.471 181.192 272.693 181.229H269.865L269.866 191.501Z" fill="#131010"/>
<path d="M297.098 186.543C296.986 184.626 297.633 182.743 298.898 181.3C299.494 180.673 300.217 180.181 301.018 179.854C301.819 179.528 302.68 179.374 303.544 179.405C304.724 179.388 305.886 179.696 306.903 180.295C307.892 180.878 308.686 181.742 309.185 182.776C309.723 183.902 309.992 185.138 309.971 186.386C309.992 187.655 309.709 188.911 309.144 190.047C308.632 191.082 307.815 191.936 306.803 192.492C305.802 193.043 304.677 193.329 303.535 193.322C302.339 193.342 301.161 193.024 300.137 192.406C299.154 191.809 298.366 190.939 297.869 189.902C297.358 188.857 297.095 187.708 297.098 186.544M298.935 186.572C298.857 187.97 299.326 189.344 300.244 190.403C300.671 190.846 301.183 191.199 301.75 191.439C302.317 191.679 302.927 191.802 303.542 191.801C304.158 191.8 304.767 191.674 305.333 191.431C305.899 191.189 306.41 190.834 306.835 190.389C307.764 189.267 308.228 187.833 308.134 186.379C308.156 185.395 307.967 184.417 307.578 183.511C307.239 182.73 306.673 182.069 305.954 181.612C305.235 181.161 304.401 180.927 303.553 180.938C302.952 180.928 302.354 181.038 301.796 181.26C301.237 181.482 300.728 181.813 300.298 182.233C299.39 183.096 298.935 184.541 298.935 186.568" fill="#131010"/>
<path d="M328.235 193.091V179.645H330.062L337.131 190.205V179.645H338.838V193.091H337.011L329.943 182.522V193.091H328.235Z" fill="#131010"/>
<path d="M357.85 193.091V179.645H367.582V181.231H359.631V185.351H367.077V186.929H359.631V191.505H367.893V193.091H357.85Z" fill="#131010"/>
<path d="M385.728 188.774L387.408 188.627C387.459 189.215 387.649 189.783 387.963 190.283C388.305 190.754 388.775 191.117 389.318 191.328C389.971 191.603 390.675 191.739 391.384 191.727C391.997 191.739 392.607 191.636 393.183 191.425C393.642 191.267 394.046 190.978 394.344 190.594C394.592 190.261 394.725 189.857 394.725 189.443C394.732 189.043 394.603 188.653 394.358 188.338C394.034 187.969 393.616 187.695 393.149 187.543C392.362 187.283 391.562 187.065 390.753 186.888C389.858 186.706 388.987 186.424 388.155 186.049C387.573 185.766 387.078 185.334 386.718 184.796C386.402 184.295 386.238 183.714 386.245 183.122C386.245 182.444 386.446 181.781 386.824 181.218C387.236 180.607 387.825 180.138 388.513 179.873C389.298 179.56 390.138 179.404 390.983 179.416C391.886 179.398 392.784 179.562 393.622 179.897C394.338 180.18 394.951 180.675 395.38 181.314C395.792 181.946 396.021 182.68 396.041 183.434L394.334 183.562C394.315 183.195 394.223 182.836 394.063 182.505C393.903 182.174 393.678 181.878 393.402 181.635C392.718 181.155 391.89 180.925 391.057 180.985C390.228 180.916 389.4 181.124 388.701 181.576C388.475 181.739 388.29 181.953 388.161 182.201C388.033 182.448 387.965 182.723 387.962 183.002C387.955 183.227 387.999 183.451 388.088 183.658C388.178 183.865 388.313 184.049 388.482 184.198C389.303 184.696 390.217 185.022 391.168 185.157C392.184 185.355 393.181 185.642 394.147 186.014C394.841 186.303 395.441 186.778 395.882 187.386C396.258 187.952 396.454 188.619 396.442 189.298C396.44 190.019 396.226 190.723 395.826 191.322C395.393 191.975 394.779 192.488 394.059 192.798C393.244 193.16 392.361 193.34 391.469 193.327C390.423 193.358 389.381 193.177 388.407 192.794C387.616 192.466 386.941 191.909 386.47 191.193C385.999 190.474 385.743 189.636 385.731 188.776" fill="#131010"/>
<path d="M416.939 179.645H415.157V193.094H416.939V179.645Z" fill="#131010"/>
<path d="M434.584 193.088L439.753 179.639H441.672L447.18 193.088H445.151L443.581 189.015H437.954L436.475 193.088H434.584ZM438.469 187.563H443.031L441.627 183.839C441.198 182.707 440.88 181.777 440.671 181.049C440.497 181.923 440.255 182.782 439.946 183.618L438.469 187.563Z" fill="#131010"/>
</g>
</g>
<defs>
<clipPath id="clip0_432_123">
<rect width="302.75" height="62.6519" fill="white" transform="translate(144.625 130.674)"/>
</clipPath>
</defs>
</svg>
