<svg width="107" height="49" viewBox="0 0 107 49" fill="none" xmlns="http://www.w3.org/2000/svg">
<g clip-path="url(#clip0_80_5)">
<path d="M65.2511 47.7036C63.8586 47.7036 62.6153 47.4569 61.5196 46.9665C60.424 46.4746 59.5607 45.7231 58.9297 44.7106C58.2987 43.6996 57.9832 42.4132 57.9832 40.8544V40.3252H59.7657V40.8544C59.7657 42.6556 60.2806 43.9864 61.3102 44.8497C62.3399 45.7131 63.6535 46.1447 65.2497 46.1447C66.8458 46.1447 68.1078 45.769 68.9812 45.0175C69.8531 44.2661 70.2891 43.3052 70.2891 42.1364C70.2891 41.3563 70.0983 40.731 69.7183 40.2578C69.3383 39.7845 68.8091 39.4045 68.1308 39.1162C67.4525 38.828 66.6694 38.5727 65.7774 38.3504L63.9949 37.9044C62.9365 37.6262 61.99 37.2777 61.1554 36.8604C60.3207 36.4431 59.661 35.8953 59.1792 35.2184C58.6959 34.5415 58.455 33.6739 58.455 32.6155C58.455 31.5572 58.7289 30.6393 59.2767 29.8592C59.8245 29.079 60.5803 28.481 61.5454 28.0637C62.5106 27.6464 63.6335 27.437 64.9141 27.437C66.1948 27.437 67.3506 27.6593 68.3803 28.1053C69.41 28.5513 70.2274 29.2052 70.8297 30.0686C71.4321 30.9319 71.7346 32.0132 71.7346 33.3125V34.6204H69.9521V33.3125C69.9521 32.2914 69.7298 31.4654 69.2838 30.8344C68.8378 30.2034 68.2355 29.7387 67.474 29.4419C66.7125 29.145 65.8592 28.9959 64.9127 28.9959C63.5575 28.9959 62.4389 29.3071 61.5583 29.928C60.6764 30.5504 60.2361 31.4453 60.2361 32.6141C60.2361 33.3942 60.4168 34.0152 60.7796 34.4798C61.141 34.9445 61.6516 35.3145 62.3112 35.5941C62.9695 35.8723 63.7453 36.1233 64.6359 36.3456L66.4185 36.7916C67.4395 37.0325 68.376 37.3537 69.2307 37.7524C70.084 38.1511 70.7709 38.6989 71.2915 39.3945C71.8107 40.09 72.0717 41.0049 72.0717 42.1364C72.0717 43.2679 71.7891 44.2532 71.2227 45.0878C70.6562 45.9224 69.8632 46.5678 68.8421 47.0224C67.821 47.477 66.6235 47.705 65.2511 47.705V47.7036Z" fill="white"/>
<path d="M76.0254 47.3135V27.8242H87.8021V29.439H77.8065V36.7342H87.022V38.349H77.8065V45.6987H87.9125V47.3135H76.0239H76.0254Z" fill="white"/>
<path d="M90.197 47.3135L96.573 27.8242H99.7466L106.123 47.3135H104.257L102.586 42.135H93.732L92.0613 47.3135H90.1956H90.197ZM94.234 40.5202H102.086L98.3269 28.8826H97.9927L94.234 40.5202Z" fill="white"/>
<path d="M19.0133 14.0196L14.6077 2.08081C11.4097 3.49482 8.57164 5.57139 6.26562 8.13841L16.8478 17.7282L19.0133 14.0196Z" fill="white"/>
<path d="M12.2658 32.0419C9.68871 27.2062 6.67856 24.239 4.52169 22.5611C4.09003 22.2256 3.67414 21.9273 3.28407 21.6634C1.94176 20.7585 0.110425 21.6706 0.0301159 23.2882C0.0100386 23.6898 0 24.0927 0 24.4986C0 26.426 0.223718 28.3004 0.643907 30.0987L11.2806 32.2384L12.2658 32.0405V32.0419Z" fill="white"/>
<path d="M20.7729 36.8374L18.4353 32.8362L11.2792 34.2761L1.25488 32.2583C1.83569 33.9964 2.60436 35.6499 3.53796 37.1901L11.2792 38.7476L20.7729 36.8374Z" fill="white"/>
<path d="M24.5001 4.62351L28.6847 11.7882L32.5367 1.34948C30.0184 0.476118 27.3152 0 24.5001 0C21.6849 0 18.9817 0.476118 16.4648 1.34948L20.3168 11.7882L24.5015 4.62351H24.5001Z" fill="white"/>
<path d="M14.3037 31.6317L17.3726 31.0136L13.7415 24.7954L24.5001 29.482L35.2586 24.7954L31.6275 31.0136L34.8284 31.6575C38.7937 23.8991 43.8789 20.3282 46.6095 18.8726C47.5316 18.3807 47.946 17.2922 47.5961 16.307C46.7428 13.902 45.5253 11.6692 44.008 9.67578L33.1821 19.4864L35.2601 23.0444L24.5015 27.731L13.743 23.0444L15.821 19.4864L4.99357 9.67722C3.49065 11.652 2.28027 13.8633 1.42842 16.2439C1.07564 17.2277 1.49009 18.3262 2.41651 18.8109C5.11117 20.2221 10.2811 23.7772 14.3037 31.6331V31.6317Z" fill="white"/>
<path d="M32.1537 17.7282L42.7344 8.13841C40.4299 5.57139 37.5904 3.49482 34.3923 2.08081L29.9868 14.0196L32.1523 17.7282H32.1537Z" fill="white"/>
<path d="M36.8647 32.0692L37.7195 32.2413L48.3561 30.1002C48.7763 28.3018 49 26.426 49 24.5C49 24.1386 48.9928 23.7801 48.9771 23.423C48.9054 21.771 47.0511 20.8445 45.6887 21.7824C45.3488 22.0162 44.9932 22.2758 44.6232 22.5626C42.462 24.2433 39.4447 27.2191 36.8647 32.0692Z" fill="white"/>
<path d="M37.7193 34.2761L30.5646 32.8363L28.2271 36.8388L37.7193 38.749L45.462 37.1916C46.397 35.6514 47.1656 33.9993 47.745 32.2598L37.7193 34.2775V34.2761Z" fill="white"/>
<path d="M27.1631 38.6587L24.8298 42.6526L37.5789 45.2182C39.9753 43.7024 42.0905 41.7821 43.8287 39.5536L37.718 40.7826L27.1617 38.6587H27.1631Z" fill="white"/>
<path d="M21.837 38.6587L11.2806 40.7826L5.17139 39.5536C6.9095 41.7821 9.02479 43.7024 11.4212 45.2182L24.1702 42.6526L21.837 38.6587Z" fill="white"/>
<path d="M14.1401 46.7068C17.2865 48.1782 20.7972 49.0013 24.5 49.0013C28.2028 49.0013 31.7135 48.1782 34.8598 46.7082L24.4985 44.623L14.1387 46.7082L14.1401 46.7068Z" fill="white"/>
<path d="M72.0129 7.55049H78.343V23.9507H81.8063V7.55049H88.1364V4.08716H72.0129V7.55049Z" fill="white"/>
<path d="M60.7968 17.6981V16.6354L67.963 14.9834V11.4297L60.7968 13.0803V12.5971V10.3283V7.55049H69.7197V4.08716H57.3335V4.22483V7.55049V13.1477V16.6111V20.4874V23.8131V23.9507H70.1786V20.4874H60.7968V17.6981Z" fill="white"/>
<path d="M103.068 4.08716V7.08584V11.6635L93.4353 13.6511V7.08584V4.08716H89.9719V23.9507H93.4353V20.3583V17.4142V17.2062L103.068 15.2186V15.3032V20.3583V23.9507H106.531V4.08716H103.068Z" fill="white"/>
</g>
<defs>
<clipPath id="clip0_80_5">
<rect width="106.531" height="49" fill="white"/>
</clipPath>
</defs>
</svg>
