<svg width="592" height="324" viewBox="0 0 592 324" fill="none" xmlns="http://www.w3.org/2000/svg">
<path fill-rule="evenodd" clip-rule="evenodd" d="M241.811 177.104V116.689H211.664V177.104H204.033V207.312H211.664H241.811V177.104ZM151 177.104V116.689H181.146V177.104H188.778V207.312H181.146H151V177.104ZM188.77 146.895H204.034V177.102H188.77V146.895Z" fill="#141414"/>
<path fill-rule="evenodd" clip-rule="evenodd" d="M441 177.104V116.689H410.854V177.104H403.221V207.312H410.854H441V177.104ZM350.188 177.104V116.689H380.334V177.104H387.966V207.312H380.334H350.188V177.104ZM387.959 146.895H403.222V177.102H387.959V146.895Z" fill="#141414"/>
<path fill-rule="evenodd" clip-rule="evenodd" d="M280.933 116.495H341.225V154.35H311.08V146.701H280.933V146.703H250.787V116.495H280.933ZM311.08 207.504H250.787V177.296H311.08V169.649H341.225V177.296V207.504H311.08ZM280.925 154.35H311.072V169.645H280.925V154.35Z" fill="#12E582"/>
</svg>
