<svg width="592" height="324" viewBox="0 0 592 324" fill="none" xmlns="http://www.w3.org/2000/svg">
<path d="M317.651 209.114V194.02H307.283V209.114H317.651Z" fill="url(#paint0_linear_522_12)"/>
<path d="M317.651 169.105H307.283V194.019H317.651V169.105Z" fill="#015AFD"/>
<path d="M297.86 177.766C297.434 176.699 296.915 175.692 296.244 174.747C295.451 173.619 294.476 172.612 293.378 171.759C292.036 170.722 290.511 169.929 288.895 169.441C287.096 168.831 284.9 168.557 282.369 168.557C279.076 168.557 276.271 169.106 273.892 170.173C271.666 171.118 269.775 172.673 268.403 174.655C267.153 176.546 266.482 178.742 266.482 180.998H276.667C276.667 180.907 276.667 180.815 276.667 180.724C276.667 180.114 276.85 179.504 277.185 178.986C277.612 178.345 278.222 177.827 278.924 177.522C279.747 177.126 280.814 176.912 282.186 176.912C283.65 176.912 284.778 177.095 285.632 177.522C286.364 177.857 287.005 178.345 287.553 178.925C288.011 179.535 288.377 180.236 288.56 180.968H298.775C298.531 179.9 298.226 178.803 297.86 177.766Z" fill="url(#paint1_linear_522_12)"/>
<path d="M299.842 196.764C299.873 199.112 299.202 201.429 297.89 203.411C296.579 205.363 294.719 206.888 292.279 207.985C289.84 209.083 286.851 209.632 283.314 209.632C280.539 209.632 278.161 209.297 276.209 208.656C274.44 208.138 272.824 207.284 271.36 206.186C270.171 205.271 269.134 204.174 268.311 202.954C267.64 201.948 267.061 200.85 266.634 199.691C266.237 198.563 265.963 197.404 265.75 196.215H276.24C276.483 197.129 276.88 197.983 277.398 198.746C278.008 199.508 278.771 200.087 279.624 200.484C280.631 201.002 282.003 201.246 283.741 201.246C285.876 201.246 287.37 200.819 288.193 200.026C289.017 199.234 289.474 198.349 289.474 197.404C289.505 196.611 289.169 195.818 288.529 195.33C287.888 194.812 286.791 194.415 285.235 194.172L279.899 193.318C277.642 192.952 275.447 192.311 273.343 191.427C271.391 190.634 269.653 189.353 268.342 187.707C267.061 186.091 266.42 183.956 266.42 181.333C266.42 181.212 266.42 181.12 266.42 180.998H276.605C276.666 181.882 277.246 182.675 278.069 183.011C279.228 183.56 280.448 183.925 281.728 184.108L287.339 185.023C289.474 185.359 291.578 185.999 293.53 186.944C295.359 187.798 296.915 189.11 298.104 190.726C299.263 192.342 299.842 194.355 299.842 196.764Z" fill="#015AFD"/>
<path d="M235.042 169.136L221.747 209.144H232.542L234.646 202.435L237.421 193.592L240.501 183.773L242.056 178.802L245.075 169.136H235.042Z" fill="url(#paint2_linear_522_12)"/>
<path d="M262.335 209.144H251.54L249.435 202.435H234.676L237.451 193.592H246.661L242.056 178.802L245.105 169.136H249.039L262.335 209.144Z" fill="#015AFD"/>
<path d="M337.473 169.136L324.177 209.144H334.972L337.076 202.435L339.851 193.592L342.931 183.773L344.486 178.802L347.505 169.136H337.473Z" fill="url(#paint3_linear_522_12)"/>
<path d="M364.765 209.144H353.97L351.836 202.435H337.107L339.882 193.592H349.091L344.487 178.802L347.505 169.136H351.47L364.765 209.144Z" fill="#015AFD"/>
<path d="M217.228 115.569C214.696 115.538 212.195 115.904 209.816 116.667V128.235C210.365 127.563 211.005 126.922 211.707 126.404C213.171 125.305 215.032 124.755 217.228 124.755C219.454 124.755 221.315 125.305 222.779 126.404C223.663 127.044 224.426 127.838 225.036 128.723V116.82C222.535 115.935 219.881 115.538 217.228 115.569Z" fill="url(#paint4_linear_522_12)"/>
<path d="M238.102 136.141C238.102 138.703 237.675 141.264 236.79 143.673C235.936 146.113 234.625 148.369 232.887 150.29C231.057 152.303 228.831 153.919 226.361 154.987C223.769 156.145 220.75 156.725 217.274 156.725C213.798 156.725 210.779 156.145 208.187 154.987C205.717 153.889 203.491 152.303 201.692 150.29C199.984 148.369 198.642 146.113 197.758 143.673C196.873 141.264 196.416 138.703 196.416 136.141C196.416 133.58 196.873 131.049 197.758 128.67C198.642 126.231 199.953 124.004 201.692 122.083C203.491 120.071 205.717 118.485 208.156 117.418C208.705 117.174 209.254 116.96 209.833 116.777V128.304C209.254 129.036 208.766 129.859 208.4 130.713C206.906 134.19 206.906 138.093 208.4 141.569C209.102 143.277 210.26 144.741 211.724 145.838C213.188 146.936 215.048 147.485 217.244 147.485C219.439 147.485 221.33 146.936 222.793 145.838C224.257 144.741 225.416 143.277 226.117 141.569C227.581 138.093 227.581 134.19 226.117 130.713C225.843 130.042 225.477 129.371 225.05 128.792V116.899C225.477 117.052 225.904 117.204 226.3 117.418C228.77 118.485 230.996 120.101 232.826 122.083C234.564 124.004 235.875 126.231 236.729 128.67C237.675 131.079 238.102 133.58 238.102 136.141Z" fill="#015AFD"/>
<path d="M253.348 156.206V141.112H242.98V156.206H253.348Z" fill="url(#paint5_linear_522_12)"/>
<path d="M253.348 116.198H242.98V141.112H253.348V116.198Z" fill="#015AFD"/>
<path d="M284.362 116.198V138.429L284.331 138.398V155.322L284.971 156.237H294.638V116.198H284.362Z" fill="url(#paint6_linear_522_12)"/>
<path d="M284.33 138.368V155.292L270.303 135.105V156.207H260.026V116.198H269.602L284.33 138.368Z" fill="#015AFD"/>
<path d="M300.919 116.198V133.793H311.287V125.164H329.889V116.198H300.919V116.198Z" fill="url(#paint7_linear_522_12)"/>
<path d="M327.449 133.823V142.423H311.287V156.206H300.919V133.793H311.287V133.823H327.449Z" fill="#015AFD"/>
<path d="M336.109 116.198V156.207H346.477V116.198H336.109Z" fill="url(#paint8_linear_522_12)"/>
<path d="M365.155 147.296H346.279V156.262H365.155V147.296Z" fill="#015AFD"/>
<path d="M362.67 131.659H346.508V140.197H362.67V131.659Z" fill="#015AFD"/>
<path d="M365.109 116.198H346.508V125.164H365.109V116.198Z" fill="#015AFD"/>
<path d="M402.068 124.888C401.672 123.821 401.123 122.815 400.452 121.9C398.653 119.369 396.092 117.478 393.134 116.564C391.335 115.954 389.139 115.679 386.577 115.679C383.284 115.679 380.479 116.228 378.1 117.295C375.721 118.363 373.892 119.887 372.611 121.778C371.361 123.638 370.69 125.834 370.69 128.09H380.875C380.875 127.999 380.875 127.907 380.875 127.816C380.875 127.206 381.058 126.596 381.393 126.078C381.82 125.437 382.43 124.919 383.132 124.614C383.955 124.218 385.022 124.004 386.394 124.004C387.858 124.004 388.986 124.218 389.84 124.614C390.572 124.949 391.213 125.437 391.761 126.017C392.219 126.627 392.585 127.297 392.798 128.029H403.014C402.77 126.962 402.465 125.895 402.068 124.888Z" fill="url(#paint9_linear_522_12)"/>
<path d="M404.081 143.886C404.112 146.234 403.441 148.552 402.13 150.534C400.819 152.486 398.958 153.98 396.519 155.108C394.079 156.206 391.091 156.755 387.523 156.755C384.748 156.755 382.37 156.419 380.418 155.779C378.649 155.261 377.033 154.407 375.569 153.309C374.38 152.394 373.343 151.296 372.52 150.077C371.849 149.07 371.27 147.973 370.843 146.814C370.446 145.686 370.172 144.527 369.958 143.337H380.448C380.692 144.252 381.089 145.106 381.607 145.868C382.217 146.631 382.98 147.21 383.833 147.607C384.84 148.125 386.212 148.369 387.95 148.369C390.085 148.369 391.579 147.973 392.402 147.149C393.256 146.326 393.683 145.472 393.683 144.527C393.713 143.734 393.378 142.941 392.738 142.453C392.097 141.935 390.999 141.538 389.444 141.294L384.108 140.441C381.851 140.075 379.656 139.434 377.552 138.55C375.6 137.757 373.862 136.476 372.551 134.83C371.27 133.213 370.629 131.079 370.629 128.456C370.629 128.365 370.629 128.243 370.629 128.151H380.875C380.936 129.036 381.516 129.829 382.339 130.164C383.498 130.713 384.718 131.079 385.998 131.262L391.609 132.177C393.744 132.512 395.848 133.152 397.8 134.098C399.629 134.952 401.185 136.263 402.374 137.879C403.502 139.465 404.081 141.477 404.081 143.886Z" fill="#015AFD"/>
<path d="M418.382 116.198V125.164H418.413V156.176H428.781V116.198H418.382Z" fill="url(#paint10_linear_522_12)"/>
<path d="M440.888 116.198H428.782V125.164H440.888V116.198Z" fill="#015AFD"/>
<path d="M418.353 116.198H406.277V125.164H418.353V116.198Z" fill="#015AFD"/>
<path d="M180.925 141.416C180.62 142.484 180.132 143.49 179.522 144.405C178.851 145.289 177.967 145.99 176.961 146.478C175.802 147.088 174.247 147.393 172.356 147.393C170.1 147.393 168.209 146.814 166.715 145.655C165.19 144.496 164.031 142.971 163.33 141.233C163.238 140.989 163.116 140.745 163.055 140.501H151.559C151.773 141.477 152.047 142.453 152.382 143.429C153.267 145.96 154.609 148.277 156.377 150.321C158.207 152.425 160.463 154.071 162.994 155.2C165.647 156.419 168.758 157.029 172.265 157.029C175.284 157.029 177.845 156.663 179.98 155.901C181.931 155.261 183.73 154.285 185.316 153.004C186.658 151.937 187.786 150.656 188.701 149.223C189.463 148.034 190.104 146.783 190.592 145.472C191.019 144.252 191.354 143.032 191.598 141.752C191.598 141.63 191.628 141.538 191.659 141.447L180.925 141.416Z" fill="url(#paint11_linear_522_12)"/>
<path d="M191.598 129.859H180.925C180.62 128.792 180.132 127.786 179.522 126.871C178.851 125.987 177.967 125.255 176.96 124.767C175.802 124.157 174.246 123.852 172.356 123.852C170.099 123.852 168.209 124.431 166.714 125.56C165.19 126.688 164.031 128.213 163.33 129.981C161.927 133.336 161.835 137.087 163.055 140.502H151.528C150.613 136.294 150.888 131.872 152.352 127.816C153.236 125.316 154.578 122.998 156.346 120.986C158.176 118.912 160.433 117.235 162.964 116.107C165.617 114.887 168.727 114.277 172.234 114.277C175.253 114.277 177.814 114.673 179.949 115.405C181.9 116.046 183.7 117.021 185.285 118.302C186.597 119.369 187.755 120.65 188.67 122.053C189.433 123.242 190.073 124.492 190.561 125.834C191.018 127.115 191.354 128.457 191.598 129.859Z" fill="#015AFD"/>
<defs>
<linearGradient id="paint0_linear_522_12" x1="317.642" y1="201.561" x2="307.274" y2="201.561" gradientUnits="userSpaceOnUse">
<stop stop-color="#015AFD"/>
<stop offset="0.84" stop-color="white" stop-opacity="0"/>
</linearGradient>
<linearGradient id="paint1_linear_522_12" x1="266.448" y1="174.77" x2="298.723" y2="174.77" gradientUnits="userSpaceOnUse">
<stop stop-color="#015AFD" stop-opacity="0"/>
<stop offset="1" stop-color="#015AFD"/>
</linearGradient>
<linearGradient id="paint2_linear_522_12" x1="224.969" y1="210.471" x2="242.527" y2="168.079" gradientUnits="userSpaceOnUse">
<stop stop-color="#015AFD"/>
<stop offset="0.84" stop-color="#015AFD" stop-opacity="0"/>
</linearGradient>
<linearGradient id="paint3_linear_522_12" x1="327.394" y1="210.47" x2="344.955" y2="168.079" gradientUnits="userSpaceOnUse">
<stop stop-color="#015AFD"/>
<stop offset="0.84" stop-color="#015AFD" stop-opacity="0"/>
</linearGradient>
<linearGradient id="paint4_linear_522_12" x1="217.424" y1="128.734" x2="217.424" y2="115.587" gradientUnits="userSpaceOnUse">
<stop stop-color="#015AFD"/>
<stop offset="0.84" stop-color="#015AFD" stop-opacity="0"/>
</linearGradient>
<linearGradient id="paint5_linear_522_12" x1="253.355" y1="148.652" x2="242.987" y2="148.652" gradientUnits="userSpaceOnUse">
<stop stop-color="#015AFD"/>
<stop offset="0.84" stop-color="#015AFD" stop-opacity="0"/>
</linearGradient>
<linearGradient id="paint6_linear_522_12" x1="289.483" y1="116.197" x2="289.483" y2="156.22" gradientUnits="userSpaceOnUse">
<stop stop-color="#015AFD"/>
<stop offset="0.84" stop-color="#015AFD" stop-opacity="0"/>
</linearGradient>
<linearGradient id="paint7_linear_522_12" x1="300.929" y1="124.999" x2="329.898" y2="124.999" gradientUnits="userSpaceOnUse">
<stop stop-color="#015AFD" stop-opacity="0"/>
<stop offset="1" stop-color="#015AFD"/>
</linearGradient>
<linearGradient id="paint8_linear_522_12" x1="341.306" y1="116.197" x2="341.306" y2="156.199" gradientUnits="userSpaceOnUse">
<stop stop-color="#015AFD" stop-opacity="0"/>
<stop offset="1" stop-color="#015AFD"/>
</linearGradient>
<linearGradient id="paint9_linear_522_12" x1="370.675" y1="121.873" x2="402.959" y2="121.873" gradientUnits="userSpaceOnUse">
<stop stop-color="#015AFD" stop-opacity="0"/>
<stop offset="1" stop-color="#015AFD"/>
</linearGradient>
<linearGradient id="paint10_linear_522_12" x1="423.582" y1="116.197" x2="423.582" y2="156.199" gradientUnits="userSpaceOnUse">
<stop stop-color="#015AFD" stop-opacity="0"/>
<stop offset="1" stop-color="#015AFD"/>
</linearGradient>
<linearGradient id="paint11_linear_522_12" x1="191.604" y1="148.744" x2="151.48" y2="148.744" gradientUnits="userSpaceOnUse">
<stop stop-color="#015AFD"/>
<stop offset="0.84" stop-color="#015AFD" stop-opacity="0"/>
</linearGradient>
</defs>
</svg>
