<svg width="390" height="172" viewBox="0 0 390 172" fill="none" xmlns="http://www.w3.org/2000/svg">
<g clip-path="url(#clip0_359_37)">
<path d="M137.608 78.3377C135.259 75.5738 131.988 74.1919 127.798 74.1919C123.193 74.1919 119.337 75.9305 116.229 79.4078C113.12 82.8851 111.566 87.2254 111.566 92.4288C111.566 97.6323 113.12 101.973 116.229 105.45C119.337 108.927 123.193 110.666 127.798 110.666C131.988 110.666 135.259 109.284 137.608 106.52V109.697H149.073V75.1722H137.608V78.3377ZM135.603 97.8842C134.268 99.2686 132.522 99.9596 130.365 99.9571C128.207 99.9546 126.461 99.2636 125.126 97.8842C123.789 96.5048 123.122 94.6863 123.124 92.4288C123.127 90.1713 123.794 88.3516 125.126 86.9697C126.461 85.5903 128.207 84.8993 130.365 84.8968C132.522 84.8943 134.268 85.5853 135.603 86.9697C136.937 88.3541 137.606 90.1738 137.608 92.4288C137.611 94.6838 136.942 96.5023 135.603 97.8842Z" fill="black"/>
<path d="M202.456 65.4849L190.991 68.9422V75.1721H185.809V86.1427H190.991V96.436C190.991 101.924 192.384 105.712 195.171 107.799C197.957 109.887 202.781 110.52 209.644 109.697V99.3358C207.062 99.4755 205.22 99.3608 204.117 98.9916C203.015 98.6224 202.461 97.6782 202.456 96.1591V86.1427H209.644V75.1721H202.456V65.4849Z" fill="black"/>
<path d="M232.78 74.2603C227.437 74.2603 223.062 75.9989 219.654 79.4762C216.247 82.9534 214.543 87.2713 214.543 92.4298C214.543 97.6682 216.27 102.009 219.725 105.451C223.18 108.893 227.716 110.608 233.334 110.596C240.009 110.596 245.051 108.086 248.461 103.067L242.314 99.4941C240.333 102.348 237.362 103.776 233.401 103.778C230.547 103.778 228.13 103.076 226.15 101.672C224.169 100.267 222.899 98.2457 222.341 95.6065H249.838C249.999 94.5774 250.091 93.5386 250.111 92.4972C250.111 87.4335 248.49 83.128 245.247 79.5809C242.004 76.0338 237.849 74.2603 232.78 74.2603ZM222.281 89.5263C222.78 86.9046 223.955 84.833 225.805 83.3114C227.656 81.7898 229.959 81.0302 232.713 81.0327C235.025 80.9908 237.282 81.7466 239.103 83.1729C240.922 84.5973 242.084 86.7175 242.591 89.5338L222.281 89.5263Z" fill="black"/>
<path d="M272.918 92.0154L285.213 75.1592H276.51L268.566 86.0737L260.622 75.1592H251.987L264.282 91.9481L251.294 109.699H259.998L268.633 97.8861L277.202 109.699H285.834L272.918 92.0154Z" fill="black"/>
<path d="M108.785 73.2945V61.3436H91.4308V61.3286H79.0347L79.0796 109.697H91.4458V93.1179H108.437V81.167H91.4458V73.2945H108.785Z" fill="black"/>
<path d="M167.842 110.374C163.33 110.374 159.701 109.308 157.051 107.201C154.402 105.095 153.037 102.371 153.037 98.6439H163.887C163.858 99.0694 163.944 99.4949 164.136 99.8755C164.329 100.256 164.62 100.578 164.98 100.807C165.795 101.391 166.781 101.688 167.783 101.652C168.725 101.677 169.655 101.428 170.458 100.934C170.784 100.755 171.055 100.491 171.243 100.17C171.43 99.849 171.528 99.4833 171.524 99.1116C171.529 98.8888 171.498 98.6666 171.434 98.4531C171.37 98.2682 171.262 98.1014 171.12 97.9667C170.941 97.7846 170.768 97.6237 170.604 97.484C170.387 97.3248 170.147 97.1987 169.893 97.1098C169.541 96.9676 169.246 96.8591 169.01 96.7768C168.774 96.6945 168.419 96.6009 167.932 96.4737L166.81 96.1856C166.555 96.122 166.14 96.0247 165.56 95.8975L163.24 95.3213C162.705 95.1866 161.938 94.9471 160.958 94.6403C160.139 94.3942 159.345 94.0723 158.586 93.6787C157.911 93.2921 157.263 92.8596 156.647 92.3841C155.969 91.8892 155.387 91.2741 154.93 90.5694C154.496 89.8401 154.157 89.0578 153.923 88.242C153.631 87.2599 153.486 86.2398 153.493 85.215C153.493 81.8475 154.75 79.2096 157.235 77.3126C159.719 75.4156 163.143 74.4839 167.479 74.4839C171.816 74.4839 175.251 75.4941 177.683 77.4772C180.115 79.4603 181.361 81.5931 181.361 85.0766H170.81C170.679 83.6585 168.711 82.9775 167.375 82.9513C166.58 82.9353 165.794 83.1234 165.092 83.4976C164.817 83.6346 164.587 83.8494 164.432 84.1153C164.277 84.3813 164.204 84.6869 164.22 84.9943C164.219 85.2322 164.278 85.4666 164.393 85.6752C164.53 85.9168 164.725 86.12 164.961 86.2664C165.236 86.4542 165.524 86.623 165.822 86.7716C166.222 86.9578 166.636 87.1129 167.06 87.2355C167.618 87.4114 168.074 87.5461 168.434 87.6396C168.793 87.7332 169.339 87.8641 170.087 88.0138C171.128 88.2757 171.917 88.474 172.467 88.6199C173.017 88.7659 173.788 88.9941 174.824 89.3458C175.66 89.6092 176.47 89.9473 177.245 90.3561C177.937 90.7605 178.606 91.2014 179.251 91.6769C179.97 92.1749 180.583 92.8108 181.054 93.5477C181.498 94.294 181.853 95.0903 182.109 95.92C182.417 96.8966 182.57 97.9155 182.562 98.9395C182.562 102.576 181.189 105.431 178.484 107.422C175.779 109.412 172.201 110.374 167.842 110.374Z" fill="black"/>
<path d="M304.744 62.4733C301.583 61.9457 298.357 61.9457 295.195 62.4733C293.732 62.714 292.381 63.4079 291.334 64.4572C290.286 65.5064 289.594 66.858 289.355 68.3216C288.827 71.4839 288.827 74.7118 289.355 77.8741C289.594 79.3369 290.287 80.6877 291.335 81.7362C292.382 82.7847 293.733 83.4781 295.195 83.7186C296.774 83.9758 298.371 84.101 299.97 84.0927C301.569 84.099 303.166 83.9739 304.744 83.7186C306.206 83.4741 307.555 82.7791 308.602 81.7305C309.649 80.6819 310.342 79.3323 310.585 77.8703C311.104 74.7123 311.104 71.4908 310.585 68.3328C310.345 66.8688 309.652 65.5167 308.605 64.4659C307.557 63.4152 306.207 62.7184 304.744 62.4733V62.4733ZM297.8 80.366C297.6 80.3664 297.405 80.3117 297.235 80.208C297.065 80.1043 296.926 79.9556 296.835 79.7783C296.744 79.601 296.704 79.4021 296.719 79.2034C296.734 79.0047 296.804 78.814 296.92 78.6523L299.618 74.8882L295.128 74.4579C294.892 74.434 294.667 74.3422 294.482 74.1936C294.297 74.0451 294.158 73.8461 294.084 73.6206C294.009 73.3952 294.001 73.1529 294.061 72.923C294.121 72.6932 294.246 72.4855 294.421 72.3252L301.384 66.084C301.589 65.8983 301.856 65.7967 302.133 65.7997C302.415 65.8037 302.684 65.9194 302.881 66.1215C303.06 66.3035 303.169 66.5426 303.189 66.797C303.21 67.0515 303.14 67.305 302.993 67.5134L300.295 71.255L304.785 71.6853C305.022 71.7095 305.246 71.8015 305.432 71.9503C305.618 72.099 305.756 72.2982 305.831 72.5238C305.906 72.7495 305.915 72.992 305.855 73.2223C305.796 73.4525 305.671 73.6607 305.496 73.8218L298.529 80.0817C298.33 80.2643 298.07 80.3657 297.8 80.366V80.366Z" fill="#FF008C"/>
</g>
<defs>
<clipPath id="clip0_359_37">
<rect width="231.932" height="49.3378" fill="white" transform="translate(79.0342 61.3311)"/>
</clipPath>
</defs>
</svg>
