<svg width="390" height="172" viewBox="0 0 390 172" fill="none" xmlns="http://www.w3.org/2000/svg">
<path d="M327.031 86.2822C325.235 85.1117 323.278 84.2641 321.421 83.2147C320.21 82.5488 318.919 81.9434 317.87 81.0756C316.094 79.6226 316.457 76.7368 318.314 75.4856C320.998 73.7097 325.417 74.6985 325.901 78.331C325.901 78.4118 325.982 78.4723 326.063 78.4723H330.099C330.2 78.4723 330.281 78.3916 330.24 78.2705C330.205 77.1279 329.923 76.0064 329.414 74.9825C328.906 73.9586 328.183 73.0564 327.294 72.3374C325.652 71.0707 323.637 70.3825 321.563 70.3799C310.907 70.3799 309.918 81.6608 315.67 85.2126C316.336 85.6162 321.966 88.4415 323.944 89.6725C325.962 90.9035 326.567 93.1638 325.72 94.9195C324.913 96.5541 322.894 97.6842 320.836 97.5429C318.616 97.4219 316.881 96.211 316.275 94.3342C316.174 93.9912 316.114 93.3252 316.114 93.0629C316.109 93.0215 316.091 92.983 316.062 92.9536C316.032 92.9242 315.994 92.9058 315.952 92.9014H311.573C311.513 92.9014 311.432 92.9821 311.432 93.0629C311.432 96.211 312.219 97.9667 314.358 99.561C316.376 101.075 318.596 101.72 320.856 101.72C326.85 101.72 329.938 98.33 330.543 94.8387C331.108 91.408 330.099 88.3204 327.031 86.2822ZM136.93 70.9651H132.854C132.824 70.9688 132.795 70.98 132.771 70.9976C132.746 71.0152 132.726 71.0387 132.713 71.066L129.121 82.8918C129.121 82.9347 129.104 82.9757 129.073 83.006C129.043 83.0363 129.002 83.0533 128.959 83.0533C128.916 83.0533 128.875 83.0363 128.845 83.006C128.815 82.9757 128.798 82.9347 128.798 82.8918L125.206 71.066C125.185 70.9853 125.125 70.9651 125.044 70.9651H118.364C118.284 70.9651 118.203 71.0458 118.203 71.1064V101.297C118.203 101.377 118.284 101.458 118.364 101.458H122.744C122.824 101.458 122.905 101.377 122.905 101.297V78.331C122.905 78.1494 123.167 78.1292 123.208 78.2907L126.84 90.1972L127.103 91.0044C127.103 91.1053 127.163 91.1255 127.244 91.1255H130.614C130.695 91.1255 130.735 91.065 130.755 91.0246L131.018 90.177L134.65 78.2705C134.69 78.109 134.953 78.1494 134.953 78.331V101.276C134.953 101.357 135.033 101.438 135.114 101.438H139.493C139.574 101.438 139.655 101.357 139.655 101.276V71.1064C139.655 71.0458 139.574 70.9651 139.493 70.9651H136.93ZM259.992 70.9651C259.958 70.9654 259.925 70.9749 259.897 70.9927C259.868 71.0105 259.845 71.0359 259.83 71.066L256.238 82.8918C256.238 82.9347 256.221 82.9757 256.191 83.006C256.16 83.0363 256.119 83.0533 256.077 83.0533C256.034 83.0533 255.993 83.0363 255.962 83.006C255.932 82.9757 255.915 82.9347 255.915 82.8918L252.323 71.066C252.323 70.9853 252.262 70.9651 252.182 70.9651H245.522C245.441 70.9651 245.361 71.0458 245.361 71.1064V101.297C245.361 101.377 245.441 101.458 245.522 101.458H249.901C249.962 101.458 250.043 101.377 250.043 101.297V78.331C250.043 78.1494 250.305 78.1292 250.365 78.2907L253.998 90.1972L254.24 91.0044C254.281 91.1053 254.321 91.1255 254.402 91.1255H257.752C257.785 91.1233 257.817 91.1129 257.845 91.0953C257.873 91.0777 257.897 91.0534 257.913 91.0246L258.175 90.177L261.808 78.2705C261.848 78.109 262.111 78.1494 262.111 78.331V101.276C262.111 101.357 262.191 101.438 262.272 101.438H266.651C266.732 101.438 266.813 101.357 266.813 101.276V71.1064C266.813 71.0458 266.732 70.9651 266.651 70.9651H259.992ZM203.506 70.9651H182.821C182.761 70.9651 182.68 71.0458 182.68 71.1064V74.9003C182.68 74.9811 182.761 75.0618 182.821 75.0618H190.833V101.297C190.833 101.397 190.913 101.478 190.974 101.478H195.353C195.434 101.478 195.515 101.397 195.515 101.317V75.0416H203.506C203.587 75.0416 203.668 74.9609 203.668 74.8802V71.1064C203.668 71.0458 203.627 70.9651 203.506 70.9651ZM229.337 101.458H233.333C233.434 101.458 233.515 101.337 233.474 101.256L225.241 70.9651C225.241 70.8844 225.18 70.844 225.099 70.844H219.348C219.316 70.8496 219.285 70.8638 219.261 70.8851C219.236 70.9064 219.217 70.9341 219.207 70.9651L210.973 101.236C210.933 101.337 211.013 101.438 211.114 101.438H215.11C215.191 101.438 215.231 101.397 215.271 101.337L217.653 92.5382C217.673 92.4574 217.733 92.4373 217.814 92.4373H226.613C226.694 92.4373 226.754 92.4776 226.774 92.5382L229.156 101.337C229.196 101.397 229.277 101.458 229.317 101.458H229.337ZM218.884 88.1186L222.072 76.313C222.072 76.2702 222.089 76.2291 222.12 76.1988C222.15 76.1685 222.191 76.1515 222.234 76.1515C222.277 76.1515 222.318 76.1685 222.348 76.1988C222.378 76.2291 222.395 76.2702 222.395 76.313L225.584 88.1186C225.624 88.2195 225.543 88.3204 225.442 88.3204H219.045C218.924 88.3204 218.843 88.2195 218.884 88.1186ZM297.285 101.458H301.281C301.382 101.458 301.463 101.337 301.443 101.256L293.209 70.9449C293.168 70.8642 293.128 70.8239 293.047 70.8239H287.336C287.3 70.8258 287.266 70.8384 287.237 70.8599C287.208 70.8815 287.187 70.9111 287.175 70.9449L278.941 101.216C278.921 101.317 279.002 101.418 279.103 101.418H283.078C283.159 101.418 283.219 101.377 283.24 101.317L285.621 92.518C285.661 92.4373 285.702 92.4171 285.782 92.4171H294.601C294.662 92.4171 294.722 92.4574 294.743 92.518L297.144 101.317C297.144 101.377 297.225 101.438 297.285 101.438V101.458ZM286.832 88.1186L290.04 76.313C290.052 76.2821 290.073 76.2554 290.1 76.2366C290.127 76.2178 290.159 76.2077 290.192 76.2077C290.225 76.2077 290.257 76.2178 290.284 76.2366C290.311 76.2554 290.332 76.2821 290.343 76.313L293.552 88.1186C293.552 88.2195 293.491 88.3204 293.39 88.3204H286.993C286.892 88.3204 286.791 88.2195 286.832 88.1186ZM157.434 96.9779V87.6141C157.434 87.5334 157.494 87.4527 157.575 87.4527H169.24C169.32 87.4527 169.401 87.3719 169.401 87.3114V83.5376C169.397 83.4963 169.378 83.4577 169.349 83.4284C169.319 83.399 169.281 83.3806 169.24 83.3762H157.595C157.515 83.3762 157.454 83.2955 157.454 83.2147V75.2232C157.454 75.1425 157.515 75.0618 157.595 75.0618H170.874C170.955 75.0618 171.036 74.9811 171.036 74.9003V71.1467C171.031 71.1054 171.013 71.0669 170.983 71.0375C170.954 71.0081 170.916 70.9897 170.874 70.9853H152.913C152.872 70.9897 152.834 71.0081 152.804 71.0375C152.775 71.0669 152.756 71.1054 152.752 71.1467V101.297C152.752 101.377 152.833 101.458 152.913 101.458H171.419C171.5 101.458 171.581 101.377 171.581 101.297V97.3008C171.576 97.2595 171.558 97.2209 171.528 97.1915C171.499 97.1621 171.46 97.1437 171.419 97.1393H157.575C157.494 97.1191 157.454 97.0586 157.454 96.9577L157.434 96.9779ZM367.029 101.196L351.894 85.5759C351.871 85.5472 351.859 85.5116 351.859 85.475C351.859 85.4383 351.871 85.4027 351.894 85.3741L365.516 71.2476C365.551 71.2316 365.578 71.2024 365.591 71.1664C365.604 71.1305 365.603 71.0907 365.587 71.0559C365.57 71.0211 365.541 70.9942 365.505 70.9809C365.469 70.9677 365.43 70.9692 365.395 70.9853H359.825C359.764 70.9853 359.744 71.0055 359.724 71.0458L348.161 83.0129C348.138 83.0311 348.112 83.0431 348.084 83.0477C348.056 83.0523 348.027 83.0493 348 83.039C347.973 83.0287 347.95 83.0116 347.932 82.9893C347.914 82.967 347.902 82.9403 347.898 82.912V71.1467C347.894 71.1054 347.875 71.0669 347.846 71.0375C347.817 71.0081 347.778 70.9897 347.737 70.9853H343.358C343.316 70.9897 343.278 71.0081 343.248 71.0375C343.219 71.0669 343.201 71.1054 343.196 71.1467V101.317C343.196 101.397 343.277 101.478 343.358 101.478H347.737C347.818 101.478 347.898 101.397 347.898 101.317V88.0379C347.898 87.8966 348.08 87.8361 348.161 87.937L361.278 101.418C361.299 101.444 361.327 101.465 361.359 101.478H366.949C367.05 101.458 367.151 101.276 367.029 101.196Z" fill="black"/>
<path d="M88.2954 54.7202L61.7781 74.3357L66.7223 62.7723L88.2954 54.7202Z" fill="#E17726" stroke="#E17726" stroke-width="0.504514" stroke-linecap="round" stroke-linejoin="round"/>
<path d="M27.1481 54.7202L53.4232 74.4972L48.7212 62.7924L27.1481 54.7202ZM78.7499 100.187L71.6867 110.963L86.8019 115.121L91.1206 100.429L78.7499 100.187ZM24.343 100.429L28.6415 115.121L43.7164 110.963L36.6935 100.187L24.343 100.429Z" fill="#E27625" stroke="#E27625" stroke-width="0.504514" stroke-linecap="round" stroke-linejoin="round"/>
<path d="M42.909 81.9836L38.7114 88.3203L53.6451 89.0064L53.1607 72.9225L42.909 82.0038V81.9836ZM72.5341 82.0038L62.1209 72.7207L61.7778 89.0064L76.7115 88.3203L72.5341 82.0038ZM43.7162 110.963L52.7773 106.604L44.9876 100.55L43.7162 110.963ZM62.686 106.584L71.6865 110.963L70.4757 100.53L62.686 106.584Z" fill="#E27625" stroke="#E27625" stroke-width="0.504514" stroke-linecap="round" stroke-linejoin="round"/>
<path d="M71.6868 110.964L62.6863 106.604L63.4128 112.457L63.3321 114.939L71.6868 110.964ZM43.7166 110.964L52.1117 114.939L52.0511 112.457L52.7776 106.604L43.7166 110.964Z" fill="#D5BFB2" stroke="#D5BFB2" stroke-width="0.504514" stroke-linecap="round" stroke-linejoin="round"/>
<path d="M52.2527 96.6555L44.7859 94.476L50.0732 92.0544L52.2729 96.6555H52.2527ZM63.1704 96.6555L65.3903 92.0342L70.6978 94.4559L63.1704 96.6757V96.6555Z" fill="#233447" stroke="#233447" stroke-width="0.504514" stroke-linecap="round" stroke-linejoin="round"/>
<path d="M43.7162 110.963L45.0279 100.186L36.6934 100.429L43.7162 110.963ZM70.4151 100.186L71.6865 110.963L78.7497 100.429L70.4151 100.186ZM76.7316 88.3203L61.798 89.0065L63.1703 96.6751L65.3901 92.0335L70.6976 94.4552L76.7316 88.3203ZM44.7858 94.4754L50.0731 92.0537L52.2728 96.6549L53.6652 88.9863L38.7316 88.3203L44.7858 94.4754Z" fill="#CC6228" stroke="#CC6228" stroke-width="0.504514" stroke-linecap="round" stroke-linejoin="round"/>
<path d="M38.7314 88.3203L44.9874 100.53L44.7856 94.4754L38.7314 88.3203ZM70.6975 94.4754L70.4553 100.53L76.7113 88.3203L70.6975 94.4754ZM53.6651 89.0065L52.2524 96.6751L54.0283 105.716L54.4319 93.7893L53.6651 89.0065ZM61.7777 89.0065L61.0512 93.7691L61.4144 105.716L63.1701 96.6549L61.7777 88.9863V89.0065Z" fill="#E27525" stroke="#E27525" stroke-width="0.504514" stroke-linecap="round" stroke-linejoin="round"/>
<path d="M63.1703 96.6556L61.4146 105.717L62.686 106.605L70.4555 100.55L70.6977 94.4761L63.1703 96.6556ZM44.7858 94.4761L44.9876 100.53L52.7773 106.584L54.0285 105.717L52.2728 96.6556L44.7656 94.4761H44.7858Z" fill="#F5841F" stroke="#F5841F" stroke-width="0.504514" stroke-linecap="round" stroke-linejoin="round"/>
<path d="M63.3523 114.939L63.4128 112.457L62.7267 111.892H52.7171L52.0511 112.457L52.1117 114.939L43.7166 110.964L46.6629 113.386L52.6162 117.482H62.8074L68.7808 113.365L71.6868 110.964L63.3321 114.939H63.3523Z" fill="#C0AC9D" stroke="#C0AC9D" stroke-width="0.504514" stroke-linecap="round" stroke-linejoin="round"/>
<path d="M62.6862 106.584L61.4148 105.716H54.0287L52.7775 106.604L52.051 112.457L52.717 111.892H62.7266L63.4127 112.457L62.6862 106.604V106.584Z" fill="#161616" stroke="#161616" stroke-width="0.504514" stroke-linecap="round" stroke-linejoin="round"/>
<path d="M89.4253 75.6071L91.6452 64.8105L88.2952 54.7202L62.6659 73.69L72.5342 81.9842L86.4588 86.0405L89.5262 82.4685L88.1943 81.4998L90.3133 79.5625L88.6988 78.3113L90.8178 76.6969L89.4052 75.6071H89.4253ZM23.7981 64.7903L26.0583 75.6071L24.6053 76.6767L26.7646 78.2911L25.1502 79.5625L27.249 81.4998L25.9171 82.4685L28.9845 86.0405L42.9091 82.0044L52.7774 73.6698L27.1481 54.7202L23.7981 64.7903Z" fill="#763E1A" stroke="#763E1A" stroke-width="0.504514" stroke-linecap="round" stroke-linejoin="round"/>
<path d="M86.4588 86.0412L72.5342 82.005L76.7318 88.3216L70.4758 100.531L78.7499 100.43H91.1206L86.4588 86.0412ZM42.9092 81.9849L28.9846 86.0412L24.343 100.43H36.7137L44.9877 100.531L38.7318 88.3216L42.9293 81.9849H42.9092ZM61.778 89.0077L62.6861 73.6705L66.7222 62.7729H48.7212L52.7573 73.6705L53.6654 89.0077L54.0085 93.8107V105.717H61.4147L61.4551 93.8107L61.778 89.0077Z" fill="#F5841F" stroke="#F5841F" stroke-width="0.504514" stroke-linecap="round" stroke-linejoin="round"/>
</svg>
