<svg width="288" height="172" viewBox="0 0 288 172" fill="none" xmlns="http://www.w3.org/2000/svg">
<path d="M51.7465 100.825V45.6787L28.4937 86.0301L51.7465 100.825Z" fill="#FFE94D"/>
<path d="M51.7466 45.6787L74.9691 86.0301L51.7466 100.825V45.6787Z" fill="#FF9C92"/>
<path d="M28.4937 90.7896L51.7465 105.614V124.744" fill="#53D3E0"/>
<path d="M74.9691 90.7896L51.7466 105.614V124.744" fill="#5A9DED"/>
<path opacity="0.75" d="M51.7465 72.8115L28.4937 86.0296L51.7465 100.824V72.8115Z" fill="#88D848"/>
<path opacity="0.75" d="M51.7466 72.8115L74.9691 86.0296L51.7466 100.824V72.8115Z" fill="#CC71C3"/>
<path d="M90.0363 71.4476C90.1272 74.2973 92.1888 75.6616 94.5535 75.6616C96.0693 75.6616 97.5548 75.0552 98.1611 73.6607H102.102C101.223 77.3593 97.858 79.2996 94.3716 79.2996C90.1575 79.2996 85.9739 76.4498 85.9739 70.2349C85.9739 64.2322 89.9453 61.1399 94.4019 61.1399C98.6462 61.1399 102.254 63.9594 102.254 69.7195V71.4476H90.0363ZM90.1576 68.3553H98.1005C98.1005 66.0512 96.4937 64.7476 94.3412 64.7476C92.401 64.7476 90.5214 65.8087 90.1576 68.3553ZM115.593 78.9054H112.834C109.53 78.9054 107.468 77.8747 107.468 73.2059V65.2327H104.285V61.4431H107.468V57.5019L111.682 56.3499V61.4431H115.169V65.2327H111.682V73.0847C111.682 74.2973 112.016 75.1765 113.774 75.1765H115.563V78.9054H115.593ZM134.996 67.6277V78.9054H130.782V67.9915C130.782 66.0209 129.599 64.8689 127.508 64.8689C124.991 64.8689 123.657 66.5969 123.657 69.4467V78.8751H119.443V54.7734H123.688V64.02C124.658 62.3526 126.022 61.1399 128.993 61.1399C132.965 61.1096 134.996 63.4743 134.996 67.6277ZM143.151 71.4476C143.242 74.2973 145.303 75.6616 147.668 75.6616C149.184 75.6616 150.669 75.0552 151.276 73.6607H155.217C154.338 77.3593 150.973 79.2996 147.486 79.2996C143.272 79.2996 139.089 76.4498 139.089 70.2349C139.089 64.2322 143.06 61.1399 147.517 61.1399C151.761 61.1399 155.369 63.9594 155.369 69.7195V71.4476H143.151ZM143.242 68.3553H151.185C151.185 66.0512 149.578 64.7476 147.426 64.7476C145.485 64.7476 143.636 65.8087 143.242 68.3553ZM169.466 65.3236H168.344C165.403 65.3236 163.797 66.9304 163.797 70.3562V78.9054H159.583V61.4431H163.766V64.02C164.645 62.1101 166.283 61.2309 168.314 61.2309H169.466V65.3236ZM175.59 71.4476C175.681 74.2973 177.742 75.6616 180.107 75.6616C181.623 75.6616 183.108 75.0552 183.715 73.6607H187.656C186.777 77.3593 183.411 79.2996 179.925 79.2996C175.711 79.2996 171.527 76.4498 171.527 70.2349C171.527 64.2322 175.499 61.1399 179.955 61.1399C184.2 61.1399 187.807 63.9594 187.807 69.7195V71.4476H175.59ZM175.681 68.3553H183.624C183.624 66.0512 182.017 64.7476 179.864 64.7476C177.924 64.7476 176.044 65.8087 175.681 68.3553ZM207.089 78.9054H202.966V76.4195C201.935 78.0566 200.51 79.0873 198.115 79.0873C194.447 79.0873 191.839 76.753 191.839 72.2661V61.4431H196.053V71.9933C196.053 74.358 197.296 75.3887 199.115 75.3887C201.086 75.3887 202.875 73.9335 202.875 69.9014V61.4431H207.089V78.9054ZM237.436 67.1426V78.9358H233.222V67.9612C233.222 65.8996 232.251 64.9295 230.432 64.9295C228.432 64.9295 227.067 66.1422 227.067 69.1132V78.9358H222.853V67.9612C222.853 65.8996 221.792 64.9295 220.034 64.9295C218.063 64.9295 216.699 66.1725 216.699 69.0829V78.9358H212.515V61.4431H216.669V64.02C217.214 62.6254 218.609 61.1399 221.246 61.1399C223.581 61.1399 225.309 62.201 226.127 64.02C226.794 62.777 228.128 61.1399 231.281 61.1399C235.071 61.1096 237.436 63.353 237.436 67.1426ZM93.7046 91.2443C92.2191 91.2443 91.9462 92.0022 91.9462 93.0027V94.1547H95.1598V97.9443H91.9462V111.617H87.7322V97.9443H85.125V94.185H87.7322V93.2452C87.7322 88.5461 89.7938 87.5457 93.0679 87.5457H95.6145V91.2746H93.7046V91.2443ZM114.835 102.916C114.835 108.616 111.258 112.011 106.134 112.011C101.041 112.011 97.4639 108.616 97.4639 102.916C97.4639 97.247 101.041 93.8515 106.134 93.8515C111.258 93.8515 114.835 97.247 114.835 102.916ZM101.799 102.916C101.799 106.433 103.679 108.1 106.225 108.1C108.954 108.1 110.53 106.19 110.53 102.916C110.53 99.4298 108.651 97.7624 106.104 97.7624C103.376 97.7624 101.799 99.6723 101.799 102.916ZM134.147 111.647H130.054V109.161C129.023 110.798 127.599 111.829 125.204 111.829C121.535 111.829 118.928 109.495 118.928 105.008V94.185H123.142V104.735C123.142 107.1 124.385 108.131 126.204 108.131C128.175 108.131 129.963 106.675 129.963 102.643V94.185H134.177V111.647H134.147ZM155.096 100.37V111.647H150.882V100.733C150.882 98.7628 149.699 97.6108 147.607 97.6108C145.091 97.6108 143.757 99.3388 143.757 102.189V111.617H139.543V94.185H143.727V96.7316C144.697 95.0945 146.152 93.8818 149.063 93.8818C153.064 93.8515 155.096 96.2162 155.096 100.37ZM176.711 111.647H172.558V108.98C171.618 110.98 169.435 112.041 167.01 112.041C162.735 112.041 159.158 109.04 159.158 102.916C159.158 96.8832 162.735 93.8818 167.01 93.8818C169.284 93.8818 171.436 94.7913 172.467 96.4891V87.5154H176.681V111.647H176.711ZM172.588 102.886C172.588 99.2782 170.284 97.5805 168.011 97.5805C165.555 97.5805 163.463 99.3085 163.463 102.886C163.463 106.403 165.555 108.161 168.011 108.161C170.284 108.161 172.588 106.463 172.588 102.886ZM196.175 99.9148V111.678H192.052V109.131C190.687 111.375 188.414 112.041 186.564 112.041C183.775 112.041 180.925 110.556 180.925 106.857C180.925 102.492 184.897 101.734 186.504 101.491L190.142 100.976C190.93 100.885 192.203 100.521 192.203 99.0963C192.203 97.7017 190.96 97.1863 189.353 97.1863C187.019 97.1863 185.867 98.2777 185.685 99.7633H181.653C182.108 95.7008 185.594 93.8515 189.535 93.8515C193.689 93.8515 196.175 95.7918 196.175 99.9148ZM192.112 104.311V103.401C191.567 103.644 190.991 103.765 190.02 103.917L187.959 104.189C186.867 104.311 185.139 104.796 185.139 106.524C185.139 107.858 186.17 108.525 187.686 108.525C190.142 108.525 192.112 106.736 192.112 104.311ZM210.393 111.647H207.634C204.33 111.647 202.268 110.617 202.268 105.948V97.9746H199.085V94.185H202.268V90.2438L206.482 89.0918V94.185H209.969V97.9746H206.482V105.827C206.482 107.039 206.816 107.918 208.574 107.918H210.363V111.647H210.393ZM214.061 87.0606H218.548V91.8506H214.061V87.0606ZM214.183 111.647H218.397V94.185H214.183V111.647ZM239.891 102.916C239.891 108.616 236.314 112.011 231.19 112.011C226.097 112.011 222.52 108.616 222.52 102.916C222.52 97.247 226.097 93.8515 231.19 93.8515C236.314 93.8515 239.891 97.247 239.891 102.916ZM226.855 102.916C226.855 106.433 228.735 108.1 231.281 108.1C234.01 108.1 235.586 106.19 235.586 102.916C235.586 99.4298 233.707 97.7624 231.16 97.7624C228.432 97.7624 226.855 99.6723 226.855 102.916ZM259.658 100.37V111.647H255.444V100.733C255.444 98.7628 254.261 97.6108 252.169 97.6108C249.653 97.6108 248.319 99.3388 248.319 102.189V111.617H244.105V94.185H248.289V96.7316C249.259 95.0945 250.714 93.8818 253.625 93.8818C257.596 93.8515 259.658 96.2162 259.658 100.37Z" fill="black"/>
</svg>
