<svg width="390" height="172" viewBox="0 0 390 172" fill="none" xmlns="http://www.w3.org/2000/svg">
<g clip-path="url(#clip0_359_29)">
<mask id="mask0_359_29" style="mask-type:luminance" maskUnits="userSpaceOnUse" x="73" y="55" width="242" height="62">
<path d="M314.457 55.1479H73.8296V116.852H314.457V55.1479Z" fill="white"/>
</mask>
<g mask="url(#mask0_359_29)">
<path d="M118.846 92.8081C116.902 91.6812 114.709 91.3562 112.536 91.2853C110.714 91.2243 107.998 90.0566 107.998 86.7163C108.008 85.5131 108.489 84.3618 109.337 83.508C110.184 82.6544 111.333 82.1662 112.536 82.1477C114.709 82.0716 116.902 81.7466 118.846 80.6247C120.592 79.6138 122.041 78.1614 123.048 76.4134C124.054 74.6653 124.584 72.6831 124.582 70.6658C124.581 68.6485 124.049 66.6671 123.039 64.9205C122.03 63.174 120.578 61.7237 118.831 60.7155C117.084 59.7072 115.102 59.1764 113.085 59.1763C111.067 59.1762 109.086 59.7068 107.338 60.715C105.591 61.7231 104.14 63.1731 103.13 64.9196C102.12 66.6661 101.588 68.6474 101.586 70.6648C101.586 72.8933 102.378 74.9442 103.393 76.8478C104.241 78.4469 104.672 81.4167 101.754 83.0969C100.698 83.6839 99.4555 83.8343 98.2911 83.5152C97.1266 83.1964 96.1335 82.4338 95.5248 81.3913C94.3826 79.5637 92.9866 77.8377 91.0728 76.7362C89.3248 75.7279 87.3422 75.1974 85.3243 75.198C83.3063 75.1986 81.324 75.7303 79.5767 76.7396C77.8293 77.7489 76.3783 79.2003 75.3695 80.9481C74.3607 82.6958 73.8296 84.6781 73.8296 86.696C73.8296 88.714 74.3607 90.6965 75.3695 92.4443C76.3783 94.1918 77.8293 95.6434 79.5767 96.6525C81.324 97.6619 83.3063 98.1935 85.3243 98.1943C87.3422 98.1948 89.3248 97.6644 91.0728 96.6561C93.0018 95.5392 94.3826 93.8285 95.5248 92.001C96.4639 90.478 98.8041 88.5896 101.754 90.2952C102.789 90.9158 103.541 91.9177 103.847 93.0863C104.152 94.2545 103.988 95.4961 103.388 96.5442C102.373 98.4481 101.586 100.499 101.586 102.727C101.586 104.747 102.118 106.73 103.127 108.478C104.137 110.227 105.589 111.679 107.337 112.688C109.085 113.698 111.069 114.23 113.088 114.23C115.107 114.23 117.09 113.699 118.839 112.69C120.587 111.681 122.04 110.229 123.05 108.481C124.06 106.733 124.592 104.75 124.592 102.731C124.593 100.712 124.062 98.7283 123.054 96.9795C122.045 95.2305 120.594 93.7778 118.846 92.7674V92.8081Z" fill="#008CFF"/>
<path d="M140.412 69.2705H148.417V73.0473C149.484 71.7485 150.826 70.7014 152.345 69.981C153.864 69.2605 155.523 68.8844 157.204 68.8796C158.345 68.8369 159.485 68.9687 160.585 69.2705V78.408C160.585 78.408 159.479 78.0171 156.814 78.0171C152.245 78.0171 149.199 81.0631 149.199 85.6318V104.288H140.412V69.2705ZM183.434 69.2705H191.44V72.6564C194.173 70.2433 197.688 68.9016 201.334 68.8796C210.121 68.8796 217.736 76.4942 217.736 86.779C217.736 97.064 210.121 104.679 201.334 104.679C197.976 104.687 194.733 103.46 192.222 101.232V116.852H183.434V69.2705ZM208.948 86.779C208.948 81.0528 205.171 77.276 200.227 77.276C195.283 77.276 191.44 81.0377 191.44 86.779C191.44 92.5205 195.278 96.267 200.232 96.267C205.187 96.267 208.948 92.5102 208.948 86.779ZM224.178 69.2705H232.183V72.6564C234.917 70.2445 238.431 68.903 242.077 68.8796C250.864 68.8796 258.479 76.4942 258.479 86.779C258.479 97.064 250.864 104.679 242.077 104.679C238.72 104.684 235.478 103.458 232.965 101.232V116.852H224.178V69.2705ZM249.697 86.779C249.697 81.0528 245.92 77.276 240.971 77.276C236.021 77.276 232.183 81.0377 232.183 86.779C232.183 92.5205 236.026 96.267 240.971 96.267C245.915 96.267 249.697 92.5102 249.697 86.779ZM264.926 56.3205H273.713V104.288H264.926V56.3205ZM280.155 86.779C280.155 76.8902 288.161 68.8796 297.664 68.8796C306.837 68.8796 314.452 76.1084 314.452 86.779C314.415 87.9385 314.284 89.0929 314.061 90.231H289.658C290.44 93.617 293.131 96.267 297.664 96.267C301.766 96.267 303.395 94.3835 303.395 94.3835H312.898C311.137 98.9524 305.669 104.663 297.669 104.663C288.161 104.679 280.155 96.6729 280.155 86.779ZM306.045 84.1139C305.646 82.1823 304.592 80.4475 303.063 79.2019C301.534 77.9564 299.621 77.2763 297.649 77.2763C295.676 77.2763 293.764 77.9564 292.234 79.2019C290.705 80.4475 289.652 82.1823 289.252 84.1139H306.045ZM165.712 60.0923C165.712 58.7715 166.237 57.5048 167.171 56.5709C168.105 55.637 169.372 55.1123 170.692 55.1123C172.013 55.1123 173.28 55.637 174.214 56.5709C175.148 57.5048 175.672 58.7715 175.672 60.0923C175.672 61.4131 175.148 62.6797 174.214 63.6136C173.28 64.5476 172.013 65.0723 170.692 65.0723C169.372 65.0723 168.105 64.5476 167.171 63.6136C166.237 62.6797 165.712 61.4131 165.712 60.0923ZM166.301 69.2705H175.104V104.298H166.316L166.301 69.2705Z" fill="black"/>
</g>
</g>
<defs>
<clipPath id="clip0_359_29">
<rect width="241.674" height="61.704" fill="white" transform="translate(73.8296 55.1479)"/>
</clipPath>
</defs>
</svg>
