<svg width="592" height="324" viewBox="0 0 592 324" fill="none" xmlns="http://www.w3.org/2000/svg">
<g clip-path="url(#clip0_363_107)">
<path d="M315.941 139.54V155.535C318.61 152.045 322.465 150.3 327.506 150.3C329.878 150.3 331.954 150.591 333.733 151.464C335.808 152.045 337.588 153.208 339.07 154.662C340.849 156.117 342.035 157.861 342.925 159.897C343.814 161.933 344.111 164.55 344.111 167.458C344.111 170.657 343.518 173.565 342.332 176.473C341.146 179.091 339.367 181.417 336.698 183.162C334.029 184.907 331.064 185.779 327.209 185.779C321.872 185.779 318.017 184.034 315.645 180.835V184.907H305.267V139.54H315.941ZM276.504 149.428C296.668 149.428 294.888 170.657 294.888 170.657H267.608C268.795 174.728 272.353 177.637 277.394 177.637C283.621 177.637 286.882 174.147 286.882 174.147L292.813 179.963C289.848 182.871 285.696 185.488 277.394 185.488C264.643 185.488 257.823 177.055 257.823 168.331C257.823 159.606 262.568 149.428 276.504 149.428ZM525.879 149.137C534.478 149.137 540.112 152.336 540.112 152.336L536.257 159.897C524.693 154.081 519.652 158.152 519.652 160.188C519.652 162.224 521.727 162.514 529.733 163.968C537.74 165.422 541.298 168.621 541.298 173.856C541.298 179.091 536.553 184.907 525.286 184.907C514.018 184.907 508.977 181.417 508.977 181.417L512.535 174.147C521.431 179.672 531.513 177.927 531.513 174.728C531.513 172.402 528.251 171.82 524.693 171.239L523.21 170.948C522.617 170.948 521.727 170.657 521.134 170.657C516.687 170.075 509.867 167.458 509.867 160.77C509.57 153.79 517.28 149.137 525.879 149.137ZM475.47 136.923V164.259L490.593 150.3H502.75L487.924 164.259L504.233 185.198H492.075L480.807 170.948L475.47 175.892V185.198H465.388V136.923H475.47ZM439.591 149.137C446.707 149.137 452.934 152.627 456.493 157.861L447.894 162.805C446.411 159.897 443.149 157.861 439.591 157.861C434.254 157.861 430.102 161.933 430.102 167.167C430.102 172.402 434.254 176.473 439.591 176.473C443.149 176.473 446.114 174.728 447.597 171.82L456.196 176.473C452.638 181.417 446.707 184.907 439.591 184.907C428.62 184.907 420.021 176.764 420.021 166.877C419.724 156.989 428.62 149.137 439.591 149.137ZM393.037 149.137C404.008 149.137 412.607 157.28 412.607 167.167C412.607 177.055 403.712 185.198 393.037 185.198C382.066 185.198 373.467 177.055 373.467 167.167C373.17 156.989 382.066 149.137 393.037 149.137ZM214.828 150.01V184.616H203.856V150.01H214.828ZM194.368 139.54V148.265H170.053V159.897H191.402V168.331H170.053V184.616H159.082V139.54H194.368ZM238.253 154.372C238.253 154.372 242.108 148.555 250.114 149.428V159.025C250.114 159.025 241.515 156.989 238.253 165.713V184.907H227.875V150.01H237.66L238.253 154.372ZM362.792 136.923V184.616H351.821V136.923H362.792ZM324.541 157.861C318.61 157.861 315.645 161.351 315.645 168.621C315.645 171.239 316.534 173.565 318.017 175.601C319.5 177.346 321.872 178.218 325.134 178.218C327.209 178.218 328.988 177.637 330.174 176.764C331.361 175.601 332.25 174.438 332.843 172.984C333.436 171.53 333.733 169.785 333.733 168.331C333.733 165.422 333.14 162.805 331.657 161.06C329.878 158.734 327.506 157.861 324.541 157.861ZM393.037 157.571C387.7 157.571 383.548 161.642 383.548 166.877C383.548 172.111 387.7 176.182 393.037 176.182C398.374 176.182 402.526 172.111 402.526 166.877C402.229 161.933 398.078 157.571 393.037 157.571ZM276.504 156.698C271.167 156.698 268.201 159.897 267.312 163.968H285.103C285.103 163.096 283.324 156.698 276.504 156.698ZM209.49 133.724C213.048 133.724 216.014 136.341 216.014 139.54C216.014 142.739 213.048 145.357 209.49 145.357C205.932 145.357 202.967 142.739 202.967 139.54C202.967 136.341 205.932 133.724 209.49 133.724Z" fill="black"/>
<path d="M122.683 125.648C124.462 125.648 125.648 126.812 125.648 128.557V195.443C125.648 197.188 124.462 198.351 122.683 198.351H53.5931C51.814 198.351 50.6279 197.188 50.6279 195.443V128.557C50.6279 126.812 51.814 125.648 53.5931 125.648H122.683ZM88.2862 145.714L67.5297 177.994H109.339L88.2862 145.714Z" fill="black"/>
</g>
<defs>
<clipPath id="clip0_363_107">
<rect width="490.743" height="72.7027" fill="white" transform="translate(50.6284 125.648)"/>
</clipPath>
</defs>
</svg>
