<svg width="288" height="172" viewBox="0 0 288 172" fill="none" xmlns="http://www.w3.org/2000/svg">
<path d="M142.937 84.3376C141 83.5596 138.634 82.9111 135.839 82.3908H135.78C133.064 81.9122 131.027 81.4727 129.67 81.0724C128.312 80.6745 127.244 80.1353 126.465 79.4559C125.686 78.7776 125.297 77.8393 125.297 76.6408C125.297 74.8841 125.957 73.5467 127.274 72.6285C128.592 71.7104 130.329 71.2507 132.485 71.2507C134.841 71.2507 136.746 71.8494 138.205 73.0478C139.514 74.1239 140.316 75.4911 140.61 77.1468C140.668 77.477 140.948 77.7205 141.283 77.7241L147.91 77.774C148.317 77.7775 148.642 77.4283 148.602 77.0233C148.379 74.8081 147.649 72.7936 146.411 70.9811C145.034 68.9654 143.137 67.3976 140.721 66.2787C138.305 65.161 135.56 64.6016 132.485 64.6016C129.57 64.6016 126.945 65.1408 124.609 66.2193C122.273 67.2978 120.456 68.7944 119.158 70.7115C117.86 72.6285 117.211 74.7843 117.211 77.1801C117.211 79.8157 117.79 81.9324 118.948 83.5287C120.106 85.1263 121.623 86.3342 123.499 87.1526C125.376 87.971 127.631 88.6195 130.267 89.0994L130.566 89.1588C133.36 89.6778 135.448 90.1375 136.826 90.5366C138.204 90.9369 139.291 91.4951 140.09 92.2137C140.888 92.9323 141.287 93.911 141.287 95.1487C141.287 96.9066 140.569 98.2832 139.131 99.281C137.694 100.28 135.837 100.779 133.561 100.779C130.844 100.779 128.649 100.09 126.972 98.712C125.446 97.4589 124.548 95.8495 124.278 93.8849C124.232 93.5452 123.949 93.2875 123.607 93.2827L116.988 93.1829C116.585 93.177 116.26 93.5167 116.291 93.9182C116.478 96.3341 117.234 98.5113 118.557 100.45C120.014 102.587 122.02 104.264 124.577 105.481C127.131 106.7 130.066 107.308 133.381 107.308C136.455 107.308 139.211 106.75 141.647 105.631C144.082 104.513 145.99 102.965 147.367 100.989C148.745 99.0125 149.434 96.7866 149.434 94.3101C149.434 91.6745 148.834 89.5484 147.637 87.9306C146.44 86.3129 144.872 85.1156 142.936 84.3364L142.937 84.3376Z" fill="black"/>
<path d="M183.639 100.481H182.604C182.005 100.481 181.535 100.322 181.197 100.001C180.857 99.6826 180.687 99.1624 180.687 98.4438V87.0032C180.687 83.3698 179.529 80.6046 177.214 78.7077C174.898 76.8121 172.171 75.8452 167.898 75.8452C163.865 75.8452 160.713 76.7218 158.238 78.4381C155.981 80.0036 154.621 82.1475 154.156 84.8735C154.083 85.2975 154.404 85.6859 154.833 85.6859H160.92C161.225 85.6859 161.499 85.4852 161.579 85.1906C161.857 84.1822 162.47 83.3591 163.418 82.7212C164.516 81.9824 165.82 81.613 167.537 81.613C170.776 81.613 173.079 83.6097 173.079 86.5839V87.5139C173.079 87.894 172.772 88.2016 172.392 88.2016H166.878C162.406 88.2016 159.011 89.0806 156.696 90.8373C154.38 92.5952 153.222 95.0907 153.222 98.3238C153.222 101.12 154.28 103.316 156.397 104.912C157.985 106.11 159.883 106.801 161.837 107.104C163.33 107.335 164.864 107.42 166.36 107.18C167.928 106.929 169.201 106.283 170.476 105.361C171.621 104.535 172.576 103.475 173.448 102.183C173.873 101.452 174.988 101.746 174.988 102.59V103.606C174.987 105.452 176.482 106.948 178.328 106.948H183.639C184.019 106.948 184.326 106.641 184.326 106.261V101.167C184.326 100.787 184.019 100.48 183.639 100.48V100.481ZM173.081 94.3115C173.081 95.7891 172.771 97.0767 172.152 98.1742C170.855 100.476 168.534 101.678 165.922 101.678C164.404 101.678 163.186 101.319 162.268 100.601C161.349 99.8822 160.89 98.9236 160.89 97.7252C160.89 96.3687 161.4 95.3199 162.418 94.5811C163.436 93.8435 164.883 93.473 166.76 93.473H172.393C172.773 93.473 173.081 93.7806 173.081 94.1607V94.3115Z" fill="black"/>
<path d="M205.83 65.0396H197.908C193.73 65.0396 190.342 68.4271 190.342 72.6057V75.9302C190.342 76.3103 190.035 76.618 189.655 76.618H185.132C184.751 76.618 184.444 76.9256 184.444 77.3057V82.4582C184.444 82.8383 184.751 83.146 185.132 83.146H189.655C190.035 83.146 190.342 83.4536 190.342 83.8337V106.261C190.342 106.641 190.65 106.949 191.03 106.949H197.202C197.582 106.949 197.889 106.641 197.889 106.261V83.8337C197.889 83.4536 198.197 83.146 198.577 83.146H205.769C206.149 83.146 206.457 82.8383 206.457 82.4582V77.3057C206.457 76.9256 206.149 76.618 205.769 76.618H198.577C198.197 76.618 197.889 76.3103 197.889 75.9302V72.943C197.889 72.1828 198.506 71.5676 199.265 71.5676H205.829C206.209 71.5676 206.516 71.2599 206.516 70.8798V65.7273C206.516 65.3472 206.209 65.0396 205.829 65.0396H205.83Z" fill="black"/>
<path d="M236.065 82.8113C234.728 80.5759 232.9 78.8584 230.585 77.6599C228.269 76.4626 225.593 75.8462 222.559 75.8462C219.526 75.8462 216.908 76.5125 214.593 77.8096C212.277 79.1078 210.48 80.9441 209.203 83.3197C207.925 85.6964 207.286 88.4805 207.286 91.6756C207.286 94.8707 207.945 97.5361 209.262 99.9117C210.581 102.287 212.467 104.114 214.922 105.392C217.377 106.67 220.262 107.309 223.577 107.309C226.132 107.309 228.419 106.84 230.435 105.902C232.451 104.964 234.078 103.676 235.316 102.039C236.375 100.637 237.099 99.1028 237.486 97.4363C237.587 97.004 237.26 96.5883 236.816 96.5883H230.616C230.319 96.5883 230.059 96.7807 229.964 97.0622C229.527 98.3533 228.756 99.3736 227.65 100.122C226.411 100.96 224.874 101.38 223.038 101.38C221.52 101.38 220.193 101.06 219.055 100.421C217.917 99.7834 217.019 98.8842 216.36 97.7262C216.1 97.2689 215.887 96.7854 215.718 96.2878C215.536 95.7533 215.405 95.2021 215.315 94.6439C215.284 94.4491 215.256 94.2519 215.232 94.0547C215.186 93.6485 215.507 93.2934 215.916 93.2934H237.297C237.644 93.2934 237.941 93.0368 237.98 92.6912C238.01 92.4382 238.03 92.1804 238.041 91.9156C238.061 91.4369 238.07 90.9974 238.07 90.5983C238.07 87.6443 237.402 85.0491 236.064 82.8125L236.065 82.8113ZM229.641 88.0814H216.25C215.81 88.0814 215.479 87.674 215.576 87.2452C215.79 86.3057 216.161 85.4576 216.688 84.6975C217.366 83.7199 218.245 82.9705 219.324 82.4514C220.402 81.9323 221.579 81.6722 222.857 81.6722C224.934 81.6722 226.651 82.2317 228.009 83.3494C229.174 84.3091 229.941 85.6061 230.313 87.2417C230.41 87.6717 230.081 88.0814 229.641 88.0814Z" fill="black"/>
<path d="M100.892 85.9839H95.0224C93.2693 85.9839 91.8487 87.4045 91.8487 89.1576V97.6775C91.8487 99.4307 90.4281 100.851 88.675 100.851H65.3222C63.569 100.851 62.1484 102.272 62.1484 104.025V109.895C62.1484 111.648 63.569 113.069 65.3222 113.069H90.0267C91.7798 113.069 93.1802 111.648 93.1802 109.895V105.185C93.1802 103.432 94.6008 102.189 96.3539 102.189H100.891C102.644 102.189 104.065 100.768 104.065 99.0149V89.1208C104.065 87.3676 102.644 85.9839 100.891 85.9839H100.892Z" fill="black"/>
<path d="M62.1471 74.3218C62.1471 72.5687 63.5677 71.1481 65.3208 71.1481H88.6594C90.4126 71.1481 91.8331 69.7275 91.8331 67.9744V62.1044C91.8331 60.3512 90.4126 58.9307 88.6594 58.9307H63.968C62.2148 58.9307 60.7942 60.3512 60.7942 62.1044V66.6274C60.7942 68.3806 59.3737 69.8012 57.6205 69.8012H53.1034C51.3503 69.8012 49.9297 71.2217 49.9297 72.9749V82.8797C49.9297 84.6329 51.3562 85.9822 53.1094 85.9822H58.9793C60.7325 85.9822 62.1531 84.5616 62.1531 82.8085L62.1471 74.323V74.3218Z" fill="black"/>
<path d="M74.2354 79.8135H79.8737C81.7112 79.8135 83.2019 81.3053 83.2019 83.1416V88.78C83.2019 90.6175 81.71 92.1081 79.8737 92.1081H74.2354C72.3979 92.1081 70.9072 90.6163 70.9072 88.78V83.1416C70.9072 81.3041 72.3991 79.8135 74.2354 79.8135Z" fill="black"/>
</svg>
