<svg width="592" height="324" viewBox="0 0 592 324" fill="none" xmlns="http://www.w3.org/2000/svg">
<g clip-path="url(#clip0_363_114)">
<path d="M273.073 128.419H287.188V185.573H301.302V114.131H287.188C279.424 114.131 273.073 120.561 273.073 128.419Z" fill="black"/>
<path d="M315.414 185.574H329.529V156.997C329.529 149.139 323.177 142.709 315.414 142.709V185.574Z" fill="black"/>
<path d="M343.635 142.709V185.574H357.75V156.997H371.865V171.286C371.865 179.144 378.217 185.574 385.98 185.574V156.997C385.98 149.139 379.628 142.709 371.865 142.709H343.635Z" fill="black"/>
<path d="M470.671 142.708H456.556V128.419C456.556 120.561 450.205 114.131 442.441 114.131V171.285H414.212V156.996H428.327V142.708H414.212C406.449 142.708 400.097 149.138 400.097 156.996V171.285C400.097 179.143 406.449 185.573 414.212 185.573H456.556V156.996H470.671V171.285C470.671 179.143 477.023 185.573 484.786 185.573V156.996C484.786 149.138 478.434 142.708 470.671 142.708Z" fill="black"/>
<path d="M315.414 128.419H329.529C329.529 120.561 323.177 114.131 315.414 114.131V128.419Z" fill="black"/>
<path fill-rule="evenodd" clip-rule="evenodd" d="M295.075 199.862V209.213H293.782L288.701 202.734V209.213H287.184V199.862H288.477L293.557 206.368V199.862H295.075ZM323.787 209.213H318.31V199.862H323.655V201.399H319.934V203.723H323.259V205.259H319.934V207.677H323.787V209.213ZM347.022 201.399H350.018V209.213H351.641V201.399H354.636V199.862H347.022V201.399ZM389.181 199.862H390.738L388.099 209.213H386.581L384.351 202.454L382.161 209.213H380.63L377.872 199.862H379.693L381.554 206.528L383.612 199.862H385.222L387.333 206.541L389.181 199.862ZM415.319 201.251C414.422 202.178 413.974 203.322 413.974 204.685C413.974 206.118 414.427 207.281 415.333 208.171C416.239 209.062 417.387 209.507 418.777 209.507C420.158 209.507 421.306 209.053 422.221 208.145C423.136 207.236 423.594 206.083 423.594 204.685C423.594 203.26 423.136 202.098 422.221 201.198C421.315 200.308 420.167 199.862 418.777 199.862C417.387 199.862 416.234 200.325 415.319 201.251ZM416.573 207.036C415.984 206.412 415.689 205.629 415.689 204.685C415.689 203.723 415.979 202.935 416.56 202.32C417.149 201.706 417.888 201.399 418.777 201.399C419.648 201.399 420.382 201.706 420.981 202.32C421.579 202.944 421.878 203.732 421.878 204.685C421.878 205.629 421.596 206.412 421.033 207.036C420.479 207.659 419.727 207.971 418.777 207.971C417.897 207.971 417.162 207.659 416.573 207.036ZM448.452 205.74V209.24H446.829V199.889C447.286 199.889 447.784 199.884 448.32 199.876C448.857 199.867 449.297 199.862 449.64 199.862C451.874 199.862 452.992 200.824 452.992 202.748C452.992 203.46 452.811 204.048 452.45 204.511C452.09 204.956 451.676 205.259 451.21 205.419L454.1 209.24H452.134L449.587 205.74H448.452ZM449.561 201.399C449.516 201.399 449.446 201.403 449.349 201.412C449.253 201.412 449.116 201.416 448.94 201.425H448.452V204.204H449.508C450.027 204.204 450.449 204.075 450.774 203.816C451.109 203.558 451.276 203.206 451.276 202.761C451.276 201.853 450.704 201.399 449.561 201.399ZM477.335 209.213H478.958V204.391L482.734 209.213H484.791L480.754 204.217L484.555 199.862H482.6L478.958 204.297V199.862H477.335V209.213Z" fill="black" fill-opacity="0.5"/>
<path d="M195.487 117.739C189.35 116.45 182.635 116.802 182.635 116.802C182.635 116.802 180.435 127.116 166.772 129.812C166.888 129.812 184.835 136.024 195.487 117.739Z" fill="black" fill-opacity="0.3"/>
<path d="M201.031 211.262C208.442 205.401 213.999 197.314 216.547 188.171C216.662 187.82 217.704 187.234 218.399 186.765C219.557 186.062 220.715 185.475 220.947 184.538C221.41 181.842 221.641 179.029 221.641 176.216C221.641 175.161 220.599 174.106 219.557 173.051C218.746 172.348 217.936 171.527 217.936 170.942C216.778 160.275 211.915 150.313 204.158 143.046L203.347 143.866C210.873 151.016 215.736 160.744 216.778 171.059C216.894 171.996 217.82 172.934 218.746 173.872C219.557 174.575 220.483 175.63 220.483 176.099C220.483 178.795 220.252 181.49 219.789 184.186C219.673 184.655 218.631 185.124 217.82 185.593C216.662 186.179 215.62 186.765 215.389 187.703C212.61 197.665 206.242 206.339 197.789 211.965C199.294 208.683 204.042 198.017 206.589 192.625L206.126 175.278L191.421 160.862L183.085 162.034L173.938 177.036C173.938 177.036 178.222 182.545 172.201 188.992C166.296 195.321 161.664 196.728 161.664 196.728L157.38 194.384C158.654 192.743 161.201 190.281 163.169 188.64C166.527 185.827 169.885 185.593 169.885 182.545C170.001 176.216 163.285 177.974 163.285 177.974L160.854 180.318L159.812 188.992L154.717 195.438L154.138 195.321L145.802 193.446C145.802 193.446 150.896 190.75 151.707 187.703C152.517 184.772 150.086 175.044 149.97 174.458C150.086 174.575 152.401 176.568 153.444 179.849C155.296 174.692 157.727 169.77 158.422 169.301C159.117 168.832 168.496 163.792 168.496 163.792L165.369 172.114L167.685 170.824L173.243 156.994C173.243 156.994 178.685 154.298 182.737 154.298C190.032 154.181 200.8 145.155 195.937 128.98C197.326 129.567 221.41 141.756 225.578 165.667C228.704 184.069 218.399 201.299 201.031 211.262Z" fill="black" fill-opacity="0.3"/>
<path fill-rule="evenodd" clip-rule="evenodd" d="M216.212 109.185C216.212 109.185 222.001 109.42 228.022 110.123C214.475 99.3398 201.623 96.1751 191.202 96.1751C176.947 96.1751 167.258 102.068 166.553 102.496L166.54 102.504L171.055 95.2374C171.055 95.2374 152.993 93.4793 146.624 112.819C145.004 108.717 143.498 102.739 143.498 102.739C143.498 102.739 134.12 111.061 138.519 124.891C127.751 120.906 112.352 115.397 111.773 115.28C110.962 115.163 110.731 115.515 110.731 115.515C110.731 115.515 110.499 115.866 111.194 116.452C112.468 117.507 136.783 135.675 142.109 139.191C140.951 143.411 140.951 145.403 142.109 147.396C143.73 150.092 143.845 151.498 143.614 153.491C143.382 155.483 141.298 172.713 140.835 174.823C140.648 175.674 139.745 177.404 138.748 179.311H138.748C137.276 182.129 135.603 185.333 135.741 186.661C135.972 188.888 138.983 198.382 141.646 199.437C143.614 200.14 148.477 201.664 151.719 201.664C152.877 201.664 153.919 201.43 154.382 200.961C156.35 199.202 156.93 198.851 158.319 198.851H158.666C158.931 198.851 159.22 198.875 159.534 198.902H159.534C159.906 198.934 160.311 198.968 160.75 198.968C162.603 198.968 165.034 198.617 166.771 196.975C167.972 195.76 169.584 194.336 171.099 192.999C172.797 191.499 174.373 190.107 175.108 189.24C176.845 187.013 177.771 183.965 177.308 180.918C176.96 178.105 178.466 175.643 180.202 173.182C182.402 170.251 186.455 164.977 186.455 164.977C194.444 171.072 199.423 180.332 199.423 190.646C199.423 208.931 183.676 223.699 164.224 223.699C161.213 223.699 158.319 223.348 155.424 222.644C164.34 225.809 171.866 226.864 178.002 226.864C191.086 226.864 198.033 222.058 198.033 222.058C198.033 222.058 195.602 225.223 191.665 228.857H191.781C213.433 225.809 223.969 207.759 223.969 207.759C223.969 207.759 223.159 213.619 222.117 217.604C250.214 196.244 246.31 169.652 245.986 167.444L245.977 167.381C245.973 167.355 245.97 167.336 245.969 167.321C246.112 167.539 247.275 168.968 248.497 170.47L248.497 170.471L248.498 170.471L248.498 170.472L248.502 170.477C249.254 171.401 250.027 172.352 250.6 173.065C255.232 124.774 216.212 109.185 216.212 109.185ZM171.866 186.31C171.509 186.761 170.26 187.907 169.069 189C168.714 189.325 168.364 189.647 168.045 189.943C167.562 190.391 167.065 190.839 166.574 191.282L166.574 191.282H166.573C165.651 192.114 164.748 192.929 163.992 193.693C163.529 194.162 162.603 194.397 161.213 194.397H159.94H159.245H158.782H157.74C159.477 192.053 164.571 186.661 166.308 185.489C168.392 184.082 169.434 182.676 168.161 180.214C166.887 177.753 163.529 178.339 163.529 178.339C163.529 178.339 165.498 177.519 167.234 177.519C165.034 176.933 162.255 177.519 160.982 178.808C160.056 179.668 159.85 181.985 159.644 184.304C159.541 185.463 159.438 186.622 159.245 187.599C158.727 190.328 157.094 191.835 154.596 194.14L154.594 194.142L154.593 194.144L154.585 194.15L154.584 194.152C154.296 194.417 153.997 194.693 153.687 194.983C152.066 196.506 150.909 196.975 149.982 196.975C148.014 196.624 145.698 196.038 144.077 195.452C142.919 193.928 141.183 188.888 140.719 186.778C140.969 185.935 141.759 184.423 142.441 183.118L142.441 183.118L142.442 183.117C142.707 182.609 142.956 182.132 143.151 181.738L143.344 181.364C144.616 178.899 145.362 177.452 145.582 176.112C146.046 174.12 147.551 161.812 148.13 156.655C149.635 158.648 151.719 161.93 151.256 164.04C154.614 159.234 152.182 154.546 151.024 152.67C149.982 150.795 148.593 147.044 149.751 143.059C150.909 139.074 155.077 128.056 155.077 128.056C155.077 128.056 156.466 130.518 158.435 130.049C160.403 129.58 176.265 105.435 176.265 105.435C176.265 105.435 180.55 114.929 176.034 121.844C171.403 128.759 166.887 130.049 166.887 130.049C166.887 130.049 173.255 131.221 179.16 126.884C181.592 132.627 183.908 138.605 184.023 139.426C183.965 139.564 183.784 140 183.522 140.632L183.52 140.635L183.52 140.637L183.519 140.638L183.519 140.639C182.226 143.756 178.966 151.617 178.581 152.201C178.35 152.436 176.729 152.905 175.571 153.139C173.603 153.725 172.445 154.077 171.982 154.428C171.171 155.131 167.466 165.446 165.729 170.486C163.645 171.072 161.561 172.244 160.056 174.588C160.866 174.002 163.414 173.651 165.266 173.416C166.887 173.299 171.866 175.995 173.139 181.035V181.269C173.371 183.145 172.792 184.903 171.866 186.31ZM160.982 187.716C161.802 186.517 161.905 184.665 161.968 183.53C161.985 183.223 161.999 182.968 162.024 182.793C162.14 181.973 162.372 180.449 163.298 180.214C164.224 179.98 166.424 180.332 166.424 181.973C166.424 183.022 165.655 183.515 164.799 184.066C164.411 184.314 164.006 184.575 163.645 184.903C163.117 185.438 162.245 186.37 161.637 187.02L161.637 187.02C161.312 187.368 161.063 187.634 160.982 187.716ZM207.18 165.329C208.338 159.351 208.454 154.194 208.107 149.974C212.622 156.069 215.401 163.453 216.212 171.072C216.328 172.01 217.254 172.947 218.18 173.885C218.991 174.588 219.917 175.526 219.917 176.112C219.917 178.808 219.685 181.504 219.222 184.199C219.112 184.533 218.17 185.077 217.382 185.532L217.254 185.606C216.096 186.192 215.054 186.778 214.822 187.716C212.275 196.741 206.833 204.711 199.539 210.337C210.307 198.968 215.517 180.214 207.18 165.329ZM199.886 211.392C207.412 205.532 213.201 197.327 215.749 188.067C215.838 187.796 216.481 187.384 217.09 186.994L217.09 186.994L217.093 186.992L217.094 186.991L217.096 186.99C217.273 186.877 217.445 186.766 217.601 186.661C218.759 186.075 219.917 185.372 220.148 184.434C220.611 181.738 220.843 178.925 220.843 176.112C220.843 175.057 219.801 174.002 218.759 172.947C218.613 172.77 218.444 172.585 218.275 172.398V172.398C217.772 171.845 217.254 171.276 217.254 170.838C216.328 162.281 212.97 154.194 207.76 147.513C205.481 133.675 196.478 129.254 195.967 129.003C195.959 128.999 195.953 128.996 195.949 128.994L195.963 129.015C196.359 129.609 202.139 138.291 198.033 148.451C194.204 157.774 185.011 157.454 182.44 157.364C182.134 157.354 181.922 157.346 181.824 157.359C180.897 157.359 177.308 162.047 172.792 170.72C172.213 170.486 169.781 169.9 167.003 170.369C169.087 164.508 172.213 156.186 172.792 155.483C172.977 155.296 174.117 154.961 175.158 154.654C175.424 154.576 175.683 154.5 175.918 154.428C178.118 153.842 179.16 153.491 179.508 153.022C179.739 152.67 180.897 149.974 182.055 147.161C183.097 147.161 185.76 146.927 185.992 146.81C186.223 146.575 188.423 140.832 188.423 140.129C188.423 139.543 183.908 128.173 182.171 123.837C182.981 122.899 183.792 121.727 184.602 120.438C208.338 123.016 226.864 143.411 226.864 168.142C226.864 187.13 215.864 203.656 199.886 211.392ZM175.108 112.467C175.108 112.467 176.15 117.156 173.487 120.32C170.129 124.188 167.234 124.071 167.35 124.071L175.108 112.467ZM148.361 179.042L147.435 183.731C147.435 183.731 149.287 183.496 149.287 185.606C149.287 187.247 147.435 189.474 145.93 189.591C144.425 189.709 143.846 187.833 144.193 186.778C144.54 185.841 148.361 179.042 148.361 179.042ZM166.077 139.894C170.129 140.715 171.287 145.52 169.087 148.099C166.887 150.56 161.329 154.077 158.087 154.897C157.393 157.593 151.488 156.421 153.687 147.864C153.687 147.864 154.729 151.967 155.771 151.615C156.814 151.264 168.624 132.51 168.624 132.51C168.624 132.51 167.119 137.433 166.077 139.894ZM165.034 142.239L159.014 152.67C159.014 152.67 164.571 150.092 166.771 146.81C168.508 143.997 165.034 142.239 165.034 142.239ZM164.224 99.3398C153.803 105.669 155.888 120.789 155.888 120.789C146.382 106.131 161.884 100.232 164.015 99.4214V99.4213L164.015 99.4213V99.4212C164.116 99.3828 164.187 99.3558 164.224 99.3398ZM214.706 105.552C197.454 102.27 186.339 103.911 178.35 106.959C178.118 106.021 177.308 104.146 176.613 102.622C174.271 105.444 171.822 108.809 170.197 111.043L170.013 111.295C165.613 114.343 163.761 117.273 163.761 117.273C166.308 108.482 173.718 101.919 182.75 100.278C185.297 99.8088 188.076 99.5744 191.086 99.5744C199.075 99.6916 207.065 101.684 214.706 105.552ZM218.412 126.415C234.738 137.316 242.148 149.388 247.358 163.571C247.126 148.568 242.148 135.675 232.537 125.36L232.306 125.126C223.854 116.101 211.465 111.881 199.191 113.639C194.56 114.225 189.928 115.163 186.339 116.335C185.76 116.452 185.181 116.57 184.602 116.804H184.834C185.76 116.687 202.665 115.866 218.412 126.415ZM227.443 208.11C229.759 205.766 231.727 203.305 233.464 200.961C243.421 186.895 242.032 167.556 230.569 154.663C229.643 153.608 228.601 152.436 227.559 151.381C228.138 152.436 242.379 179.042 227.443 208.11ZM142.08 110.821C141.641 112.519 137.737 127.601 150.909 128.056C143.035 123.251 142.109 110.827 142.109 110.709C142.102 110.735 142.093 110.773 142.08 110.821ZM147.667 135.44C148.477 133.917 147.782 132.862 147.088 132.276L146.856 132.041C145.467 131.338 136.783 128.056 128.215 125.009C135.741 130.049 144.077 134.972 145.467 135.675C146.509 136.144 147.203 136.261 147.667 135.44Z" fill="black"/>
</g>
<defs>
<clipPath id="clip0_363_114">
<rect width="377.572" height="150.028" fill="white" transform="translate(107.214 86.9858)"/>
</clipPath>
</defs>
</svg>
