<svg width="288" height="172" viewBox="0 0 288 172" fill="none" xmlns="http://www.w3.org/2000/svg">
<g clip-path="url(#clip0_363_83)">
<path d="M106.678 85.3667C106.613 83.5948 106.908 81.8279 107.545 80.1726C108.181 78.5169 109.146 77.0071 110.381 75.7336C111.617 74.4598 113.097 73.4488 114.734 72.7609C116.37 72.073 118.129 71.7227 119.905 71.7306C126.595 71.7306 130.555 75.6509 131.749 80.2531L127.551 81.6681C127.181 79.9521 126.205 78.4269 124.801 77.3716C123.396 76.3167 121.658 75.8025 119.905 75.9238C115.57 75.9238 111.235 79.0772 111.235 85.4519C111.235 91.8267 115.467 94.8607 119.956 94.8607C121.719 94.9119 123.448 94.3702 124.865 93.3222C126.283 92.2745 127.307 90.7812 127.773 89.0826L131.852 90.412C131.153 93.0057 129.588 95.2824 127.414 96.8638C125.24 98.4453 122.591 99.2361 119.905 99.1051C118.113 99.1385 116.334 98.8022 114.679 98.1165C113.024 97.4311 111.528 96.4112 110.286 95.1213C109.044 93.8314 108.083 92.2992 107.462 90.6205C106.841 88.942 106.574 87.1531 106.678 85.3667Z" fill="#375BD2"/>
<path d="M139.942 98.474H135.641V71.6621H139.942V82.1792C140.568 81.4392 141.354 80.851 142.241 80.4581C143.128 80.0655 144.092 79.8789 145.062 79.912C149.516 79.912 151.667 83.0996 151.667 87.071V98.474H147.486V87.8038C147.564 87.2849 147.524 86.7549 147.369 86.2533C147.214 85.7517 146.948 85.2912 146.591 84.9065C146.233 84.5215 145.794 84.2221 145.304 84.0304C144.815 83.8383 144.289 83.759 143.765 83.7982C143.245 83.7988 142.73 83.9072 142.254 84.1166C141.778 84.326 141.351 84.6317 140.999 85.0149C140.648 85.398 140.38 85.8496 140.213 86.3414C140.045 86.8332 139.982 87.3546 140.027 87.872L139.942 98.474Z" fill="#375BD2"/>
<path d="M161.276 88.1449L165.901 87.4289C166.942 87.2924 167.232 86.764 167.232 86.1336C167.232 84.6166 166.208 83.3892 163.819 83.3892C163.358 83.3497 162.894 83.404 162.455 83.549C162.016 83.694 161.611 83.9265 161.264 84.2325C160.918 84.5386 160.638 84.9119 160.44 85.3295C160.242 85.747 160.132 86.2002 160.115 86.662L156.19 85.7754C156.514 82.6564 159.347 79.8779 163.784 79.8779C169.348 79.8779 171.465 83.0313 171.465 86.6961V95.6447C171.455 96.615 171.529 97.5846 171.687 98.5423H167.676C167.538 97.7833 167.481 97.012 167.505 96.2413C166.906 97.1582 166.078 97.9033 165.102 98.4027C164.126 98.902 163.036 99.138 161.941 99.0877C161.178 99.1506 160.409 99.0577 159.682 98.8155C158.956 98.5732 158.286 98.1863 157.713 97.6781C157.14 97.1699 156.677 96.5509 156.35 95.8585C156.024 95.1662 155.841 94.4151 155.814 93.6504C155.814 90.3606 158.186 88.588 161.276 88.1449ZM167.232 91.0425V90.2244L162.522 90.9231C161.881 90.9449 161.274 91.2121 160.826 91.6691C160.378 92.1262 160.123 92.738 160.115 93.3775C160.121 93.7079 160.194 94.0332 160.332 94.3336C160.47 94.6337 160.669 94.9018 160.916 95.1213C161.163 95.3409 161.453 95.5067 161.768 95.6087C162.082 95.7104 162.415 95.7458 162.743 95.7129C163.365 95.7761 163.993 95.6971 164.579 95.482C165.166 95.2666 165.695 94.9208 166.128 94.4707C166.561 94.0206 166.885 93.478 167.076 92.8839C167.268 92.2898 167.321 91.6603 167.232 91.0425Z" fill="#375BD2"/>
<path d="M178.77 71.2873C179.142 71.2829 179.512 71.3524 179.858 71.4917C180.203 71.631 180.518 71.8372 180.783 72.099C181.048 72.3606 181.259 72.672 181.402 73.0156C181.546 73.359 181.62 73.7275 181.62 74.0999C181.62 74.8412 181.325 75.5522 180.8 76.0765C180.275 76.6008 179.563 76.8952 178.821 76.8952C178.078 76.8952 177.367 76.6008 176.842 76.0765C176.317 75.5522 176.022 74.8412 176.022 74.0999C176.022 73.3656 176.309 72.6603 176.822 72.1347C177.336 71.6092 178.035 71.305 178.77 71.2873ZM176.67 98.5594V80.4406H180.92V98.4742L176.67 98.5594Z" fill="#375BD2"/>
<path d="M190.785 98.474H186.484V80.4404H190.682V82.8436C191.227 81.921 192.011 81.1621 192.951 80.646C193.891 80.1302 194.952 79.8766 196.024 79.9119C200.428 79.9119 202.544 83.0995 202.544 87.0709V98.474H198.243V87.8037C198.243 85.588 197.236 83.7981 194.54 83.7981C194.003 83.8016 193.473 83.9181 192.984 84.1405C192.496 84.3629 192.06 84.6857 191.705 85.088C191.351 85.4904 191.086 85.9633 190.927 86.4756C190.768 86.9876 190.72 87.5273 190.785 88.0595V98.474Z" fill="#375BD2"/>
<path d="M207.784 98.474V71.6621H212.085V98.474H207.784Z" fill="#375BD2"/>
<path d="M219.765 71.2871C220.512 71.2871 221.229 71.5834 221.757 72.1108C222.285 72.6383 222.581 73.3537 222.581 74.0997C222.578 74.6509 222.411 75.1891 222.102 75.6461C221.794 76.1031 221.356 76.4588 220.846 76.6682C220.335 76.8779 219.773 76.9316 219.232 76.8233C218.691 76.7149 218.194 76.449 217.803 76.0592C217.413 75.6692 217.147 75.1727 217.038 74.6319C216.93 74.0915 216.984 73.5306 217.193 73.0205C217.403 72.5104 217.759 72.0739 218.217 71.7653C218.674 71.457 219.213 71.2906 219.765 71.2871ZM217.649 98.5592V80.4404H221.916V98.474L217.649 98.5592Z" fill="#375BD2"/>
<path d="M231.78 98.4743H227.479V80.4407H231.661V82.844C232.208 81.9239 232.993 81.1668 233.932 80.6514C234.871 80.1359 235.932 79.8807 237.003 79.9123C241.423 79.9123 243.54 83.0998 243.54 87.0713V98.4743H239.239V87.804C239.317 87.2851 239.277 86.7551 239.123 86.2535C238.967 85.752 238.702 85.2915 238.344 84.9068C237.987 84.5218 237.547 84.2223 237.058 84.0306C236.568 83.8386 236.042 83.7593 235.518 83.7985C234.982 83.8016 234.452 83.9182 233.965 84.1405C233.477 84.3632 233.042 84.6863 232.689 85.089C232.336 85.492 232.072 85.9649 231.915 86.4772C231.759 86.9892 231.713 87.5286 231.78 88.0599V98.4743Z" fill="#375BD2"/>
<path d="M258.252 88.0596L265.83 98.474H260.556L255.248 91.0425L253.029 93.3775V98.4911H248.762V71.6621H253.029V87.7359L259.958 80.4404H265.676L258.252 88.0596Z" fill="#375BD2"/>
<path d="M55.7146 64.4182L74.318 75.0885V96.514L55.7658 107.252L37.1627 96.5992V75.1735L55.7146 64.4182ZM55.7146 48.6685L48.8879 52.6229L30.3015 63.3785L23.4746 67.3329V75.2076V96.6163V104.491L30.3015 108.412L48.9049 119.082L55.7317 123.002L62.5587 119.048L81.1109 108.292L87.9376 104.355V96.4799V75.0544V67.1794L81.1109 63.2591L62.5075 52.5888L55.6805 48.6685H55.7146Z" fill="#375BD2"/>
</g>
<defs>
<clipPath id="clip0_363_83">
<rect width="288" height="172" fill="white"/>
</clipPath>
</defs>
</svg>
