<svg width="592" height="324" viewBox="0 0 592 324" fill="none" xmlns="http://www.w3.org/2000/svg">
<g style="mix-blend-mode:difference">
<g clip-path="url(#clip0_422_2)">
<path d="M380.368 117.647C376.003 113.258 370.811 109.779 365.092 107.41C359.374 105.042 353.242 103.831 347.053 103.848H197.5V198.512H394.167V150.962C394.184 144.772 392.973 138.641 390.604 132.922C388.236 127.204 384.756 122.012 380.368 117.647ZM386.052 190.305H362.578V151.104C362.578 146.938 360.923 142.943 357.977 139.997C355.031 137.051 351.036 135.396 346.87 135.396C342.703 135.396 338.708 137.051 335.762 139.997C332.816 142.943 331.161 146.938 331.161 151.104V190.31H268.455C258.062 190.3 248.099 186.168 240.75 178.82C233.401 171.472 229.268 161.508 229.257 151.116V190.31H205.771V111.919H229.257V151.116C229.267 140.724 233.4 130.76 240.748 123.411C248.096 116.063 258.059 111.929 268.452 111.919H307.649V135.404H268.455C264.288 135.404 260.293 137.059 257.347 140.005C254.401 142.951 252.746 146.947 252.746 151.113C252.746 155.279 254.401 159.275 257.347 162.221C260.293 165.167 264.288 166.822 268.455 166.822H307.649V151.104C307.738 140.767 311.907 130.884 319.248 123.606C326.589 116.328 336.508 112.245 346.845 112.245C357.182 112.245 367.101 116.328 374.442 123.606C381.783 130.884 385.952 140.767 386.041 151.104L386.052 190.305Z" fill="black"/>
</g>
<path d="M197.5 219.994V210.761H199.307V219.994H197.5Z" fill="black"/>
<path d="M201.313 219.994V210.761H203.199L207.711 216.961V210.761H209.505V219.994H207.711L203.12 213.676V219.994H201.313Z" fill="black"/>
<path d="M211.515 219.994V210.761H214.47C215.411 210.761 216.242 210.959 216.963 211.354C217.693 211.75 218.26 212.295 218.665 212.99C219.078 213.676 219.285 214.472 219.285 215.378C219.285 216.275 219.078 217.07 218.665 217.765C218.26 218.46 217.693 219.005 216.963 219.401C216.242 219.797 215.411 219.994 214.47 219.994H211.515ZM213.322 218.306H214.47C214.892 218.306 215.284 218.231 215.644 218.082C216.005 217.932 216.317 217.726 216.581 217.462C216.853 217.198 217.064 216.89 217.214 216.538C217.363 216.178 217.438 215.791 217.438 215.378C217.438 214.964 217.363 214.582 217.214 214.23C217.064 213.869 216.853 213.557 216.581 213.293C216.317 213.03 216.005 212.823 215.644 212.674C215.284 212.524 214.892 212.449 214.47 212.449H213.322V218.306Z" fill="black"/>
<path d="M224.973 220.153C224.04 220.153 223.214 219.95 222.493 219.546C221.78 219.133 221.222 218.57 220.817 217.858C220.413 217.136 220.211 216.314 220.211 215.391C220.211 214.45 220.413 213.623 220.817 212.911C221.222 212.19 221.776 211.627 222.48 211.223C223.192 210.818 224.01 210.616 224.933 210.616C225.865 210.616 226.683 210.822 227.387 211.236C228.099 211.64 228.657 212.203 229.062 212.924C229.466 213.636 229.669 214.459 229.669 215.391C229.669 216.314 229.466 217.136 229.062 217.858C228.666 218.57 228.112 219.133 227.4 219.546C226.696 219.95 225.887 220.153 224.973 220.153ZM224.973 218.504C225.535 218.504 226.028 218.372 226.45 218.108C226.881 217.836 227.215 217.466 227.453 217C227.699 216.534 227.822 215.998 227.822 215.391C227.822 214.775 227.699 214.234 227.453 213.768C227.206 213.302 226.868 212.937 226.437 212.674C226.006 212.401 225.505 212.265 224.933 212.265C224.379 212.265 223.882 212.401 223.442 212.674C223.012 212.937 222.673 213.302 222.427 213.768C222.181 214.234 222.057 214.775 222.057 215.391C222.057 215.998 222.181 216.534 222.427 217C222.673 217.466 223.016 217.836 223.456 218.108C223.895 218.372 224.401 218.504 224.973 218.504Z" fill="black"/>
<path d="M231.134 219.994V210.761H233.021L237.532 216.961V210.761H239.326V219.994H237.532L232.941 213.676V219.994H231.134Z" fill="black"/>
<path d="M241.337 219.994V210.761H247.18V212.41H243.144V214.507H246.626V216.116H243.144V218.346H247.233V219.994H241.337Z" fill="black"/>
<path d="M252.204 220.153C251.738 220.153 251.303 220.096 250.898 219.981C250.494 219.867 250.133 219.709 249.817 219.506C249.5 219.295 249.236 219.062 249.025 218.807C248.823 218.552 248.691 218.284 248.629 218.003L250.397 217.475C250.511 217.774 250.714 218.033 251.004 218.253C251.294 218.464 251.659 218.574 252.099 218.583C252.565 218.592 252.943 218.491 253.233 218.28C253.532 218.069 253.681 217.796 253.681 217.462C253.681 217.172 253.563 216.93 253.325 216.736C253.097 216.534 252.78 216.38 252.376 216.275L251.175 215.958C250.727 215.844 250.331 215.672 249.988 215.444C249.645 215.206 249.377 214.916 249.183 214.573C248.99 214.23 248.893 213.83 248.893 213.373C248.893 212.502 249.179 211.825 249.751 211.341C250.331 210.849 251.149 210.603 252.204 210.603C252.793 210.603 253.308 210.69 253.747 210.866C254.196 211.033 254.57 211.275 254.869 211.592C255.168 211.908 255.396 212.282 255.555 212.713L253.8 213.254C253.695 212.955 253.501 212.7 253.22 212.489C252.938 212.278 252.582 212.172 252.151 212.172C251.712 212.172 251.364 212.273 251.109 212.476C250.863 212.678 250.74 212.964 250.74 213.333C250.74 213.623 250.837 213.852 251.03 214.019C251.232 214.186 251.505 214.314 251.848 214.402L253.062 214.705C253.853 214.898 254.469 215.246 254.908 215.747C255.348 216.248 255.568 216.807 255.568 217.422C255.568 217.967 255.436 218.447 255.172 218.86C254.908 219.265 254.526 219.581 254.024 219.81C253.523 220.038 252.916 220.153 252.204 220.153Z" fill="black"/>
<path d="M257.117 219.994V210.761H258.924V219.994H257.117Z" fill="black"/>
<path d="M267.327 219.994L263.792 210.761H265.599L269.24 219.994H267.327ZM260.033 219.994L263.673 210.761H265.481L261.945 219.994H260.033ZM261.748 217.963V216.367H267.538V217.963H261.748Z" fill="black"/>
<path d="M277.565 220.153C276.668 220.153 275.873 219.95 275.178 219.546C274.483 219.133 273.938 218.57 273.542 217.858C273.146 217.136 272.949 216.31 272.949 215.378C272.949 214.445 273.146 213.623 273.542 212.911C273.938 212.19 274.479 211.627 275.165 211.223C275.859 210.809 276.655 210.603 277.552 210.603C278.185 210.603 278.775 210.717 279.32 210.946C279.865 211.165 280.34 211.478 280.744 211.882C281.158 212.278 281.474 212.735 281.694 213.254L280.019 213.874C279.869 213.549 279.672 213.267 279.425 213.03C279.179 212.783 278.898 212.594 278.581 212.462C278.264 212.322 277.922 212.251 277.552 212.251C277.016 212.251 276.536 212.388 276.114 212.66C275.701 212.924 275.376 213.289 275.138 213.755C274.91 214.221 274.795 214.762 274.795 215.378C274.795 215.993 274.914 216.538 275.151 217.013C275.389 217.479 275.719 217.849 276.141 218.121C276.563 218.385 277.047 218.517 277.592 218.517C277.97 218.517 278.313 218.447 278.621 218.306C278.937 218.157 279.214 217.954 279.452 217.699C279.698 217.444 279.896 217.15 280.045 216.815L281.72 217.422C281.501 217.959 281.184 218.434 280.771 218.847C280.366 219.26 279.891 219.581 279.346 219.81C278.801 220.038 278.207 220.153 277.565 220.153Z" fill="black"/>
<path d="M283.048 219.994V210.761H286.477C287.128 210.761 287.704 210.888 288.205 211.143C288.707 211.398 289.098 211.75 289.379 212.199C289.661 212.638 289.801 213.153 289.801 213.742C289.801 214.322 289.652 214.841 289.353 215.298C289.063 215.747 288.663 216.099 288.153 216.354C287.642 216.6 287.062 216.723 286.411 216.723H284.855V219.994H283.048ZM288.126 219.994L285.989 216.288L287.374 215.298L290.171 219.994H288.126ZM284.855 215.074H286.49C286.763 215.074 287.005 215.017 287.216 214.903C287.436 214.788 287.607 214.63 287.73 214.428C287.862 214.226 287.928 213.997 287.928 213.742C287.928 213.346 287.783 213.025 287.493 212.779C287.212 212.533 286.847 212.41 286.398 212.41H284.855V215.074Z" fill="black"/>
<path d="M295.665 216.182L293.964 215.747L296.931 210.761H298.989L295.665 216.182ZM293.911 219.994V215.562H295.718V219.994H293.911ZM293.964 216.182L290.639 210.761H292.697L295.665 215.747L293.964 216.182Z" fill="black"/>
<path d="M300.09 219.994V210.761H303.52C304.171 210.761 304.747 210.893 305.248 211.157C305.749 211.412 306.14 211.772 306.422 212.238C306.703 212.695 306.844 213.228 306.844 213.834C306.844 214.432 306.708 214.964 306.435 215.43C306.162 215.896 305.789 216.266 305.314 216.538C304.839 216.802 304.289 216.934 303.665 216.934H301.897V219.994H300.09ZM301.897 215.272H303.625C304.03 215.272 304.36 215.14 304.615 214.876C304.878 214.604 305.01 214.256 305.01 213.834C305.01 213.412 304.865 213.069 304.575 212.805C304.294 212.542 303.929 212.41 303.48 212.41H301.897V215.272Z" fill="black"/>
<path d="M309.99 219.994V212.41H307.22V210.761H314.554V212.41H311.798V219.994H309.99Z" fill="black"/>
<path d="M319.963 220.153C319.03 220.153 318.204 219.95 317.483 219.546C316.77 219.133 316.212 218.57 315.807 217.858C315.403 217.136 315.201 216.314 315.201 215.391C315.201 214.45 315.403 213.623 315.807 212.911C316.212 212.19 316.766 211.627 317.469 211.223C318.182 210.818 319 210.616 319.923 210.616C320.855 210.616 321.673 210.822 322.376 211.236C323.089 211.64 323.647 212.203 324.052 212.924C324.456 213.636 324.659 214.459 324.659 215.391C324.659 216.314 324.456 217.136 324.052 217.858C323.656 218.57 323.102 219.133 322.39 219.546C321.686 219.95 320.877 220.153 319.963 220.153ZM319.963 218.504C320.525 218.504 321.018 218.372 321.44 218.108C321.871 217.836 322.205 217.466 322.442 217C322.689 216.534 322.812 215.998 322.812 215.391C322.812 214.775 322.689 214.234 322.442 213.768C322.196 213.302 321.858 212.937 321.427 212.674C320.996 212.401 320.495 212.265 319.923 212.265C319.369 212.265 318.872 212.401 318.432 212.674C318.002 212.937 317.663 213.302 317.417 213.768C317.17 214.234 317.047 214.775 317.047 215.391C317.047 215.998 317.17 216.534 317.417 217C317.663 217.466 318.006 217.836 318.446 218.108C318.885 218.372 319.391 218.504 319.963 218.504Z" fill="black"/>
<path d="M329.267 219.994V210.761H331.154L335.665 216.961V210.761H337.459V219.994H335.665L331.074 213.676V219.994H329.267Z" fill="black"/>
<path d="M339.47 219.994V210.761H345.313V212.41H341.277V214.507H344.759V216.116H341.277V218.346H345.366V219.994H339.47Z" fill="black"/>
<path d="M349.19 219.994V212.41H346.419V210.761H353.754V212.41H350.997V219.994H349.19Z" fill="black"/>
<path d="M362.341 219.994L364.992 210.761H366.826L364.069 219.994H362.341ZM356.774 219.994L354.044 210.761H355.877L358.502 219.994H356.774ZM357.012 219.994L359.531 210.761H361.167L358.66 219.994H357.012ZM362.169 219.994L359.689 210.761H361.325L363.897 219.994H362.169Z" fill="black"/>
<path d="M372.159 220.153C371.227 220.153 370.401 219.95 369.679 219.546C368.967 219.133 368.409 218.57 368.004 217.858C367.6 217.136 367.397 216.314 367.397 215.391C367.397 214.45 367.6 213.623 368.004 212.911C368.409 212.19 368.963 211.627 369.666 211.223C370.379 210.818 371.196 210.616 372.12 210.616C373.052 210.616 373.87 210.822 374.573 211.236C375.286 211.64 375.844 212.203 376.249 212.924C376.653 213.636 376.855 214.459 376.855 215.391C376.855 216.314 376.653 217.136 376.249 217.858C375.853 218.57 375.299 219.133 374.586 219.546C373.883 219.95 373.074 220.153 372.159 220.153ZM372.159 218.504C372.722 218.504 373.215 218.372 373.637 218.108C374.068 217.836 374.402 217.466 374.639 217C374.885 216.534 375.009 215.998 375.009 215.391C375.009 214.775 374.885 214.234 374.639 213.768C374.393 213.302 374.054 212.937 373.624 212.674C373.193 212.401 372.691 212.265 372.12 212.265C371.566 212.265 371.069 212.401 370.629 212.674C370.198 212.937 369.86 213.302 369.614 213.768C369.367 214.234 369.244 214.775 369.244 215.391C369.244 215.998 369.367 216.534 369.614 217C369.86 217.466 370.203 217.836 370.642 218.108C371.082 218.372 371.588 218.504 372.159 218.504Z" fill="black"/>
<path d="M378.321 219.994V210.761H381.751C382.401 210.761 382.977 210.888 383.479 211.143C383.98 211.398 384.371 211.75 384.653 212.199C384.934 212.638 385.075 213.153 385.075 213.742C385.075 214.322 384.925 214.841 384.626 215.298C384.336 215.747 383.936 216.099 383.426 216.354C382.916 216.6 382.335 216.723 381.685 216.723H380.128V219.994H378.321ZM383.399 219.994L381.263 216.288L382.648 215.298L385.444 219.994H383.399ZM380.128 215.074H381.764C382.036 215.074 382.278 215.017 382.489 214.903C382.709 214.788 382.881 214.63 383.004 214.428C383.136 214.226 383.202 213.997 383.202 213.742C383.202 213.346 383.056 213.025 382.766 212.779C382.485 212.533 382.12 212.41 381.671 212.41H380.128V215.074Z" fill="black"/>
<path d="M387.905 217.66L387.693 215.391L392.02 210.761H394.355L387.905 217.66ZM386.823 219.994V210.761H388.604V219.994H386.823ZM392.271 219.994L388.59 215.298L389.896 214.217L394.5 219.994H392.271Z" fill="black"/>
</g>
<defs>
<clipPath id="clip0_422_2">
<rect width="197" height="95.161" fill="white" transform="translate(197.5 103.848)"/>
</clipPath>
</defs>
</svg>
